<svg version="1.1" id="Layer_1" xmlns="http://www.w3.org/2000/svg" xmlns:xlink="http://www.w3.org/1999/xlink" x="0px" y="0px"
	 width="100%" viewBox="0 0 268 84" enable-background="new 0 0 268 84" xml:space="preserve">
<path fill="#212C55" opacity="1.000000" stroke="none" 
	d="
M1.000000,44.000000 
	C1.000000,29.675615 1.000000,15.351232 0.999999,1.020136 
	C90.268600,1.013424 179.537216,1.013424 268.902893,1.013424 
	C268.902893,28.917494 268.902893,56.835438 268.902893,84.876694 
	C179.666779,84.876694 90.333420,84.876694 1.000000,84.876694 
	C1.000000,72.588615 1.000000,60.262966 1.460887,47.376728 
	C56.163006,46.816139 110.404236,46.816139 165.914734,46.816139 
	C160.900436,56.184242 162.175583,66.726463 154.715347,73.475258 
	C159.712189,73.475258 164.943283,73.475258 169.335205,73.475258 
	C168.484955,71.527924 166.778473,69.477798 167.255356,68.355064 
	C168.562210,65.278358 167.045456,60.153114 171.869095,59.561943 
	C173.693619,59.338337 175.855255,61.865463 178.296326,63.413368 
	C179.140549,60.585377 180.216553,56.980965 181.299820,53.352226 
	C177.723572,54.910633 174.662643,56.244480 171.601730,57.578323 
	C171.084198,57.018059 170.566681,56.457794 170.049164,55.897530 
	C171.783493,52.866905 172.822296,48.742813 175.429489,47.084431 
	C178.636688,45.044399 181.828369,47.301678 183.603195,51.520161 
	C184.254425,49.187489 184.905655,46.854820 185.636200,44.238079 
	C184.267776,44.150749 183.615341,44.072350 182.962952,44.072746 
	C146.970840,44.094501 110.978722,44.148201 74.986618,44.141766 
	C50.324406,44.137356 25.662207,44.050179 1.000000,44.000000 
M200.962952,57.140263 
	C201.125977,58.548328 201.693314,60.055367 201.377335,61.346184 
	C200.369751,65.462463 199.033920,69.498390 197.804092,73.635208 
	C202.223343,74.819710 204.673157,74.176491 206.369263,69.538315 
	C208.047913,64.947914 209.268051,60.572105 209.028549,55.697609 
	C208.883743,52.750168 207.437393,51.567436 204.919662,52.561153 
	C202.856323,53.375523 201.131989,55.048813 198.810196,56.646347 
	C198.691483,57.135456 198.572769,57.624565 198.454071,58.113670 
	C199.036469,57.806511 199.618866,57.499348 200.962952,57.140263 
M85.780968,36.881760 
	C87.174797,36.254829 88.568626,35.627903 90.019913,35.800243 
	C90.648872,37.116096 91.587654,39.632771 91.859032,39.562748 
	C94.689011,38.832565 97.411827,37.687031 99.716782,36.824192 
	C95.646400,29.155035 102.125618,23.794535 101.517082,16.994383 
	C98.638580,17.402672 95.818642,17.802654 92.178741,17.943569 
	C84.730202,17.833132 78.038551,22.129545 75.161903,29.112339 
	C73.834671,32.334103 72.500099,35.933502 75.896553,38.642242 
	C79.330330,41.380753 82.356659,39.320694 85.780968,36.881760 
M146.203476,21.168903 
	C147.568481,17.069145 148.933502,12.969386 150.351227,8.711253 
	C145.943909,9.381789 142.490112,9.907253 140.259674,10.246595 
	C140.385040,12.788709 140.963181,14.817401 140.487915,16.558548 
	C138.462952,23.976934 136.126358,31.310253 133.903503,38.674622 
	C134.327240,39.167622 134.750977,39.660622 135.174713,40.153625 
	C137.582062,38.823631 139.968094,37.451534 142.419754,36.208981 
	C142.788025,36.022343 143.463409,36.441715 144.004791,37.547112 
	C146.300812,38.156517 148.804626,39.672440 150.853287,39.202808 
	C156.650620,37.873840 161.338760,30.810217 160.872955,24.354391 
	C160.715607,22.173698 159.529663,19.054979 157.898483,18.272144 
	C156.202805,17.458342 153.348434,18.785696 151.098068,19.488379 
	C149.340576,20.037159 147.731979,21.062731 146.203476,21.168903 
M20.637062,29.983660 
	C19.110474,32.911419 17.583887,35.839180 16.093807,38.696922 
	C20.086802,38.696922 25.081215,38.696922 30.796616,38.696922 
	C24.248583,33.807461 30.185814,29.561617 29.694883,25.270681 
	C33.760765,25.270681 37.301193,25.270681 42.073002,25.270681 
	C39.529621,30.416765 37.360649,34.805290 35.444740,38.681793 
	C39.311249,38.681793 44.255157,38.681793 49.427818,38.681793 
	C48.267784,37.034271 46.448612,35.496033 46.729576,34.688358 
	C49.620480,26.378016 49.510540,16.921289 55.979332,9.828276 
	C51.100975,9.828276 46.288288,9.828276 39.970589,9.828276 
	C46.851608,13.277506 44.066830,18.299561 42.106323,20.218599 
	C39.785446,22.490389 35.117630,22.364525 30.391262,23.547091 
	C31.590176,19.400000 31.886417,16.807289 33.077442,14.726819 
	C34.124462,12.897902 36.173248,11.642480 38.074215,9.857080 
	C32.678356,9.857080 27.692251,9.857080 23.953787,9.857080 
	C24.114996,12.749130 24.703030,15.104869 24.267776,17.253296 
	C23.447214,21.303606 22.037182,25.234493 20.637062,29.983660 
M57.416576,20.822256 
	C55.861027,22.525070 53.439220,24.010313 52.944614,25.979595 
	C52.117725,29.271826 51.366798,33.482796 52.774811,36.150822 
	C53.892654,38.269012 58.285965,39.583649 61.227283,39.587700 
	C65.184166,39.593159 68.559700,37.224213 70.481590,33.979683 
	C67.111771,34.721169 63.957527,35.759228 60.768707,35.879333 
	C59.953259,35.910049 59.028435,33.036797 57.973236,31.179865 
	C62.489025,30.059435 66.302422,29.766329 69.390274,28.115828 
	C71.423294,27.029144 72.410965,23.986763 73.866737,21.820120 
	C71.700645,20.366560 69.570030,17.798529 67.359901,17.728159 
	C64.267044,17.629683 61.114914,19.392710 57.416576,20.822256 
M224.895554,54.168472 
	C221.445618,57.153294 222.013718,60.177433 224.863434,63.161572 
	C226.124176,64.481766 227.852448,65.497780 228.707047,67.022575 
	C229.523621,68.479538 229.481430,70.417786 229.816727,72.144478 
	C228.263504,71.681190 226.505310,71.530167 225.207275,70.678123 
	C223.458130,69.529968 222.063431,67.841850 220.516632,66.385468 
	C219.987396,66.669609 219.458160,66.953758 218.928925,67.237900 
	C219.259201,69.012894 219.039291,71.218132 220.025955,72.479828 
	C222.672531,75.864182 231.738922,75.360443 235.233383,71.969536 
	C238.437592,68.860306 237.792679,65.366882 233.195480,60.979065 
	C232.354309,60.176220 231.222931,59.539413 230.705963,58.569817 
	C230.058517,57.355518 229.907227,55.876678 229.541779,54.512032 
	C229.937973,54.264206 230.334152,54.016384 230.730347,53.768562 
	C233.125336,55.555405 235.520325,57.342247 238.154877,59.307823 
	C240.154678,55.656048 239.907074,52.984158 235.678589,52.723297 
	C232.340042,52.517342 228.934372,53.399136 224.895554,54.168472 
M105.483635,38.980087 
	C109.010277,41.010983 111.355072,38.820873 112.825424,37.685326 
	C112.637032,34.985237 112.029427,33.150394 112.484276,31.634302 
	C114.736694,24.126604 117.269737,16.703102 119.809723,8.925794 
	C115.619408,9.477039 112.225250,9.923548 110.050537,10.209637 
	C110.050537,12.769439 110.509827,15.023965 109.960228,16.997534 
	C108.580521,21.951933 106.553886,26.726488 105.181763,31.682545 
	C104.600998,33.780247 105.011444,36.152374 105.483635,38.980087 
M131.127350,12.547267 
	C129.412323,13.129169 127.402260,13.333706 126.055481,14.386640 
	C124.295258,15.762807 123.059731,17.810102 121.949661,19.146023 
	C122.153839,20.956329 122.813438,22.863140 122.468483,24.566517 
	C121.749741,28.115637 120.229485,31.504850 119.541771,35.057190 
	C118.813858,38.817192 121.275520,40.746613 124.905396,39.480667 
	C126.357430,38.974262 127.632111,37.959316 129.126205,37.095695 
	C124.135170,33.268875 128.592056,29.996384 128.966492,26.707737 
	C129.417557,22.745930 130.870911,19.236668 135.874496,18.593786 
	C134.578430,18.287973 133.282349,17.982159 132.415115,17.777533 
	C132.221008,15.854311 132.059113,14.250375 131.127350,12.547267 
M241.619919,66.015625 
	C241.818710,68.744171 242.017517,71.472710 242.216324,74.201256 
	C244.768616,73.826866 247.320923,73.452484 248.475266,73.283165 
	C248.747589,64.527229 248.222366,57.249245 257.721771,53.450596 
	C255.653412,53.119308 254.394775,52.917713 253.010620,52.696014 
	C253.340271,50.995529 253.643936,49.429020 254.146591,46.836113 
	C251.464050,47.517014 249.016891,47.529919 247.413559,48.699524 
	C245.421722,50.152554 244.127655,52.562084 242.410126,54.711285 
	C242.702362,54.820122 243.762085,55.214779 244.855072,55.621819 
	C243.820374,58.958904 242.842041,62.114197 241.619919,66.015625 
M188.630814,74.120766 
	C190.586746,73.354996 191.596573,73.005241 191.338455,69.849457 
	C191.028732,66.062691 193.769058,62.092094 194.785965,58.098557 
	C195.187149,56.523182 195.106140,54.011528 194.142929,53.129791 
	C193.168854,52.238117 190.794464,52.598728 189.104034,52.862656 
	C187.938583,53.044617 186.893219,53.995777 187.037155,53.916233 
	C187.037155,56.748558 187.364822,58.250202 186.973312,59.532215 
	C185.955856,62.863869 184.455093,66.049080 183.459305,69.385880 
	C182.328766,73.174240 183.432632,75.352104 188.630814,74.120766 
M216.563995,59.967838 
	C217.953979,58.449337 219.532776,57.046562 220.588837,55.323421 
	C220.825317,54.937553 219.012192,52.481781 218.515091,52.596249 
	C215.895294,53.199524 213.394775,54.320881 210.745148,55.302364 
	C213.063538,57.359341 214.439911,58.580524 216.563995,59.967838 
M197.837402,45.721458 
	C196.024933,45.343605 194.179321,44.617283 192.418686,44.784653 
	C191.834732,44.840168 190.866058,47.368412 191.178146,48.446217 
	C191.474274,49.468945 193.864578,50.960217 194.209885,50.707787 
	C195.706451,49.613728 196.791504,47.956760 197.837402,45.721458 
z"/>
<path fill="#D6D8DF" opacity="1.000000" stroke="none" 
	d="
M1.000000,44.375000 
	C25.662207,44.050179 50.324406,44.137356 74.986618,44.141766 
	C110.978722,44.148201 146.970840,44.094501 182.962952,44.072746 
	C183.615341,44.072350 184.267776,44.150749 185.636200,44.238079 
	C184.905655,46.854820 184.254425,49.187489 183.603195,51.520161 
	C181.828369,47.301678 178.636688,45.044399 175.429489,47.084431 
	C172.822296,48.742813 171.783493,52.866905 170.049164,55.897530 
	C170.566681,56.457794 171.084198,57.018059 171.601730,57.578323 
	C174.662643,56.244480 177.723572,54.910633 181.299820,53.352226 
	C180.216553,56.980965 179.140549,60.585377 178.296326,63.413368 
	C175.855255,61.865463 173.693619,59.338337 171.869095,59.561943 
	C167.045456,60.153114 168.562210,65.278358 167.255356,68.355064 
	C166.778473,69.477798 168.484955,71.527924 169.335205,73.475258 
	C164.943283,73.475258 159.712189,73.475258 154.715347,73.475258 
	C162.175583,66.726463 160.900436,56.184242 165.914734,46.816139 
	C110.404236,46.816139 56.163006,46.816139 1.460887,46.908070 
	C1.000000,46.250000 1.000000,45.500000 1.000000,44.375000 
z"/>
<path fill="#F5F6F8" opacity="1.000000" stroke="none" 
	d="
M20.754620,29.599340 
	C22.037182,25.234493 23.447214,21.303606 24.267776,17.253296 
	C24.703030,15.104869 24.114996,12.749130 23.953787,9.857080 
	C27.692251,9.857080 32.678356,9.857080 38.074215,9.857080 
	C36.173248,11.642480 34.124462,12.897902 33.077442,14.726819 
	C31.886417,16.807289 31.590176,19.400000 30.391262,23.547091 
	C35.117630,22.364525 39.785446,22.490389 42.106323,20.218599 
	C44.066830,18.299561 46.851608,13.277506 39.970589,9.828276 
	C46.288288,9.828276 51.100975,9.828276 55.979332,9.828276 
	C49.510540,16.921289 49.620480,26.378016 46.729576,34.688358 
	C46.448612,35.496033 48.267784,37.034271 49.427818,38.681793 
	C44.255157,38.681793 39.311249,38.681793 35.444740,38.681793 
	C37.360649,34.805290 39.529621,30.416765 42.073002,25.270681 
	C37.301193,25.270681 33.760765,25.270681 29.694883,25.270681 
	C30.185814,29.561617 24.248583,33.807461 30.796616,38.696922 
	C25.081215,38.696922 20.086802,38.696922 16.093807,38.696922 
	C17.583887,35.839180 19.110474,32.911419 20.754620,29.599340 
z"/>
<path fill="#F1F2F5" opacity="1.000000" stroke="none" 
	d="
M57.702362,20.590799 
	C61.114914,19.392710 64.267044,17.629683 67.359901,17.728159 
	C69.570030,17.798529 71.700645,20.366560 73.866737,21.820118 
	C72.410965,23.986763 71.423294,27.029144 69.390274,28.115828 
	C66.302422,29.766329 62.489025,30.059435 57.973236,31.179865 
	C59.028435,33.036797 59.953259,35.910049 60.768707,35.879333 
	C63.957527,35.759228 67.111771,34.721169 70.481590,33.979683 
	C68.559700,37.224213 65.184166,39.593159 61.227283,39.587700 
	C58.285965,39.583649 53.892654,38.269012 52.774811,36.150822 
	C51.366798,33.482796 52.117725,29.271826 52.944614,25.979595 
	C53.439220,24.010313 55.861027,22.525070 57.702362,20.590799 
M66.354431,19.448750 
	C60.499077,19.683018 60.593876,24.495689 58.718338,28.854242 
	C64.261528,27.654610 67.312401,25.405169 66.354431,19.448750 
z"/>
<path fill="#F1F2F4" opacity="1.000000" stroke="none" 
	d="
M225.227036,53.983154 
	C228.934372,53.399136 232.340042,52.517342 235.678589,52.723297 
	C239.907074,52.984158 240.154678,55.656048 238.154877,59.307823 
	C235.520325,57.342247 233.125336,55.555405 230.730347,53.768562 
	C230.334152,54.016384 229.937973,54.264206 229.541779,54.512032 
	C229.907227,55.876678 230.058517,57.355518 230.705963,58.569817 
	C231.222931,59.539413 232.354309,60.176220 233.195480,60.979065 
	C237.792679,65.366882 238.437592,68.860306 235.233383,71.969536 
	C231.738922,75.360443 222.672531,75.864182 220.025955,72.479828 
	C219.039291,71.218132 219.259201,69.012894 218.928925,67.237900 
	C219.458160,66.953758 219.987396,66.669609 220.516632,66.385468 
	C222.063431,67.841850 223.458130,69.529968 225.207275,70.678123 
	C226.505310,71.530167 228.263504,71.681190 229.816727,72.144478 
	C229.481430,70.417786 229.523621,68.479538 228.707047,67.022575 
	C227.852448,65.497780 226.124176,64.481766 224.863434,63.161572 
	C222.013718,60.177433 221.445618,57.153294 225.227036,53.983154 
z"/>
<path fill="#F6F6F8" opacity="1.000000" stroke="none" 
	d="
M143.996735,36.580757 
	C143.463409,36.441715 142.788025,36.022343 142.419754,36.208981 
	C139.968094,37.451534 137.582062,38.823631 135.174713,40.153625 
	C134.750977,39.660622 134.327240,39.167622 133.903503,38.674622 
	C136.126358,31.310253 138.462952,23.976934 140.487915,16.558548 
	C140.963181,14.817401 140.385040,12.788709 140.259674,10.246595 
	C142.490112,9.907253 145.943909,9.381789 150.351227,8.711253 
	C148.933502,12.969386 147.568481,17.069145 145.986389,21.840134 
	C146.249191,23.673285 146.729080,24.835207 147.080933,26.336082 
	C145.443130,29.531904 143.908844,32.376884 142.500977,35.283104 
	C142.435226,35.418819 143.497681,36.101082 144.020233,36.561081 
	C144.005753,36.593357 143.996735,36.580757 143.996735,36.580757 
z"/>
<path fill="#F6F7F8" opacity="1.000000" stroke="none" 
	d="
M105.227493,38.689930 
	C105.011444,36.152374 104.600998,33.780247 105.181763,31.682545 
	C106.553886,26.726488 108.580521,21.951933 109.960228,16.997534 
	C110.509827,15.023965 110.050537,12.769439 110.050537,10.209637 
	C112.225250,9.923548 115.619408,9.477039 119.809723,8.925794 
	C117.269737,16.703102 114.736694,24.126604 112.484276,31.634302 
	C112.029427,33.150394 112.637032,34.985237 112.825424,37.685326 
	C111.355072,38.820873 109.010277,41.010983 105.227493,38.689930 
z"/>
<path fill="#F5F5F7" opacity="1.000000" stroke="none" 
	d="
M131.512299,12.596853 
	C132.059113,14.250375 132.221008,15.854311 132.415115,17.777533 
	C133.282349,17.982159 134.578430,18.287973 135.874496,18.593786 
	C130.870911,19.236668 129.417557,22.745930 128.966492,26.707737 
	C128.592056,29.996384 124.135170,33.268875 129.126205,37.095695 
	C127.632111,37.959316 126.357430,38.974262 124.905396,39.480667 
	C121.275520,40.746613 118.813858,38.817192 119.541771,35.057190 
	C120.229485,31.504850 121.749741,28.115637 122.468483,24.566517 
	C122.813438,22.863140 122.153839,20.956329 121.949661,19.146023 
	C123.059731,17.810102 124.295258,15.762807 126.055481,14.386640 
	C127.402260,13.333706 129.412323,13.129169 131.512299,12.596853 
z"/>
<path fill="#F4F4F6" opacity="1.000000" stroke="none" 
	d="
M241.741821,65.642563 
	C242.842041,62.114197 243.820374,58.958904 244.855072,55.621819 
	C243.762085,55.214779 242.702362,54.820122 242.410126,54.711285 
	C244.127655,52.562084 245.421722,50.152554 247.413559,48.699524 
	C249.016891,47.529919 251.464050,47.517014 254.146591,46.836113 
	C253.643936,49.429020 253.340271,50.995529 253.010620,52.696014 
	C254.394775,52.917713 255.653412,53.119308 257.721771,53.450596 
	C248.222366,57.249245 248.747589,64.527229 248.475266,73.283165 
	C247.320923,73.452484 244.768616,73.826866 242.216324,74.201256 
	C242.017517,71.472710 241.818710,68.744171 241.741821,65.642563 
z"/>
<path fill="#F3F3F5" opacity="1.000000" stroke="none" 
	d="
M144.000763,37.063934 
	C143.996735,36.580757 144.005753,36.593357 144.086456,36.136436 
	C145.944824,35.951603 147.722458,36.223682 150.393539,36.632507 
	C151.398300,32.360092 152.540527,27.503214 153.682739,22.646336 
	C153.119278,22.425503 152.555817,22.204670 151.992355,21.983837 
	C150.397888,23.321602 148.803436,24.659365 147.208969,25.997128 
	C146.729080,24.835207 146.249191,23.673285 145.913269,22.193901 
	C147.731979,21.062731 149.340576,20.037159 151.098068,19.488379 
	C153.348434,18.785696 156.202805,17.458342 157.898483,18.272144 
	C159.529663,19.054979 160.715607,22.173698 160.872955,24.354391 
	C161.338760,30.810217 156.650620,37.873840 150.853287,39.202808 
	C148.804626,39.672440 146.300812,38.156517 144.000763,37.063934 
z"/>
<path fill="#F4F4F6" opacity="1.000000" stroke="none" 
	d="
M92.998703,18.202637 
	C95.818642,17.802654 98.638580,17.402672 101.517082,16.994383 
	C102.125618,23.794535 95.646400,29.155035 99.716782,36.824192 
	C97.411827,37.687031 94.689011,38.832565 91.859032,39.562748 
	C91.587654,39.632771 90.648872,37.116096 90.165634,35.121487 
	C89.933556,33.605663 89.555763,32.768600 89.152603,31.577999 
	C89.992020,29.708757 91.147026,28.283035 91.651611,26.655645 
	C92.358055,24.377174 92.579948,21.948463 93.003342,19.353842 
	C92.995010,18.816648 92.995399,18.509642 92.998703,18.202637 
z"/>
<path fill="#F5F5F7" opacity="1.000000" stroke="none" 
	d="
M188.259537,74.223450 
	C183.432632,75.352104 182.328766,73.174240 183.459305,69.385880 
	C184.455093,66.049080 185.955856,62.863869 186.973312,59.532215 
	C187.364822,58.250202 187.037155,56.748558 187.037155,53.916233 
	C186.893219,53.995777 187.938583,53.044617 189.104034,52.862656 
	C190.794464,52.598728 193.168854,52.238117 194.142929,53.129791 
	C195.106140,54.011528 195.187149,56.523182 194.785965,58.098557 
	C193.769058,62.092094 191.028732,66.062691 191.338455,69.849457 
	C191.596573,73.005241 190.586746,73.354996 188.259537,74.223450 
z"/>
<path fill="#F5F6F8" opacity="1.000000" stroke="none" 
	d="
M92.588722,18.073103 
	C92.995399,18.509642 92.995010,18.816648 92.614311,19.280766 
	C86.855568,21.208843 81.648621,28.240677 82.013397,33.560917 
	C82.068047,34.357975 83.304192,35.074020 84.266098,35.933430 
	C84.735779,36.361198 84.933128,36.683083 85.130478,37.004967 
	C82.356659,39.320694 79.330330,41.380753 75.896553,38.642242 
	C72.500099,35.933502 73.834671,32.334103 75.161903,29.112339 
	C78.038551,22.129545 84.730202,17.833132 92.588722,18.073103 
z"/>
<path fill="#F7F8F9" opacity="1.000000" stroke="none" 
	d="
M199.257385,56.341354 
	C201.131989,55.048813 202.856323,53.375523 204.919662,52.561153 
	C207.437393,51.567436 208.883743,52.750168 209.028549,55.697609 
	C209.268051,60.572105 208.047913,64.947914 206.369263,69.538315 
	C204.673157,74.176491 202.223343,74.819710 197.804092,73.635208 
	C199.033920,69.498390 200.369751,65.462463 201.377335,61.346184 
	C201.693314,60.055367 201.125977,58.548328 200.347809,56.951653 
	C199.574265,56.622482 199.415833,56.481918 199.257385,56.341354 
z"/>
<path fill="#ECEDF0" opacity="1.000000" stroke="none" 
	d="
M216.190140,59.884773 
	C214.439911,58.580524 213.063538,57.359341 210.745148,55.302364 
	C213.394775,54.320881 215.895294,53.199524 218.515091,52.596249 
	C219.012192,52.481781 220.825317,54.937553 220.588837,55.323421 
	C219.532776,57.046562 217.953979,58.449337 216.190140,59.884773 
z"/>
<path fill="#EDEEF1" opacity="1.000000" stroke="none" 
	d="
M197.931793,46.112972 
	C196.791504,47.956760 195.706451,49.613728 194.209885,50.707787 
	C193.864578,50.960217 191.474274,49.468945 191.178146,48.446217 
	C190.866058,47.368412 191.834732,44.840168 192.418686,44.784653 
	C194.179321,44.617283 196.024933,45.343605 197.931793,46.112972 
z"/>
<path fill="#28335A" opacity="1.000000" stroke="none" 
	d="
M85.455719,36.943363 
	C84.933128,36.683083 84.735779,36.361198 84.373367,35.626984 
	C85.864861,34.120281 87.521416,33.025909 89.177963,31.931538 
	C89.555763,32.768600 89.933556,33.605663 90.136902,34.721851 
	C88.568626,35.627903 87.174797,36.254829 85.455719,36.943363 
z"/>
<path fill="#F7F8F9" opacity="1.000000" stroke="none" 
	d="
M199.966980,56.977615 
	C199.618866,57.499348 199.036469,57.806511 198.454071,58.113670 
	C198.572769,57.624565 198.691483,57.135456 199.033783,56.493851 
	C199.415833,56.481918 199.574265,56.622482 199.966980,56.977615 
z"/>
<path fill="#353F64" opacity="1.000000" stroke="none" 
	d="
M66.593735,19.745905 
	C67.312401,25.405169 64.261528,27.654610 58.718338,28.854242 
	C60.593876,24.495689 60.499077,19.683018 66.593735,19.745905 
z"/>
<path fill="#2C365D" opacity="1.000000" stroke="none" 
	d="
M147.080933,26.336082 
	C148.803436,24.659365 150.397888,23.321602 151.992355,21.983837 
	C152.555817,22.204670 153.119278,22.425503 153.682739,22.646336 
	C152.540527,27.503214 151.398300,32.360092 150.393539,36.632507 
	C147.722458,36.223682 145.944824,35.951603 144.100952,36.104164 
	C143.497681,36.101082 142.435226,35.418819 142.500977,35.283104 
	C143.908844,32.376884 145.443130,29.531904 147.080933,26.336082 
z"/>
<path fill="#212C55" opacity="1.000000" stroke="none" 
	d="
M89.152603,31.578001 
	C87.521416,33.025909 85.864861,34.120281 84.101044,35.521099 
	C83.304192,35.074020 82.068047,34.357975 82.013397,33.560917 
	C81.648621,28.240677 86.855568,21.208843 92.620117,19.510950 
	C92.579948,21.948463 92.358055,24.377174 91.651611,26.655645 
	C91.147026,28.283035 89.992020,29.708757 89.152603,31.578001 
z"/>
</svg>