<?xml version="1.0" encoding="UTF-8"?>
<svg id="Layer_1" data-name="Layer 1" xmlns="http://www.w3.org/2000/svg" viewBox="0 0 1500 393.81">
  <defs>
    <style>
      .cls-1 {
        fill: #6b1f99;
      }

      .cls-2 {
        fill: #231f20;
      }
    </style>
  </defs>
  <g>
    <path class="cls-1" d="m233.57,24.54c-3.15,3-3.41,6.25-4.33,10.49l-36.71,131.08c-1.25,4.02.19,8.71,2.64,10.49,6.71,4.98,17.58.73,17.34,10.19-.46,8.83-27.95,5.8-43.91,5.31-35.53-1.26-51.24,5.44-51.73-4.72-.43-9.27,13.06-8.07,21.55-11.7,2.54-1.34,5.03-6.81,6.5-11.53l16.2-56.44.43-4.53h-68.29l-3.45,13.52-12.05,44.46c-1.42,5.22-3.42,11.73,3.16,15.72,7.2,4.47,17.87.98,16.39,10.24-1.88,9.98-24.39,5.26-47.09,4.72-34.46-.72-51.38,6.07-50.19-3.98,1.43-10.51,14.93-7.51,22.45-11.25,2.41-1.5,5.08-7,6.01-11.76l35.52-122.78c1.95-6.49,4.1-11.81.71-17.52-4.07-6.94-17.59-.45-17.37-10.49.24-9.76,13.75-5.51,49.95-5.51,32.33,0,45.41-6.22,45.18,5.29-.28,9.22-16.64,6.74-21.97,9.76-4.09,2.24-6.04,5.26-7.51,9.71l-15.9,55.64h68.13l15.18-53.36c1.21-4.05,1.43-7.31-.75-10.75-4.53-8.01-20.53.21-18.12-12.72,1.49-7.26,14.03-4.77,50.49-4.05,30.6.73,41.77-6.5,41.52,5.02-.21,9.97-12.98,5.22-20.01,11.46"/>
    <path class="cls-1" d="m271.23,138.17l-5.8.73-.21,6.48c0,7.47,1.42,31.5,25.51,31.92,30.18.31,43.72-36.88,49.04-22.91,2.93,7.49-29.19,43.15-66.89,42.39-15.62-.18-52.33-6.7-51.66-52.1.72-47.23,50.29-86.91,93.53-87.7,15.42-.43,44.54,5.29,43.61,33.02-1.15,38.63-48.71,42.67-87.12,48.18m36.44-70.91c-27.49,2.9-40.56,59.93-39.85,60.15l4.09-.22c30.96-3.3,45.91-28.74,45.62-48.21,0-5.97-3.03-12.53-9.85-11.73"/>
    <path class="cls-1" d="m504.83,182.61c-11.32,8.78-23.64,13.74-34.51,13.74-10.62.26-16.61-6.28-15.9-14.51.97-8.8,2.66-14,4.3-22.18l4.58-19.78-16.4,19.78c-19.75,24.12-41.25,37.44-58.96,37.13-18.04-.44-31.68-17.69-29.67-37.13,6.04-59.45,64.44-104.36,105.03-100.67,13.28.8,18.1,5.75,20.75,5.29,1.46,0,1.72-1.79,2.45-2.99l1.24-2.54c.71-1.24,1.46-1.75,2.6-2.21,1.19-.77,4.63-.77,7.51-.77h17.62c4.65,0,9.46-.76,11.66,3.23,1.61,3.49-.74,6.55-1.97,11.19l-12.84,41.95c-14.21,47.76-14.21,55.28-8.9,55,3.37-.5,6.49-3.29,9.4-6.47l4.33-4.75c4.35-4.3,7.77-12.05,11.58-10.76,11.39,3.76-10.64,26.98-23.91,37.46m-37.38-113.89c-26.56,0-60.84,57.48-61.62,88.96-.18,7.91,3.38,11.21,8.94,12.46,12.71,2.45,60.4-55.17,64.25-90.17.74-6.21-6.29-11.25-11.58-11.25"/>
    <path class="cls-1" d="m588.91,150.67c-2.7,8.23-6.8,19.96-2.19,22.22,3.13,1.71,12.1-6.25,16.87-12.74,7.34-9.77,8.52-15.45,13.61-12.24,6.45,3.72-12.43,28.7-27.35,38.7-9.87,6.48-20.78,10.91-28.95,9.75-18.21-2.32-19.03-15.48-19.36-24.22-.43-10.02,2.44-16.7,5.32-26.5l35.75-109.31c1.67-5.52,1.23-9,0-11.28-4.11-7.21-16.19,1.72-17.11-8.47-.54-9.22,22.88-4.78,35.7-6.47,24.83-3.77,27.53-10.5,32.13-9.74,2.16.2,2.16,3.21,1.63,5.45l-46.05,144.85Z"/>
    <path class="cls-1" d="m730.21,74.49h-28.06l-24.17,77.62c-2.4,8.06-6.52,20.93-1.46,21.45,6.07.79,12.12-7.15,17.91-13.21,7.3-7.69,8.43-14.72,13.04-12.13,8.42,4.45-10.12,27.14-23.7,37.11-9.89,7.51-20.44,11.78-30.21,11.47-23.41-.42-24.12-22.72-16.88-45.9l23.65-76.4h-22.88l4.1-12.74h22.95l5.25-15.73c2.51-7.51,4.82-17.94,7.96-18.68,4.41-1.07,3.7-.76,5.81-.76h23c2.86,0,6.26-.78,7.71,1.26,1.68,1.92-.74,7.22-1.89,11.69l-6.27,22.21h28.01l-3.84,12.74Z"/>
    <path class="cls-1" d="m805.28,196.79c-8.69,0-25.33-3.44-25.33-18.92,0-5.74,3.29-14.95,12.51-14.95,17.41,0,9.2,21.17,18.64,21.17,8.9,0,27.45-70.62,27.45-85.12,0-4.78-.89-12.73-7.42-12.73-11.59,0-29.97,24.7-38.13,37.2-15.28,23.73-27.33,63.68-32.41,67.65-1.62,1.5-3.3,1.98-6.29,1.98h-30.39c-2.48,0-3.63-3.45-3.18-5.95,2.33-7.81,3.84-13.57,6.5-21.99l38.89-132.52c.82-2.57.31-4.34-.87-6.8-3.18-6.68-17.18-1.48-16.94-8.48,0-12.47,15.66-4.53,39.39-8,20.71-3.53,26.09-11.53,30.17-8.77,2.13,1.54.92,5.01,0,7.5l-31.73,103.39,7.57-9.94c17.95-23.04,36.94-44,62-44,19.11,0,28.05,21.26,28.05,42.7,0,43.99-33.34,96.59-78.48,96.59"/>
    <path class="cls-1" d="m1067.17,9.02l-10.78,35.97c-.8,2.76-2.17,4.46-5.61,4.24-15.96-1.27,8.69-32.44-29.44-32.02-15.9.55-26.79.79-27.54,1.05l-17.08,59.22c-.47,1.66-1.74,3.45-.31,4.44,1.24,1.23,2.64.47,4.39.47l9.4.29c10.12.21,22.74-2.51,25.8-4.02,11.14-6.22,10.44-21.74,19.8-21.21,9.47.77,1.95,16.74-3.85,33.77-6.7,19.41-4.28,36.66-14.02,36.66-11.35,0-1.93-21.21-8.65-26.99-4-3.51-8-3.74-13.51-3.74h-17.68c-2.59,0-5.52-.25-6.97,1.01-1.48,1.49-1.16,3.5-1.69,5.48l-14.95,51.52c-1.75,5.16-3.69,10.39-2.41,13.88,3.3,10.27,24.66,2.83,24.19,12.24-.57,14.22-22.07,5.76-53.92,6.51-25.09.77-44.41,5.51-44.85-2.45-.53-10.78,11.84-6.81,20.95-11.56,2.47-1.47,4.87-6.21,5.72-10.94l37.76-128.91c1.4-4.73,2.46-8.73,0-13.11-3.64-6.58-15.73-.29-17.37-9.81-1.45-10.19,13.96-6.77,50.68-6.47,69.75.54,90.82-3.01,92.49-.3,1.02,2,0,3.27-.52,4.8"/>
    <path class="cls-1" d="m1070.39,193.28c-8.23.28-17.89-4.52-17.89-15.71-.18-10.74,1.24-16.5,4.54-26.26l17.95-48.46c3.83-10.62,13.03-29.15,6.27-28.96-3.4.28-10.16,7.03-14.44,11.55-6.16,5.91-12.61,17.69-18.22,12.46-4.78-4.53,9.99-21.02,20.54-29.95,10.24-8.24,18.12-13.5,34.51-14.97,18.84-1.51,23.03,9.94,22.72,16.16-.36,9.99-.36,13.52-3.15,21.25l-21.72,59.94c-2.16,5.75-5.47,13.49-1.2,16.24,3.16,1.95,12.53-6.98,15.96-10.09,7.75-7.18,9.75-17.19,14.97-12.67,7.31,6.27-26.8,48.18-60.83,49.47m48.74-148.8c-9.85.25-20.47-7.03-20.07-21.72C1099.64,10.44,1109.99,0,1122.85,0c9.84,0,19.96,6.49,20.12,20.96,0,13.48-12.23,23.24-23.84,23.52"/>
    <path class="cls-1" d="m1257.3,101.39c-22.44.72-10.38-21.23-18.34-21.45-5.34,0-22.18,22.65-36.29,53.61-16.34,36.76-18.04,51.17-21.51,54.45-1.62,1.23-6.7,1.78-11.04,1.78l-19.09.23c-5.04,0-9.16,0-9.68-2.53-.49-4.46,2.93-12.45,5.08-19.7l20.95-71.4c2-6.49,3.7-15,1.11-17.48-3.96-3.55-10.24,5.23-14.5,9.2-5.16,5.24-7.8,13.29-13.6,11.73-11.78-2.96,16.22-30.41,22.74-34.66,13.04-9.01,20.04-12.19,31.13-11.73,15.46.48,14.29,13.76,14.77,19.7.49,5.01-6.62,37.26-6.62,37.26l3.42-6.25c10.64-19.33,28.24-51.17,53.66-50.99,10.42.28,19.29,5.75,19.82,19.28.62,22.71-15.94,28.7-21.99,28.95"/>
    <path class="cls-1" d="m1383.18,95.4c-13.49.27-25.1-30.95-43.17-31.24-4.88-.19-8.48,4.75-8.93,11.21-.53,9.25,5.28,15.83,12.29,21.97l12.84,12.08c15.63,14.67,23.87,25.87,23.39,38.93-1.17,29.91-31.15,44.44-58.71,44.91-9.47.28-31.33-2.77-43.95-10.76-7.43-4.44-8.89-13.48-8.4-22.43.97-15.5,6.76-17.28,10.81-17.28,13.13.31,26.37,37.23,47.07,39.24,4.4.46,14.08-4.25,13.6-16.98-.23-13.48-18.14-26.47-22.32-30.94l-9.31-9.04c-2.22-2.49-19.36-16.43-18.36-33.88,1.2-25.25,28.42-38.54,59.35-38.24,27.1.48,38.66,8.44,40.82,11.48,2,2.22,2.71,4.68,2.43,7.98-1.7,21.49-5.3,22.97-9.45,22.97"/>
    <path class="cls-1" d="m1496.21,70.91h-28.02l-24.18,77.63c-2.33,7.95-6.45,20.98-1.46,21.47,6.06.8,12.1-7.19,17.92-13.17,7.23-7.8,8.42-14.76,13.02-12.27,8.49,4.47-10.17,27.25-23.64,37.18-9.94,7.51-20.55,11.77-30.13,11.5-23.45-.46-24.15-22.69-16.91-45.91l23.64-76.43h-22.93l4.05-12.71h23.02l5.33-15.67c2.32-7.59,4.76-18.03,7.93-18.82,4.37-.97,3.59-.78,5.74-.78h22.99c2.87,0,6.27-.71,7.68,1.27,1.72,2.03-.72,7.28-1.81,11.71l-6.32,22.29h27.88l-3.79,12.71Z"/>
  </g>
  <g>
    <polygon class="cls-2" points="72.12 335.74 32.33 335.74 32.33 294.8 9.48 294.8 9.48 392.74 32.33 392.74 32.33 351.33 72.12 351.33 72.12 392.74 94.98 392.74 94.98 294.8 72.12 294.8 72.12 335.74"/>
    <path class="cls-2" d="m163.03,330.36c-2.76-2.73-6.05-4.82-9.88-6.25-3.83-1.43-8.06-2.15-12.67-2.15-5.33,0-10.12.92-14.35,2.76-4.23,1.84-7.84,4.33-10.82,7.46-2.98,3.14-5.27,6.79-6.86,10.96-1.59,4.17-2.39,8.58-2.39,13.24,0,6.18.93,11.61,2.79,16.27,1.86,4.66,4.39,8.56,7.6,11.7,3.2,3.14,6.95,5.5,11.23,7.09,4.28,1.59,8.86,2.39,13.75,2.39,2.37,0,4.87-.17,7.49-.5s5.24-.94,7.86-1.81c2.62-.87,5.18-2.08,7.66-3.63,2.49-1.55,4.81-3.55,6.96-6.02l-6.05-7.46c-.85-1.21-2.11-1.82-3.76-1.82-1.26,0-2.45.29-3.6.87-1.14.58-2.4,1.23-3.76,1.95-1.37.72-2.92,1.37-4.67,1.95-1.75.58-3.83.87-6.25.87-4.53,0-8.22-1.31-11.09-3.93-2.87-2.62-4.64-6.84-5.31-12.67h40.2c.94,0,1.71-.11,2.32-.34.6-.22,1.09-.63,1.45-1.21.36-.58.6-1.37.74-2.35.13-.99.2-2.26.2-3.83,0-5.02-.77-9.51-2.32-13.48-1.55-3.97-3.7-7.32-6.45-10.05Zm-35.86,19.16c.72-4.26,2.19-7.52,4.44-9.78,2.24-2.26,5.33-3.39,9.28-3.39,2.24,0,4.14.38,5.71,1.14,1.57.76,2.83,1.76,3.8,2.99.96,1.23,1.66,2.63,2.08,4.2.43,1.57.64,3.18.64,4.84h-25.95Z"/>
    <path class="cls-2" d="m229.44,329.45c-2.35-2.44-5.22-4.35-8.6-5.71-3.38-1.37-7.18-2.05-11.39-2.05-5.87,0-11.37.91-16.5,2.72-5.13,1.81-9.8,4.58-14.01,8.3l3.76,6.52c.63.99,1.43,1.84,2.42,2.55.98.72,2.19,1.08,3.63,1.08,1.61,0,3-.27,4.17-.81,1.17-.54,2.36-1.14,3.6-1.81,1.23-.67,2.63-1.28,4.2-1.81,1.57-.54,3.58-.81,6.05-.81,3.09,0,5.48.91,7.16,2.72,1.68,1.82,2.52,4.76,2.52,8.84v2.96c-7.98.18-14.59.99-19.83,2.42-5.24,1.43-9.41,3.22-12.5,5.34-3.09,2.13-5.27,4.48-6.52,7.06-1.25,2.58-1.88,5.12-1.88,7.63,0,3.14.49,5.9,1.48,8.3.98,2.4,2.39,4.4,4.2,6.02,1.81,1.61,4.02,2.83,6.62,3.66,2.6.83,5.49,1.24,8.67,1.24,2.37,0,4.54-.19,6.49-.57s3.79-.96,5.51-1.75c1.72-.78,3.39-1.74,5.01-2.86,1.61-1.12,3.29-2.42,5.04-3.9l1.48,3.83c.67,1.7,1.51,2.82,2.52,3.36s2.5.81,4.47.81h9.54v-43.56c0-3.99-.63-7.66-1.88-11.02-1.26-3.36-3.06-6.26-5.41-8.7Zm-13.01,44.6c-2.06,2.11-4.1,3.63-6.12,4.57-2.02.94-4.37,1.41-7.06,1.41-2.51,0-4.41-.48-5.71-1.45-1.3-.96-1.95-2.63-1.95-5.01,0-1.21.3-2.33.91-3.36.6-1.03,1.69-1.95,3.26-2.76,1.57-.81,3.7-1.48,6.39-2.02,2.69-.54,6.12-.9,10.28-1.08v9.68Z"/>
    <rect class="cls-2" x="248.29" y="292.11" width="20.84" height="100.62"/>
    <path class="cls-2" d="m318.43,376.5c-.38-.29-.89-.44-1.51-.44-.45,0-.84.08-1.18.24-.34.16-.7.34-1.08.54-.38.2-.83.38-1.34.54-.52.16-1.15.24-1.92.24-1.48,0-2.61-.53-3.39-1.58-.78-1.05-1.18-2.39-1.18-4v-34.62h17.27v-14.25h-17.27v-20.37h-10.89c-2.51,0-4.03,1.08-4.57,3.23l-4.1,17.01-11.09,2.15v8.13c0,1.34.38,2.36,1.14,3.06.76.7,1.68,1.04,2.76,1.04h5.92v36.03c0,3.09.45,5.89,1.34,8.4.9,2.51,2.21,4.65,3.93,6.42,1.72,1.77,3.85,3.14,6.39,4.1,2.53.96,5.46,1.45,8.77,1.45,3.58,0,7.06-.5,10.42-1.51,3.36-1.01,6.39-2.52,9.07-4.54l-6.32-9.88c-.4-.63-.8-1.09-1.18-1.38Z"/>
    <path class="cls-2" d="m388.44,329.45c-2.02-2.35-4.49-4.19-7.43-5.51-2.94-1.32-6.31-1.98-10.12-1.98-4.08,0-7.58.66-10.52,1.98-2.94,1.32-5.66,3.06-8.17,5.21v-37.04h-20.84v100.62h20.84v-49.74c1.88-1.66,3.82-2.97,5.81-3.93,1.99-.96,4.13-1.45,6.42-1.45,3.05,0,5.35.95,6.92,2.86,1.57,1.91,2.35,4.56,2.35,7.96v44.3h20.84v-44.3c0-3.81-.52-7.34-1.55-10.59-1.03-3.25-2.55-6.05-4.57-8.4Z"/>
    <path class="cls-2" d="m502.53,304.01c-3.2-2.87-7.28-5.12-12.23-6.76-4.95-1.63-10.88-2.45-17.78-2.45h-34.55v97.93h22.72v-32.73h11.83c6.77,0,12.62-.82,17.58-2.45,4.95-1.64,9.04-3.91,12.27-6.82,3.23-2.91,5.62-6.41,7.19-10.49,1.57-4.08,2.35-8.56,2.35-13.44,0-4.53-.76-8.74-2.29-12.64-1.52-3.9-3.89-7.28-7.09-10.15Zm-17.24,34.62c-2.6,2.82-6.86,4.23-12.77,4.23h-11.83v-31.05h11.83c2.87,0,5.34.36,7.43,1.08,2.08.72,3.81,1.74,5.18,3.06,1.37,1.32,2.39,2.9,3.06,4.74.67,1.84,1.01,3.88,1.01,6.12,0,5.06-1.3,9.01-3.9,11.83Z"/>
    <rect class="cls-2" x="519.3" y="292.11" width="20.84" height="100.62"/>
    <path class="cls-2" d="m601.47,329.45c-2.35-2.44-5.22-4.35-8.6-5.71-3.38-1.37-7.18-2.05-11.39-2.05-5.87,0-11.37.91-16.5,2.72-5.13,1.81-9.8,4.58-14.01,8.3l3.76,6.52c.63.99,1.43,1.84,2.42,2.55.98.72,2.19,1.08,3.63,1.08,1.61,0,3-.27,4.17-.81,1.17-.54,2.36-1.14,3.6-1.81,1.23-.67,2.63-1.28,4.2-1.81,1.57-.54,3.58-.81,6.05-.81,3.09,0,5.48.91,7.16,2.72,1.68,1.82,2.52,4.76,2.52,8.84v2.96c-7.98.18-14.59.99-19.83,2.42-5.24,1.43-9.41,3.22-12.5,5.34-3.09,2.13-5.27,4.48-6.52,7.06-1.25,2.58-1.88,5.12-1.88,7.63,0,3.14.49,5.9,1.48,8.3.98,2.4,2.39,4.4,4.2,6.02,1.81,1.61,4.02,2.83,6.62,3.66,2.6.83,5.49,1.24,8.67,1.24,2.37,0,4.54-.19,6.49-.57s3.79-.96,5.51-1.75c1.72-.78,3.39-1.74,5.01-2.86,1.61-1.12,3.29-2.42,5.04-3.9l1.48,3.83c.67,1.7,1.51,2.82,2.52,3.36s2.5.81,4.47.81h9.54v-43.56c0-3.99-.63-7.66-1.88-11.02-1.26-3.36-3.06-6.26-5.41-8.7Zm-13.01,44.6c-2.06,2.11-4.1,3.63-6.12,4.57-2.02.94-4.37,1.41-7.06,1.41-2.51,0-4.41-.48-5.71-1.45-1.3-.96-1.95-2.63-1.95-5.01,0-1.21.3-2.33.91-3.36.6-1.03,1.69-1.95,3.26-2.76,1.57-.81,3.7-1.48,6.39-2.02,2.69-.54,6.12-.9,10.28-1.08v9.68Z"/>
    <path class="cls-2" d="m677.39,329.45c-2.02-2.35-4.49-4.19-7.43-5.51-2.94-1.32-6.31-1.98-10.12-1.98-2.24,0-4.31.21-6.22.64-1.9.43-3.67,1.01-5.31,1.75-1.64.74-3.17,1.65-4.6,2.72-1.43,1.08-2.82,2.24-4.17,3.5l-1.21-4.03c-.81-2.33-2.51-3.5-5.11-3.5h-12.91v69.7h20.84v-49.74c1.88-1.66,3.82-2.97,5.81-3.93,1.99-.96,4.13-1.45,6.42-1.45,3.05,0,5.35.95,6.92,2.86,1.57,1.91,2.35,4.56,2.35,7.96v44.3h20.84v-44.3c0-3.81-.52-7.34-1.55-10.59-1.03-3.25-2.55-6.05-4.57-8.4Z"/>
    <path class="cls-2" d="m743.23,362.83c-.92-2.02-2.14-3.73-3.66-5.14-1.52-1.41-3.25-2.6-5.18-3.56-1.93-.96-3.9-1.8-5.92-2.52-2.02-.72-3.99-1.37-5.92-1.95-1.93-.58-3.65-1.2-5.18-1.85-1.52-.65-2.75-1.4-3.66-2.25-.92-.85-1.38-1.93-1.38-3.23,0-1.79.71-3.19,2.12-4.2,1.41-1.01,3.44-1.51,6.08-1.51,1.84,0,3.47.21,4.91.64,1.43.43,2.72.89,3.86,1.38,1.14.49,2.21.95,3.19,1.38.99.43,1.97.64,2.96.64s1.71-.18,2.32-.54c.6-.36,1.18-.96,1.71-1.81l4.71-7.33c-1.3-1.3-2.8-2.5-4.5-3.6-1.7-1.1-3.59-2.05-5.65-2.86-2.06-.81-4.27-1.43-6.62-1.88s-4.78-.67-7.29-.67c-4.62,0-8.65.59-12.1,1.78-3.45,1.19-6.32,2.79-8.6,4.81-2.29,2.02-4,4.36-5.14,7.02-1.14,2.67-1.71,5.48-1.71,8.44,0,3.18.47,5.89,1.41,8.13.94,2.24,2.17,4.13,3.7,5.68,1.52,1.55,3.26,2.82,5.21,3.83,1.95,1.01,3.93,1.87,5.95,2.59,2.02.72,4,1.36,5.95,1.92,1.95.56,3.69,1.17,5.21,1.81,1.52.65,2.76,1.42,3.7,2.32.94.9,1.41,2.04,1.41,3.43,0,.76-.16,1.5-.47,2.22-.31.72-.81,1.37-1.48,1.95-.67.58-1.57,1.04-2.69,1.38-1.12.34-2.49.5-4.1.5-2.29,0-4.18-.27-5.68-.81-1.5-.54-2.81-1.12-3.93-1.75-1.12-.63-2.16-1.21-3.13-1.75-.96-.54-2.05-.81-3.26-.81-1.3,0-2.36.26-3.19.77-.83.52-1.51,1.22-2.05,2.12l-4.84,7.66c1.34,1.21,2.96,2.34,4.84,3.39,1.88,1.05,3.93,1.96,6.15,2.72,2.22.76,4.51,1.37,6.89,1.81,2.38.45,4.75.67,7.12.67,4.75,0,8.95-.58,12.6-1.75,3.65-1.17,6.72-2.8,9.21-4.91,2.49-2.11,4.36-4.61,5.61-7.53,1.25-2.91,1.88-6.09,1.88-9.54,0-2.82-.46-5.24-1.38-7.26Z"/>
  </g>
</svg>