<?xml version="1.0" encoding="UTF-8"?>
<svg xmlns="http://www.w3.org/2000/svg" xmlns:xlink="http://www.w3.org/1999/xlink" width="1455px" height="500px" viewBox="0 0 1454 500" version="1.1">
<g id="surface1">
<path style=" stroke:none;fill-rule:nonzero;fill:rgb(0%,0%,0%);fill-opacity:1;" d="M 1390.53125 500.996094 C 1385.800781 501.421875 1381.496094 501.421875 1376.550781 501.421875 C 1372.527344 499.121094 1372.335938 495.640625 1372.339844 492.03125 C 1372.367188 477.867188 1372.375 463.703125 1372.335938 449.539062 C 1372.328125 446.707031 1372.398438 443.855469 1371.628906 441.09375 C 1370.820312 438.175781 1369.316406 435.757812 1365.890625 435.8125 C 1362.484375 435.871094 1361.039062 438.34375 1360.257812 441.253906 C 1359.574219 443.78125 1359.636719 446.398438 1359.589844 448.996094 C 1359.515625 453.242188 1359.742188 457.496094 1359.410156 461.738281 C 1359.242188 463.875 1358.886719 466.140625 1356.523438 466.96875 C 1353.9375 467.882812 1352.222656 466.195312 1350.765625 464.378906 C 1345.601562 457.9375 1340.75 451.246094 1335.492188 444.875 C 1333.6875 442.6875 1331.957031 440.433594 1329.816406 438.5625 C 1326.851562 435.972656 1323.527344 434.140625 1319.488281 435.582031 C 1315.207031 437.109375 1314.492188 440.953125 1314.316406 444.828125 C 1313.914062 453.792969 1314.199219 462.765625 1314.140625 471.734375 C 1314.097656 478.816406 1314.179688 485.898438 1314.097656 492.980469 C 1314.066406 495.828125 1314.042969 498.664062 1311.003906 501.003906 C 1305.816406 501.421875 1301.042969 501.421875 1295.621094 501.421875 C 1291.402344 498.949219 1291.398438 495.203125 1291.40625 491.457031 C 1291.425781 477.519531 1291.449219 463.582031 1291.390625 449.648438 C 1291.375 446.578125 1291.410156 443.480469 1290.316406 440.546875 C 1289.449219 438.207031 1288.003906 436.320312 1285.285156 436.207031 C 1282.191406 436.074219 1280.605469 438.117188 1279.675781 440.726562 C 1278.625 443.671875 1278.675781 446.773438 1278.667969 449.839844 C 1278.621094 463.777344 1278.664062 477.714844 1278.628906 491.648438 C 1278.621094 494.824219 1279.039062 498.253906 1275.523438 500.988281 C 1266.066406 501.421875 1257.042969 501.421875 1247.355469 501.421875 C 1243.792969 499.039062 1243.40625 496.9375 1247.300781 495.183594 C 1249.457031 494.214844 1251.53125 493.058594 1253.296875 491.449219 C 1255.351562 489.574219 1256.828125 487.363281 1255.238281 484.597656 C 1253.605469 481.765625 1250.894531 481.167969 1247.84375 482.003906 C 1246.226562 482.441406 1244.921875 483.542969 1243.414062 484.210938 C 1236.203125 487.398438 1229.238281 487.898438 1223.019531 481.992188 C 1216.597656 475.894531 1213.175781 468.804688 1215.765625 459.742188 C 1218.230469 451.128906 1224.007812 446.082031 1232.660156 444.523438 C 1236.453125 443.839844 1240.117188 445.265625 1243.535156 446.980469 C 1245.675781 448.054688 1247.835938 449.007812 1250.304688 448.519531 C 1252.53125 448.078125 1254.28125 446.925781 1254.960938 444.660156 C 1255.570312 442.625 1254.671875 440.96875 1253.265625 439.554688 C 1252.425781 438.710938 1251.4375 438.066406 1250.414062 437.464844 C 1237.324219 429.746094 1215.871094 434.367188 1207.585938 446.695312 C 1197.554688 461.628906 1200.550781 481.757812 1214.292969 491.765625 C 1216.207031 493.160156 1218.261719 494.335938 1220.210938 495.667969 C 1222.496094 497.222656 1222.652344 498.9375 1220.066406 501.066406 C 1208.796875 501.421875 1197.882812 501.421875 1186.300781 501.421875 C 1182.089844 498.960938 1182.058594 495.234375 1182.066406 491.496094 C 1182.097656 477.582031 1182.109375 463.671875 1182.054688 449.761719 C 1182.042969 446.699219 1182.074219 443.609375 1181.035156 440.667969 C 1180.015625 437.78125 1178.175781 435.671875 1174.890625 435.726562 C 1171.613281 435.78125 1169.847656 437.949219 1168.875 440.847656 C 1167.886719 443.800781 1167.921875 446.890625 1167.914062 449.953125 C 1167.871094 463.863281 1167.90625 477.773438 1167.878906 491.683594 C 1167.871094 494.847656 1168.277344 498.261719 1164.769531 500.988281 C 1151.054688 501.421875 1137.769531 501.421875 1123.824219 501.421875 C 1118.253906 496.769531 1122.605469 495.921875 1125.933594 494.675781 C 1140.398438 489.257812 1147.835938 479.1875 1147.777344 465.070312 C 1147.722656 450.902344 1139.148438 439.941406 1124.832031 436.640625 C 1117.269531 434.898438 1109.472656 434.050781 1101.675781 434.097656 C 1092.984375 434.148438 1090.121094 436.859375 1089.917969 445.519531 C 1089.558594 460.851562 1089.863281 476.195312 1089.769531 491.535156 C 1089.75 494.8125 1090.132812 498.246094 1086.640625 501.019531 C 1082.40625 501.421875 1078.574219 501.421875 1074.101562 501.421875 C 1071.292969 499.800781 1070.242188 497.601562 1069.675781 494.976562 C 1068.519531 489.582031 1064.820312 487.128906 1059.523438 486.746094 C 1053.144531 486.289062 1046.753906 486.507812 1040.371094 486.496094 C 1034.988281 486.484375 1033.015625 483.753906 1033.0625 478.667969 C 1033.109375 473.851562 1034.910156 471.058594 1040.082031 470.945312 C 1045.28125 470.828125 1050.503906 471.191406 1055.679688 470.546875 C 1058.507812 470.195312 1061.917969 469.722656 1062.097656 466.191406 C 1062.300781 462.054688 1058.574219 461.660156 1055.550781 461.269531 C 1050.378906 460.601562 1045.152344 460.996094 1039.953125 460.871094 C 1034.714844 460.746094 1033.105469 457.75 1033.058594 453.035156 C 1033.011719 448.203125 1034.785156 445.363281 1040.023438 445.351562 C 1044.988281 445.34375 1049.957031 445.367188 1054.925781 445.277344 C 1057.527344 445.230469 1060.144531 445.230469 1062.652344 444.402344 C 1065.019531 443.621094 1067.097656 442.375 1067.015625 439.523438 C 1066.933594 436.699219 1064.828125 435.140625 1062.429688 434.847656 C 1050.664062 433.414062 1038.808594 432.996094 1027.125 435.035156 C 1021.09375 436.085938 1020.398438 441.703125 1020.316406 446.863281 C 1020.082031 461.769531 1020.28125 476.675781 1020.195312 491.585938 C 1020.179688 494.789062 1020.636719 498.242188 1017.089844 500.996094 C 1012.359375 501.421875 1008.058594 501.421875 1003.109375 501.421875 C 999.113281 499.089844 998.894531 495.621094 998.898438 491.984375 C 998.921875 477.34375 998.960938 462.707031 998.878906 448.066406 C 998.859375 445 998.898438 441.871094 997.453125 439.050781 C 994.5 433.300781 986.597656 433.101562 981.214844 438.75 C 977.117188 443.054688 974.761719 448.605469 971.25 453.351562 C 965.761719 460.765625 963.757812 460.820312 958.835938 453.199219 C 956.277344 449.234375 954.070312 445.035156 951.304688 441.210938 C 948.074219 436.734375 943.933594 433.511719 938.082031 435.238281 C 932.3125 436.941406 932.324219 442.160156 932.257812 446.902344 C 932.058594 461.777344 932.234375 476.652344 932.15625 491.527344 C 932.136719 494.785156 932.570312 498.238281 929.039062 501.007812 C 909.667969 501.421875 890.703125 501.421875 871.078125 501.421875 C 867.320312 498.972656 867.796875 497.179688 870.980469 494.957031 C 880.628906 488.214844 883.234375 480.867188 880.648438 469.429688 C 879.832031 465.8125 877.851562 463.472656 874.148438 462.832031 C 870.394531 462.175781 866.601562 462.167969 862.84375 462.78125 C 860.683594 463.132812 858.460938 463.871094 858.308594 466.484375 C 858.152344 469.164062 860.355469 470.179688 862.480469 470.515625 C 867.085938 471.242188 869.808594 473.242188 869.636719 478.386719 C 869.464844 483.527344 866.289062 485.9375 862.042969 487.296875 C 852.054688 490.496094 839.78125 484.644531 835.453125 474.796875 C 831.375 465.511719 835.585938 452.386719 844.386719 447.367188 C 850.121094 444.097656 856.308594 445.132812 862.390625 445.988281 C 864.476562 446.285156 866.484375 447.214844 868.660156 446.847656 C 870.921875 446.460938 872.671875 445.359375 873.269531 443.011719 C 873.800781 440.941406 872.886719 439.332031 871.367188 438 C 870.464844 437.210938 869.414062 436.675781 868.335938 436.183594 C 853.648438 429.453125 833.003906 435.835938 825.132812 449.542969 C 816.71875 464.195312 821.230469 482.8125 835.257812 492.980469 C 837.539062 494.632812 843.890625 494.871094 839.539062 501.050781 C 828.257812 501.421875 817.34375 501.421875 805.761719 501.421875 C 801.714844 499.121094 801.527344 495.636719 801.53125 492.027344 C 801.558594 477.855469 801.566406 463.6875 801.527344 449.515625 C 801.519531 446.683594 801.589844 443.828125 800.816406 441.070312 C 799.996094 438.144531 798.484375 435.734375 795.054688 435.8125 C 791.652344 435.894531 790.148438 438.363281 789.453125 441.289062 C 788.40625 445.703125 788.855469 450.222656 788.769531 454.703125 C 788.714844 457.296875 788.871094 459.902344 788.539062 462.484375 C 788.289062 464.410156 787.707031 466.335938 785.765625 467.066406 C 783.621094 467.871094 781.871094 466.734375 780.433594 465.144531 C 775.683594 459.882812 771.59375 454.09375 767.148438 448.589844 C 764.625 445.46875 762.457031 442.050781 759.519531 439.289062 C 756.496094 436.441406 753.101562 434.121094 748.726562 435.609375 C 744.066406 437.195312 743.5625 441.429688 743.472656 445.507812 C 743.140625 460.855469 743.421875 476.210938 743.304688 491.558594 C 743.28125 494.796875 743.742188 498.25 740.195312 501.003906 C 735.007812 501.421875 730.234375 501.421875 724.8125 501.421875 C 720.59375 498.949219 720.589844 495.203125 720.597656 491.457031 C 720.617188 477.519531 720.640625 463.582031 720.582031 449.648438 C 720.566406 446.578125 720.601562 443.480469 719.507812 440.546875 C 718.640625 438.203125 717.195312 436.320312 714.476562 436.207031 C 711.382812 436.074219 709.796875 438.117188 708.867188 440.730469 C 707.816406 443.671875 707.867188 446.773438 707.859375 449.84375 C 707.8125 463.777344 707.855469 477.714844 707.820312 491.652344 C 707.8125 494.824219 708.230469 498.253906 704.714844 500.988281 C 695.257812 501.421875 686.234375 501.421875 676.546875 501.421875 C 672.804688 498.972656 673.25 497.183594 676.449219 494.957031 C 686.082031 488.238281 688.71875 480.808594 686.101562 469.429688 C 685.347656 466.136719 683.667969 463.75 680.28125 463.003906 C 676.078125 462.078125 671.816406 462.097656 667.597656 462.949219 C 665.671875 463.335938 663.863281 464.28125 663.785156 466.546875 C 663.703125 468.828125 665.503906 469.710938 667.359375 470.386719 C 669.90625 471.316406 673.058594 470.941406 674.4375 474.257812 C 676.191406 478.464844 674.71875 483.410156 670.707031 485.847656 C 664.578125 489.570312 654.675781 488.449219 648.050781 483.28125 C 640.589844 477.460938 637.886719 468.28125 640.929688 459.09375 C 643.945312 450.003906 649.644531 445.5625 658.503906 445.316406 C 662.78125 445.199219 666.949219 445.59375 671.117188 446.742188 C 674.292969 447.613281 677.5625 447.027344 678.746094 443.429688 C 679.984375 439.671875 677.203125 437.84375 674.3125 436.414062 C 660.230469 429.441406 639.589844 435.398438 631.542969 448.738281 C 622.6875 463.414062 626.511719 482.632812 640.238281 492.445312 C 641.972656 493.683594 643.828125 494.742188 645.527344 496.027344 C 647.671875 497.644531 647.011719 499.179688 645.011719 501.050781 C 633.730469 501.421875 622.8125 501.421875 611.230469 501.421875 C 607.1875 499.109375 607 495.621094 607.003906 492.003906 C 607.019531 477.335938 607.113281 462.671875 606.964844 448.007812 C 606.878906 439.417969 604.621094 435.117188 600.429688 435.871094 C 593.652344 437.089844 594.632812 442.953125 594.3125 447.75 C 594.015625 452.230469 594.378906 456.738281 594.117188 461.226562 C 593.976562 463.617188 593.703125 466.195312 590.996094 467.058594 C 588.460938 467.867188 586.648438 466.082031 585.085938 464.417969 C 579.414062 458.367188 574.785156 451.476562 569.621094 445.015625 C 567.257812 442.0625 565.070312 438.925781 561.746094 436.933594 C 555.621094 433.265625 550.378906 435.5625 549.242188 442.601562 C 548.332031 448.222656 548.84375 453.9375 548.816406 459.609375 C 548.761719 470.488281 548.828125 481.371094 548.78125 492.25 C 548.765625 495.289062 548.976562 498.460938 545.664062 501.007812 C 542.351562 501.421875 539.453125 501.421875 535.933594 501.421875 C 531.59375 498.253906 529.492188 494.046875 527.648438 489.652344 C 521.25 474.390625 514.476562 459.289062 508.238281 443.957031 C 506.054688 438.585938 503.128906 434.289062 496.542969 434.375 C 490.257812 434.460938 487.589844 438.765625 485.464844 443.800781 C 478.574219 460.136719 471.820312 476.53125 464.996094 492.894531 C 463.695312 496.007812 462.152344 498.789062 458.984375 501.074219 C 455.734375 501.421875 452.835938 501.421875 449.316406 501.421875 C 445.410156 499.117188 445.121094 495.703125 445.128906 492.105469 C 445.164062 478.378906 445.167969 464.648438 445.128906 450.921875 C 445.121094 447.847656 445.210938 444.75 444.421875 441.742188 C 443.65625 438.828125 442.265625 436.273438 438.855469 436.199219 C 435.417969 436.121094 433.945312 438.625 433.136719 441.535156 C 432.238281 444.765625 432.3125 448.113281 432.347656 451.417969 C 432.410156 456.828125 430.152344 459.636719 424.453125 459.507812 C 419.488281 459.390625 414.515625 459.539062 409.550781 459.460938 C 405.09375 459.390625 402.722656 457.253906 402.621094 452.632812 C 402.539062 448.855469 402.796875 445.023438 401.722656 441.339844 C 400.878906 438.433594 399.324219 436.027344 395.855469 436.203125 C 392.796875 436.363281 391.414062 438.621094 390.621094 441.253906 C 389.722656 444.238281 389.796875 447.339844 389.789062 450.414062 C 389.753906 464.144531 389.792969 477.875 389.753906 491.601562 C 389.746094 494.796875 390.183594 498.242188 386.648438 500.992188 C 377.195312 501.421875 368.171875 501.421875 358.484375 501.421875 C 354.921875 499.039062 354.535156 496.9375 358.429688 495.183594 C 360.585938 494.214844 362.660156 493.058594 364.425781 491.449219 C 366.480469 489.574219 367.957031 487.363281 366.367188 484.597656 C 364.734375 481.761719 362.023438 481.167969 358.972656 482.003906 C 357.355469 482.441406 356.050781 483.542969 354.542969 484.210938 C 347.332031 487.398438 340.367188 487.898438 334.148438 481.992188 C 327.726562 475.894531 324.304688 468.804688 326.894531 459.742188 C 329.359375 451.128906 335.136719 446.082031 343.789062 444.523438 C 347.582031 443.839844 351.246094 445.265625 354.664062 446.980469 C 356.804688 448.054688 358.964844 449.007812 361.433594 448.519531 C 363.664062 448.078125 365.410156 446.925781 366.089844 444.660156 C 366.699219 442.625 365.800781 440.96875 364.394531 439.554688 C 363.554688 438.710938 362.566406 438.066406 361.542969 437.464844 C 348.453125 429.746094 327 434.367188 318.714844 446.695312 C 308.683594 461.628906 311.679688 481.757812 325.421875 491.769531 C 327.335938 493.160156 329.390625 494.335938 331.339844 495.667969 C 333.625 497.222656 333.777344 498.9375 331.195312 501.066406 C 310.460938 501.421875 290.078125 501.421875 269.03125 501.421875 C 266.191406 499.808594 265.152344 497.589844 264.554688 494.980469 C 263.335938 489.621094 259.628906 487.167969 254.34375 486.757812 C 248.199219 486.28125 242.039062 486.707031 235.894531 486.433594 C 229.640625 486.15625 228.027344 484.324219 227.980469 478.449219 C 227.929688 472.933594 230.769531 470.910156 235.925781 470.890625 C 241.125 470.871094 246.351562 471.242188 251.515625 470.40625 C 254.128906 469.984375 257.015625 469.222656 257.058594 465.957031 C 257.105469 462.664062 254.226562 461.871094 251.613281 461.433594 C 246.453125 460.566406 241.21875 461.136719 236.023438 460.875 C 229.550781 460.554688 228.066406 458.84375 227.96875 452.769531 C 227.875 447.1875 230.738281 445.195312 235.886719 445.261719 C 241.796875 445.339844 247.730469 445.640625 253.613281 444.945312 C 256.9375 444.554688 260.695312 443.8125 260.554688 439.421875 C 260.429688 435.5625 256.992188 434.601562 253.875 434.363281 C 244.195312 433.628906 234.472656 433.519531 224.808594 434.367188 C 218.082031 434.957031 215.511719 438.222656 215.285156 446.136719 C 214.851562 461.28125 215.207031 476.433594 215.101562 491.582031 C 215.078125 494.789062 215.539062 498.246094 211.992188 500.996094 C 196.394531 501.421875 181.21875 501.421875 165.375 501.421875 C 160.28125 498.316406 161.195312 493.609375 161.183594 489.261719 C 161.128906 471.714844 160.257812 472.238281 177.492188 472.261719 C 180.089844 472.265625 182.707031 472.234375 185.203125 471.382812 C 187.054688 470.75 188.789062 469.816406 188.921875 467.597656 C 189.074219 464.96875 187.167969 463.828125 185.039062 463.238281 C 179.949219 461.832031 174.703125 462.355469 169.523438 462.371094 C 164.019531 462.390625 161.199219 460.246094 161.179688 454.445312 C 161.15625 447.375 162.671875 445.535156 169.800781 445.332031 C 175.699219 445.160156 181.625 445.703125 187.492188 444.863281 C 190.617188 444.414062 193.902344 443.453125 193.757812 439.464844 C 193.632812 436 190.664062 434.765625 187.765625 434.503906 C 177.164062 433.554688 166.511719 433.414062 155.933594 434.527344 C 149.824219 435.167969 147.367188 438.65625 147.136719 446.226562 C 146.679688 461.113281 147.082031 476.007812 146.925781 490.894531 C 146.886719 494.316406 147.578125 498.019531 143.835938 500.996094 C 139.109375 501.421875 134.804688 501.421875 129.859375 501.421875 C 125.644531 498.949219 125.644531 495.203125 125.648438 491.457031 C 125.667969 477.519531 125.691406 463.582031 125.632812 449.648438 C 125.621094 446.578125 125.652344 443.480469 124.5625 440.546875 C 123.691406 438.203125 122.25 436.320312 119.527344 436.207031 C 116.433594 436.074219 114.847656 438.117188 113.917969 440.730469 C 112.871094 443.671875 112.921875 446.773438 112.910156 449.84375 C 112.863281 463.777344 112.90625 477.714844 112.875 491.652344 C 112.867188 494.824219 113.285156 498.253906 109.765625 500.988281 C 105.96875 501.421875 102.601562 501.421875 98.605469 501.421875 C 95.847656 499.789062 94.757812 497.628906 94.199219 494.996094 C 93.054688 489.632812 89.378906 487.167969 84.089844 486.75 C 79.144531 486.359375 74.1875 486.496094 69.234375 486.484375 C 64.066406 486.46875 61.796875 483.953125 61.78125 478.875 C 61.753906 468.488281 61.921875 458.101562 61.691406 447.722656 C 61.507812 439.558594 59.144531 435.652344 54.71875 435.667969 C 50.304688 435.6875 47.796875 439.675781 47.664062 447.710938 C 47.417969 462.339844 47.621094 476.972656 47.554688 491.605469 C 47.539062 494.796875 47.984375 498.246094 44.445312 500.992188 C 31.253906 501.421875 18.488281 501.289062 5.726562 501.507812 C 2.296875 501.566406 1.292969 500.890625 1.316406 497.214844 C 1.503906 468.132812 1.421875 439.046875 1.421875 409.960938 C 1.421875 281.328125 1.421875 152.691406 1.421875 23.394531 C 3.023438 21.171875 4.367188 19.472656 7.128906 19.765625 C 25.679688 21.730469 39.195312 30.78125 39.109375 52.085938 C 38.914062 101.539062 38.890625 150.992188 39.136719 200.445312 C 39.214844 216.75 40.15625 233.085938 43.203125 249.160156 C 52.535156 298.398438 80.597656 331.242188 129.324219 344.460938 C 170.148438 355.539062 211.253906 355.285156 251.714844 342.101562 C 283.007812 331.90625 303.691406 310.363281 315.214844 279.746094 C 323.230469 258.453125 326.101562 236.191406 327.203125 213.675781 C 329.324219 170.425781 328.476562 127.128906 328.824219 83.847656 C 328.914062 72.535156 329.503906 61.148438 331.503906 49.960938 C 334.082031 35.519531 342.128906 26.085938 356.933594 22.980469 C 374.066406 19.386719 391.285156 19.402344 408.371094 22.519531 C 423.285156 25.242188 431.75 35.105469 433.800781 50.105469 C 434.796875 57.382812 435.253906 64.667969 435.246094 72.023438 C 435.179688 142.0625 435.164062 212.101562 435.265625 282.140625 C 435.277344 290.460938 434.472656 298.722656 433.390625 306.878906 C 431.527344 320.953125 424.246094 331.039062 409.53125 334.289062 C 406.992188 334.851562 404.449219 335.453125 402 337.515625 C 400.742188 339.046875 400.089844 340.238281 401.675781 341.917969 C 405.398438 344.53125 409.246094 344.410156 413.015625 344.417969 C 446.613281 344.488281 480.210938 344.53125 513.808594 344.363281 C 517.828125 344.34375 523.871094 345.589844 524.621094 340.292969 C 525.414062 334.667969 519.0625 334.910156 515.273438 333.800781 C 500.445312 329.472656 492.371094 318.914062 492.128906 301.28125 C 491.734375 272.171875 491.921875 243.054688 492.082031 213.941406 C 492.121094 206.6875 493.496094 205.265625 500.847656 205.339844 C 521.945312 205.558594 542.941406 204.457031 563.734375 200.808594 C 590.003906 196.199219 614.226562 187.121094 634.921875 169.449219 C 668.398438 140.871094 677.085938 84.933594 652.921875 49.910156 C 641.09375 32.765625 624.386719 22.582031 604.753906 16.820312 C 585.015625 11.027344 564.765625 9.816406 544.339844 10.519531 C 540.789062 10.644531 537.242188 10.648438 533.695312 10.648438 C 449.460938 10.65625 365.230469 10.652344 281 10.660156 C 277.453125 10.660156 273.890625 10.480469 270.367188 10.996094 C 267.777344 11.375 264.792969 11.800781 264.484375 15.046875 C 264.171875 18.324219 266.996094 19.382812 269.542969 20.011719 C 273.6875 21.035156 277.746094 22.183594 281.691406 23.867188 C 291.125 27.898438 296.789062 34.9375 299.042969 44.851562 C 302.15625 58.542969 302.773438 72.570312 302.957031 86.449219 C 303.5 126.917969 303.527344 167.402344 302.96875 207.871094 C 302.738281 224.375 301.007812 240.878906 296.859375 257.054688 C 288.816406 288.421875 269.71875 310.070312 240.164062 322.695312 C 216.800781 332.675781 192.355469 334.359375 167.765625 329.722656 C 136.011719 323.734375 117.089844 303.074219 107.347656 273.117188 C 102.472656 258.132812 100.304688 242.617188 100.222656 226.984375 C 99.925781 171.835938 100.128906 116.6875 100.066406 61.535156 C 100.0625 55.804688 100.714844 50.140625 101.96875 44.640625 C 104.726562 32.527344 112.296875 24.832031 124.414062 21.476562 C 128.011719 20.480469 133.742188 20.160156 132.882812 14.851562 C 132.070312 9.816406 126.554688 10.777344 122.734375 10.757812 C 86.0625 10.550781 49.390625 10.71875 12.714844 10.605469 C 9.078125 10.59375 5.109375 11.453125 1.855469 7.542969 C -0.195312 1 3.628906 1.371094 7.804688 1.371094 C 429.789062 1.425781 851.773438 1.421875 1274.425781 1.421875 C 1280.03125 6.402344 1275.773438 7.164062 1272.027344 7.757812 C 1260.335938 9.613281 1248.800781 12.117188 1237.453125 15.519531 C 1208.773438 24.121094 1183.558594 38.820312 1162.933594 60.417969 C 1142.246094 82.078125 1129.101562 108.101562 1122.898438 137.53125 C 1115.023438 174.917969 1116.082031 211.859375 1129.128906 247.972656 C 1146.257812 295.371094 1180.371094 325.089844 1227.328125 341.292969 C 1249.9375 349.09375 1273.371094 352.582031 1297.011719 352.71875 C 1350.652344 353.027344 1400.242188 339.011719 1444.414062 307.65625 C 1447.25 305.644531 1449.878906 301 1455.023438 305.003906 C 1455.421875 368.386719 1455.3125 431.378906 1455.589844 494.367188 C 1455.617188 500.433594 1454.234375 502.648438 1447.609375 501.421875 C 1444.734375 499.800781 1443.679688 497.601562 1443.117188 494.976562 C 1441.957031 489.582031 1438.257812 487.128906 1432.960938 486.746094 C 1426.582031 486.289062 1420.191406 486.507812 1413.808594 486.496094 C 1408.429688 486.484375 1406.457031 483.753906 1406.503906 478.667969 C 1406.546875 473.851562 1408.351562 471.058594 1413.519531 470.945312 C 1418.722656 470.828125 1423.941406 471.191406 1429.117188 470.546875 C 1431.949219 470.195312 1435.359375 469.722656 1435.535156 466.191406 C 1435.742188 462.054688 1432.015625 461.660156 1428.988281 461.269531 C 1423.816406 460.601562 1418.59375 460.996094 1413.394531 460.871094 C 1408.152344 460.746094 1406.546875 457.75 1406.5 453.035156 C 1406.453125 448.203125 1408.226562 445.363281 1413.460938 445.351562 C 1418.429688 445.34375 1423.398438 445.367188 1428.363281 445.277344 C 1430.964844 445.230469 1433.585938 445.230469 1436.089844 444.402344 C 1438.460938 443.621094 1440.535156 442.375 1440.453125 439.523438 C 1440.375 436.699219 1438.265625 435.140625 1435.867188 434.847656 C 1424.105469 433.414062 1412.246094 432.996094 1400.566406 435.035156 C 1394.535156 436.085938 1393.839844 441.703125 1393.757812 446.863281 C 1393.519531 461.769531 1393.722656 476.675781 1393.636719 491.585938 C 1393.617188 494.789062 1394.078125 498.242188 1390.53125 500.996094 Z M 1390.53125 500.996094 "/>
<path style=" stroke:none;fill-rule:nonzero;fill:rgb(44.313725%,17.254902%,41.960784%);fill-opacity:1;" d="M 1.421875 7.753906 C 45.195312 7.101562 88.972656 7.0625 132.75 7.191406 C 135.730469 7.199219 140.910156 5.125 140.402344 11.261719 C 140.03125 15.726562 144.15625 22.710938 134.472656 23.167969 C 130.15625 23.375 125.859375 25.160156 121.667969 26.582031 C 111.984375 29.863281 105.644531 38.355469 105.089844 48.652344 C 101.847656 108.914062 103.945312 169.222656 104 229.503906 C 104.019531 248.5625 107.8125 267.535156 116.203125 285.339844 C 126.867188 307.96875 144.453125 321.578125 168.457031 326.15625 C 193.894531 331.007812 218.949219 328.574219 242.75 317.503906 C 273.074219 303.394531 289.703125 279.035156 295.296875 246.617188 C 298.171875 229.933594 299.628906 213.101562 299.613281 196.148438 C 299.578125 160.167969 300.0625 124.175781 299.375 88.207031 C 299.105469 73.988281 298.402344 59.625 295.410156 45.535156 C 292.617188 32.359375 283.320312 26.652344 269.832031 24.183594 C 268.21875 23.886719 266.507812 24.117188 264.910156 23.785156 C 257.683594 22.285156 254.851562 16.9375 257.097656 9.671875 C 257.734375 7.613281 259.023438 7.203125 260.769531 7.167969 C 263.132812 7.117188 265.5 7.105469 267.867188 7.105469 C 357.3125 7.101562 446.757812 7.417969 536.203125 6.882812 C 559.230469 6.746094 582 6.648438 604.402344 12.722656 C 643.1875 23.246094 669.980469 53.019531 670.433594 95.519531 C 670.757812 125.980469 659.875 151.132812 638.253906 171.527344 C 619.910156 188.832031 597.035156 197.933594 572.574219 203.082031 C 549.925781 207.847656 526.976562 209.40625 503.894531 208.707031 C 497.757812 208.519531 495.277344 209.832031 495.382812 216.738281 C 495.800781 244.191406 495.246094 271.65625 495.703125 299.109375 C 495.894531 310.476562 497.921875 321.902344 509.554688 327.90625 C 515.382812 330.914062 522.109375 331.367188 528.554688 332.398438 C 535.796875 333.554688 531.449219 339.105469 532.328125 342.578125 C 533.082031 345.542969 532.308594 348.054688 528.089844 348.03125 C 483.859375 347.800781 439.628906 347.6875 394.980469 347.085938 C 393.484375 342.785156 394.242188 338.863281 394.320312 334.375 C 397.796875 331.632812 401.640625 331.519531 405.21875 331.085938 C 421.789062 329.089844 429.214844 320.648438 430.019531 303.179688 C 433.691406 223.519531 431.011719 143.792969 431.390625 64.09375 C 431.4375 54.160156 431.003906 43.589844 423.683594 34.847656 C 419.214844 29.515625 413.367188 26.996094 407.496094 26.007812 C 390.035156 23.0625 372.414062 22.875 355.007812 27.148438 C 343.632812 29.941406 337.242188 37.9375 335.429688 48.789062 C 333.507812 60.316406 332.539062 72.109375 332.398438 83.804688 C 332.003906 115.988281 333.25 148.222656 331.96875 180.359375 C 330.832031 208.867188 331.570312 237.625 323.878906 265.679688 C 314.582031 299.59375 296.585938 326.296875 264.09375 341.511719 C 250.054688 348.089844 234.992188 351.5625 219.609375 353.753906 C 201.253906 356.367188 182.71875 356.101562 164.484375 354.777344 C 125.339844 351.929688 89.902344 339.1875 64.21875 307.574219 C 49.132812 289.015625 40.820312 266.925781 38.484375 243.230469 C 32.1875 179.351562 36.84375 115.246094 35.507812 51.253906 C 35.277344 40.351562 31.714844 31.457031 20.976562 26.925781 C 15.121094 24.457031 8.816406 23.742188 2.011719 22.730469 C 1.421875 17.953125 1.421875 13.179688 1.421875 7.753906 Z M 1.421875 7.753906 "/>
<path style=" stroke:none;fill-rule:nonzero;fill:rgb(0%,0%,0%);fill-opacity:1;" d="M 1355.625 1.824219 C 1386.976562 1.421875 1417.933594 1.542969 1448.882812 1.296875 C 1453.914062 1.257812 1455.59375 1.976562 1455.578125 7.648438 C 1455.355469 104.085938 1455.421875 200.523438 1455.421875 297.628906 C 1453.367188 300.816406 1451.402344 301.3125 1449.230469 298.3125 C 1446.035156 293.90625 1443.078125 289.347656 1440.160156 284.753906 C 1434.769531 276.277344 1431.304688 275.738281 1424.125 283.007812 C 1403.351562 304.042969 1378.480469 317.480469 1349.398438 322.25 C 1317.027344 327.554688 1285.277344 325.792969 1255.390625 310.351562 C 1227.371094 295.875 1208.316406 273.203125 1197.339844 244.132812 C 1180.285156 198.96875 1177.210938 152.613281 1192.140625 106.441406 C 1207.164062 59.96875 1241.609375 35.890625 1288.957031 29.25 C 1314.523438 25.660156 1339.945312 27.71875 1364.9375 33.898438 C 1381.132812 37.90625 1396.085938 44.738281 1409.269531 55.359375 C 1419.3125 63.453125 1426.238281 73.625 1431.855469 84.996094 C 1433.652344 88.636719 1435.007812 94.128906 1440.359375 92.988281 C 1445.785156 91.832031 1444.625 86.273438 1444.6875 82.21875 C 1444.890625 68.972656 1444.859375 55.722656 1444.726562 42.472656 C 1444.621094 31.6875 1442.683594 28.808594 1432.523438 25.15625 C 1409.066406 16.730469 1384.859375 11.371094 1360.222656 7.773438 C 1357.507812 7.375 1351.609375 8.785156 1355.625 1.824219 Z M 1355.625 1.824219 "/>
<path style=" stroke:none;fill-rule:nonzero;fill:rgb(44.313725%,17.254902%,41.960784%);fill-opacity:1;" d="M 1355.359375 1.421875 C 1356.046875 5.492188 1359.214844 3.976562 1361.214844 4.222656 C 1390.125 7.800781 1418.007812 15.355469 1445.207031 25.640625 C 1448.074219 26.722656 1448.308594 28.816406 1448.308594 31.269531 C 1448.300781 52.328125 1448.308594 73.382812 1448.292969 94.441406 C 1448.292969 96.839844 1448.34375 99.929688 1444.898438 99.226562 C 1440.636719 98.363281 1434.882812 102.882812 1432.214844 95.703125 C 1428.855469 86.671875 1424.570312 78.175781 1418.710938 70.359375 C 1408.621094 56.898438 1394.871094 48.890625 1379.78125 42.71875 C 1364.035156 36.277344 1347.472656 34.097656 1330.601562 32.398438 C 1308.53125 30.175781 1287.121094 31.75 1266.019531 38.296875 C 1243.90625 45.160156 1225.078125 56.941406 1211.558594 76.066406 C 1197.738281 95.617188 1190.6875 117.578125 1188.335938 141.414062 C 1185.011719 175.097656 1187.867188 207.871094 1199.699219 239.742188 C 1216.195312 284.160156 1247.710938 311.265625 1294.222656 319.226562 C 1325.820312 324.636719 1357.007812 320.808594 1386.140625 306.492188 C 1402.738281 298.335938 1416.769531 286.464844 1429.074219 272.6875 C 1432.824219 268.492188 1434.542969 268.945312 1437.644531 273.660156 C 1443.152344 282.027344 1447.507812 291.210938 1454.925781 298.460938 C 1455.421875 300.269531 1455.421875 302.242188 1455.421875 304.804688 C 1446.402344 308.933594 1439.488281 315.808594 1431.269531 320.683594 C 1404.582031 336.511719 1376.300781 347.484375 1345.605469 352.417969 C 1328.394531 355.1875 1311.128906 357.070312 1293.738281 356.449219 C 1251.277344 354.929688 1211.222656 345.195312 1176.558594 319.238281 C 1153.054688 301.640625 1136.632812 278.5625 1126.039062 251.179688 C 1115.113281 222.941406 1112.703125 193.476562 1114.929688 163.824219 C 1117.558594 128.878906 1128.601562 96.472656 1150.714844 68.664062 C 1169.515625 45.019531 1193.472656 28.179688 1221.503906 17.136719 C 1238.105469 10.597656 1255.191406 5.839844 1273.023438 4.058594 C 1273.789062 3.984375 1274.476562 3.097656 1275.144531 2.003906 C 1301.625 1.421875 1328.160156 1.421875 1355.359375 1.421875 Z M 1355.359375 1.421875 "/>
<path style=" stroke:none;fill-rule:nonzero;fill:rgb(44.313725%,17.254902%,41.960784%);fill-opacity:1;" d="M 929.289062 501.421875 C 928.628906 480.152344 928.773438 458.882812 928.53125 437.617188 C 928.472656 432.304688 930.023438 431.136719 935.46875 430.0625 C 950.757812 427.039062 954.265625 438.601562 959.953125 447.8125 C 961.519531 450.347656 962.757812 453.085938 965.621094 455.46875 C 969.5 449.1875 973.6875 443.261719 976.949219 436.859375 C 979.605469 431.648438 983.175781 430.117188 988.789062 430.277344 C 1003.988281 430.710938 1002.429688 428.851562 1002.425781 444.089844 C 1002.421875 462.765625 1002.253906 481.441406 1002.3125 500.769531 C 995.804688 501.421875 989.148438 501.421875 981.828125 501.421875 C 978.285156 499.234375 977.496094 496.285156 977.574219 492.765625 C 977.679688 487.835938 977.792969 482.890625 977.464844 477.675781 C 974.691406 481.203125 972.832031 485.054688 970.015625 488.203125 C 966.019531 492.675781 963.390625 492.738281 959.894531 488.085938 C 956.910156 484.117188 954.042969 480.027344 951.910156 475.820312 C 952.226562 481.636719 951.929688 487.773438 952.066406 493.898438 C 952.128906 496.671875 951.332031 498.9375 948.859375 501.070312 C 942.320312 501.421875 936.136719 501.421875 929.289062 501.421875 Z M 929.289062 501.421875 "/>
<path style=" stroke:none;fill-rule:nonzero;fill:rgb(44.313725%,17.254902%,41.960784%);fill-opacity:1;" d="M 740.4375 501.421875 C 739.78125 480.179688 739.90625 458.9375 739.691406 437.703125 C 739.640625 432.554688 740.753906 430.816406 746.523438 430.074219 C 756.878906 428.742188 761.742188 434.757812 766.820312 441.648438 C 772.195312 448.949219 777.800781 456.082031 785.21875 463.09375 C 785.21875 456.523438 785.214844 449.953125 785.21875 443.382812 C 785.21875 430.230469 788.734375 427.609375 801.902344 430.40625 C 805.347656 431.136719 805.066406 433.363281 805.058594 435.65625 C 805.003906 457.140625 804.902344 478.628906 804.953125 500.765625 C 799.382812 501.421875 793.667969 501.421875 787.292969 501.421875 C 776.238281 496.042969 771.542969 485.296875 763.347656 476.710938 C 763.074219 482.492188 763.230469 487.742188 763.214844 492.980469 C 763.207031 495.949219 763.003906 498.785156 759.996094 501.078125 C 753.472656 501.421875 747.285156 501.421875 740.4375 501.421875 Z M 740.4375 501.421875 "/>
<path style=" stroke:none;fill-rule:nonzero;fill:rgb(44.313725%,17.254902%,41.960784%);fill-opacity:1;" d="M 1311.246094 501.421875 C 1310.589844 479.894531 1310.710938 458.367188 1310.503906 436.839844 C 1310.457031 432.003906 1311.796875 430.351562 1316.847656 430.230469 C 1324.535156 430.050781 1330.605469 430.929688 1335.34375 438.433594 C 1340.890625 447.21875 1348.148438 454.921875 1355.332031 463.933594 C 1356.679688 454.679688 1356.113281 446.269531 1355.886719 437.941406 C 1355.730469 432.191406 1357.246094 430.019531 1363.335938 430.269531 C 1378.113281 430.878906 1375.789062 428.601562 1375.855469 442.605469 C 1375.949219 461.773438 1375.714844 480.945312 1375.761719 500.765625 C 1370.191406 501.421875 1364.476562 501.421875 1358.101562 501.421875 C 1347.875 495.664062 1343.011719 485.378906 1334.621094 476.972656 C 1333.5625 483.09375 1334.199219 488.246094 1334.019531 493.34375 C 1333.917969 496.171875 1333.851562 498.964844 1330.800781 501.085938 C 1324.28125 501.421875 1318.09375 501.421875 1311.246094 501.421875 Z M 1311.246094 501.421875 "/>
<path style=" stroke:none;fill-rule:nonzero;fill:rgb(44.313725%,17.254902%,41.960784%);fill-opacity:1;" d="M 545.90625 501.421875 C 545.25 480.164062 545.382812 458.910156 545.160156 437.65625 C 545.101562 432.4375 546.296875 430.726562 552.050781 430.082031 C 561.296875 429.046875 566.1875 433.589844 570.898438 440.179688 C 576.566406 448.117188 582.714844 455.710938 588.65625 463.453125 C 589.332031 463.339844 590.011719 463.226562 590.6875 463.113281 C 590.6875 455.800781 590.46875 448.480469 590.78125 441.183594 C 590.933594 437.679688 588.601562 432.28125 592.714844 431.050781 C 597.691406 429.5625 603.472656 430.378906 608.855469 430.828125 C 611.246094 431.023438 610.519531 433.875 610.515625 435.609375 C 610.484375 457.113281 610.375 478.613281 610.425781 500.765625 C 604.851562 501.421875 599.136719 501.421875 592.765625 501.421875 C 580.890625 495.765625 576.304688 483.886719 567.289062 475.175781 C 567.222656 481.371094 567.242188 487.167969 567.265625 492.960938 C 567.273438 495.941406 567.074219 498.777344 564.050781 501.078125 C 557.996094 501.421875 552.28125 501.421875 545.90625 501.421875 Z M 545.90625 501.421875 "/>
<path style=" stroke:none;fill-rule:nonzero;fill:rgb(44.313725%,17.254902%,41.960784%);fill-opacity:1;" d="M 1086.90625 501.421875 C 1086.242188 479.953125 1086.40625 458.484375 1086.128906 437.023438 C 1086.058594 431.652344 1087.792969 430.15625 1092.996094 430.285156 C 1106.558594 430.625 1120.339844 429.558594 1133.058594 435.445312 C 1147.371094 442.066406 1152.859375 453.070312 1151.535156 470.671875 C 1150.632812 482.628906 1140.445312 494.527344 1127.871094 498.332031 C 1126.175781 498.847656 1123.933594 498.046875 1123.058594 500.878906 C 1111.296875 501.421875 1099.433594 501.421875 1086.90625 501.421875 Z M 1086.90625 501.421875 "/>
<path style=" stroke:none;fill-rule:nonzero;fill:rgb(44.313725%,17.254902%,41.960784%);fill-opacity:1;" d="M 1017.328125 501.421875 C 1016.664062 479.878906 1016.796875 458.332031 1016.574219 436.792969 C 1016.523438 431.863281 1018.015625 430.222656 1023.003906 430.320312 C 1037.433594 430.601562 1051.886719 430.789062 1066.300781 430.273438 C 1074.460938 429.984375 1073.339844 435.007812 1073.488281 440.011719 C 1073.644531 445.1875 1073.613281 449.441406 1066.265625 448.980469 C 1058.015625 448.460938 1049.707031 448.925781 1041.425781 448.855469 C 1038.433594 448.832031 1036.519531 449.390625 1036.515625 453.089844 C 1036.515625 456.730469 1038.300781 457.433594 1041.359375 457.394531 C 1047.984375 457.308594 1054.652344 457.859375 1061.222656 457.253906 C 1068.078125 456.625 1070.097656 459.476562 1069.222656 465.683594 C 1069.058594 466.84375 1069.082031 468.058594 1069.207031 469.230469 C 1069.640625 473.320312 1067.699219 474.578125 1063.816406 474.472656 C 1056.484375 474.28125 1049.144531 474.496094 1041.808594 474.410156 C 1038.5625 474.371094 1036.398438 474.859375 1036.507812 478.988281 C 1036.613281 482.90625 1038.921875 482.953125 1041.683594 482.949219 C 1049.964844 482.933594 1058.269531 483.316406 1066.523438 482.835938 C 1072.375 482.496094 1074.050781 484.796875 1073.519531 490.164062 C 1073.195312 493.449219 1073.460938 496.789062 1073.460938 500.761719 C 1054.972656 501.421875 1036.484375 501.421875 1017.328125 501.421875 Z M 1017.328125 501.421875 "/>
<path style=" stroke:none;fill-rule:nonzero;fill:rgb(44.313725%,17.254902%,41.960784%);fill-opacity:1;" d="M 1390.769531 501.421875 C 1390.105469 480.15625 1390.246094 458.886719 1390.007812 437.625 C 1389.949219 432.394531 1390.976562 430.09375 1396.910156 430.273438 C 1411.304688 430.710938 1425.726562 430.695312 1440.125 430.308594 C 1447.75 430.101562 1446.894531 434.867188 1446.90625 439.65625 C 1446.917969 444.472656 1447.695312 449.363281 1440.089844 448.953125 C 1432.082031 448.523438 1424.035156 448.871094 1416.003906 448.867188 C 1412.882812 448.867188 1409.820312 448.472656 1409.945312 453.359375 C 1410.0625 457.878906 1412.964844 457.351562 1415.753906 457.367188 C 1422.839844 457.40625 1429.933594 457.585938 1437.011719 457.324219 C 1441.339844 457.160156 1443.113281 458.726562 1442.664062 463.03125 C 1442.46875 464.902344 1442.480469 466.824219 1442.664062 468.699219 C 1443.074219 472.894531 1441.523438 474.660156 1437.09375 474.492188 C 1429.78125 474.21875 1422.449219 474.445312 1415.128906 474.4375 C 1412.386719 474.433594 1410.054688 474.453125 1409.949219 478.375 C 1409.835938 482.46875 1411.9375 483.015625 1415.210938 482.972656 C 1422.769531 482.878906 1430.328125 482.945312 1437.886719 482.957031 C 1446.882812 482.972656 1446.882812 482.976562 1446.898438 492.304688 C 1446.902344 494.90625 1446.898438 497.503906 1446.898438 500.761719 C 1428.410156 501.421875 1409.921875 501.421875 1390.769531 501.421875 Z M 1390.769531 501.421875 "/>
<path style=" stroke:none;fill-rule:nonzero;fill:rgb(44.313725%,17.254902%,41.960784%);fill-opacity:1;" d="M 212.234375 501.421875 C 211.570312 479.886719 211.695312 458.355469 211.480469 436.824219 C 211.429688 431.917969 212.90625 430.222656 217.90625 430.320312 C 232.09375 430.601562 246.292969 430.582031 260.476562 430.328125 C 265.265625 430.238281 267.191406 431.488281 267.039062 436.625 C 266.605469 451.273438 268.300781 448.582031 255.121094 448.84375 C 248.738281 448.96875 242.347656 448.976562 235.964844 448.851562 C 232.617188 448.78125 231.375 450.085938 231.433594 453.457031 C 231.488281 456.75 233.171875 457.398438 235.914062 457.378906 C 242.773438 457.332031 249.671875 457.839844 256.480469 457.257812 C 263.039062 456.695312 265 459.328125 264.132812 465.320312 C 263.929688 466.710938 263.976562 468.164062 264.105469 469.570312 C 264.453125 473.332031 262.667969 474.527344 259.09375 474.457031 C 251.527344 474.308594 243.957031 474.480469 236.386719 474.421875 C 233.445312 474.398438 231.429688 474.851562 231.421875 478.597656 C 231.417969 482.175781 233.085938 483 236.195312 482.964844 C 244.238281 482.878906 252.296875 483.277344 260.316406 482.851562 C 266.5 482.527344 269.144531 484.660156 268.414062 490.933594 C 268.058594 493.972656 268.175781 497.070312 268.222656 500.78125 C 249.875 501.421875 231.386719 501.421875 212.234375 501.421875 Z M 212.234375 501.421875 "/>
<path style=" stroke:none;fill-rule:nonzero;fill:rgb(44.313725%,17.254902%,41.960784%);fill-opacity:1;" d="M 839.839844 501.421875 C 839.691406 497.902344 836.414062 498.140625 834.664062 497.128906 C 819.375 488.292969 815.988281 474.703125 816.824219 463.664062 C 818.070312 447.179688 827.019531 435.324219 843.457031 431.359375 C 855.261719 428.507812 867.292969 429.398438 878.058594 436.308594 C 880.886719 438.128906 882.570312 439.878906 879.683594 443.589844 C 877.667969 446.183594 874.90625 448.28125 873.519531 451.226562 C 871.675781 455.128906 870.042969 454.132812 867.078125 452.296875 C 856.382812 445.679688 842.597656 447.578125 838.925781 459.492188 C 836.972656 465.820312 836.660156 471.785156 841.308594 477.359375 C 846.566406 483.667969 853.21875 485.507812 860.871094 483.957031 C 863.882812 483.347656 866.554688 481.636719 866.105469 477.585938 C 865.582031 472.851562 861.972656 474.964844 859.570312 474.449219 C 857.160156 473.933594 853.523438 475.734375 852.535156 472.832031 C 851.183594 468.859375 851.515625 464.390625 852.488281 460.226562 C 852.847656 458.683594 854.804688 458.855469 856.195312 458.847656 C 864.234375 458.816406 872.269531 458.925781 880.304688 458.789062 C 883.875 458.726562 884.667969 460.53125 884.625 463.628906 C 884.523438 470.484375 884.203125 477.371094 884.726562 484.191406 C 885.207031 490.414062 882.730469 493.8125 877.121094 495.996094 C 874.640625 496.964844 871.679688 497.734375 870.265625 500.914062 C 860.441406 501.421875 850.472656 501.421875 839.839844 501.421875 Z M 839.839844 501.421875 "/>
<path style=" stroke:none;fill-rule:nonzero;fill:rgb(44.313725%,17.254902%,41.960784%);fill-opacity:1;" d="M 645.308594 501.421875 C 645.402344 499 643.296875 498.628906 641.96875 498.039062 C 620.578125 488.542969 617.867188 459.300781 630.761719 442.402344 C 635.519531 436.171875 642.386719 432.144531 649.652344 430.980469 C 661.28125 429.121094 673.136719 429.335938 683.6875 436.367188 C 687.285156 438.765625 687.523438 441.390625 685.046875 444.5 C 683.152344 446.878906 680.910156 448.910156 679.335938 451.628906 C 677.972656 453.988281 676.019531 455.101562 673.019531 452.671875 C 669.105469 449.496094 664.292969 448.703125 659.105469 448.734375 C 651.613281 448.777344 647.210938 452.40625 644.765625 458.996094 C 641.679688 467.300781 643.210938 474.179688 649.144531 479.621094 C 654.214844 484.269531 662.808594 485.683594 668.164062 483.210938 C 671.121094 481.847656 671.832031 479.839844 671.492188 476.992188 C 671.105469 473.722656 668.507812 474.59375 666.570312 474.46875 C 657.90625 473.910156 655.324219 470.167969 657.476562 461.660156 C 658.109375 459.160156 659.621094 458.847656 661.601562 458.84375 C 669.644531 458.824219 677.6875 458.921875 685.726562 458.792969 C 689.257812 458.734375 690.136719 460.484375 690.089844 463.613281 C 689.988281 470.472656 689.667969 477.367188 690.199219 484.1875 C 690.6875 490.433594 688.175781 493.804688 682.582031 496 C 680.101562 496.976562 677.132812 497.730469 675.730469 500.917969 C 665.914062 501.421875 655.945312 501.421875 645.308594 501.421875 Z M 645.308594 501.421875 "/>
<path style=" stroke:none;fill-rule:nonzero;fill:rgb(44.313725%,17.254902%,41.960784%);fill-opacity:1;" d="M 386.878906 501.421875 C 386.21875 479.894531 386.34375 458.371094 386.128906 436.847656 C 386.082031 431.988281 387.457031 430.300781 392.5 430.300781 C 406.09375 430.296875 406.09375 430.066406 406.097656 443.597656 C 406.097656 455.972656 406.097656 456.027344 418.515625 455.949219 C 429.996094 455.878906 428.671875 457.179688 428.816406 445.746094 C 428.824219 445.273438 428.816406 444.796875 428.816406 444.324219 C 428.820312 429.261719 428.8125 429.40625 443.957031 430.335938 C 447.773438 430.570312 448.75 432.042969 448.722656 435.511719 C 448.550781 457.042969 448.503906 478.578125 448.554688 500.765625 C 442.507812 501.421875 436.324219 501.421875 429.476562 501.421875 C 426.183594 499.390625 424.992188 496.734375 425.269531 493.40625 C 425.347656 492.464844 425.277344 491.511719 425.242188 490.566406 C 424.933594 482.09375 422.558594 478.558594 417.265625 478.691406 C 412.253906 478.816406 409.996094 482.25 409.679688 490.242188 C 409.621094 491.660156 409.566406 493.082031 409.609375 494.496094 C 409.6875 497.039062 408.804688 499.09375 406.464844 501.054688 C 399.910156 501.421875 393.726562 501.421875 386.878906 501.421875 Z M 386.878906 501.421875 "/>
<path style=" stroke:none;fill-rule:nonzero;fill:rgb(44.313725%,17.254902%,41.960784%);fill-opacity:1;" d="M 459.296875 501.421875 C 460.925781 489.105469 467.4375 478.375 471.707031 466.800781 C 475.429688 456.714844 480.289062 447.046875 483.988281 436.953125 C 485.71875 432.226562 487.90625 430.238281 493.070312 430.289062 C 506.589844 430.414062 506.484375 430.234375 511.980469 443.261719 C 519.179688 460.320312 526.554688 477.308594 533.910156 494.300781 C 534.769531 496.28125 535.730469 498.144531 535.105469 500.890625 C 528.652344 501.421875 521.992188 501.421875 514.671875 501.421875 C 512.644531 499.820312 510.578125 499.078125 509.214844 497.460938 C 501.574219 488.410156 492.0625 488.242188 484.605469 497.058594 C 483.410156 498.472656 481.796875 499.371094 480.269531 501.085938 C 473.273438 501.421875 466.617188 501.421875 459.296875 501.421875 Z M 459.296875 501.421875 "/>
<path style=" stroke:none;fill-rule:nonzero;fill:rgb(44.313725%,17.254902%,41.960784%);fill-opacity:1;" d="M 144.074219 501.421875 C 143.414062 480.613281 143.679688 459.804688 143.265625 439.007812 C 143.125 431.976562 145.609375 430.074219 152.269531 430.289062 C 165.5 430.714844 178.765625 430.75 191.992188 430.277344 C 198.78125 430.03125 201.039062 432.609375 200.238281 438.9375 C 200.03125 440.570312 200.078125 442.257812 200.214844 443.902344 C 200.511719 447.535156 199.007812 448.980469 195.304688 448.898438 C 187.503906 448.726562 179.695312 448.792969 171.890625 448.898438 C 168.601562 448.945312 164.699219 447.644531 164.601562 453.636719 C 164.492188 460.03125 168.652344 458.730469 172.207031 458.78125 C 178.355469 458.867188 184.511719 458.976562 190.65625 458.757812 C 194.628906 458.617188 196.335938 460.089844 195.96875 464.089844 C 195.792969 465.964844 195.769531 467.890625 195.976562 469.761719 C 196.476562 474.292969 194.777344 476.339844 190.039062 475.898438 C 186.992188 475.613281 183.894531 475.851562 180.820312 475.851562 C 164.722656 475.855469 164.738281 475.851562 164.699219 491.613281 C 164.691406 494.449219 164.523438 497.28125 164.570312 500.769531 C 158.050781 501.421875 151.394531 501.421875 144.074219 501.421875 Z M 144.074219 501.421875 "/>
<path style=" stroke:none;fill-rule:nonzero;fill:rgb(44.313725%,17.254902%,41.960784%);fill-opacity:1;" d="M 331.507812 501.421875 C 331.355469 497.902344 328.078125 498.15625 326.332031 497.128906 C 313.5 489.59375 308.273438 478.332031 309.199219 463.699219 C 310.28125 446.644531 318.863281 435.042969 335.316406 431.308594 C 348.953125 428.214844 362.59375 429.300781 372.636719 441.589844 C 374.484375 443.847656 375.25 444.976562 372.140625 446.882812 C 368.78125 448.945312 365.835938 451.742188 362.921875 454.453125 C 359.671875 457.476562 358.40625 454.066406 356.625 452.683594 C 344.433594 443.226562 332.898438 449.820312 329.890625 462.121094 C 328.34375 468.433594 332.59375 477.597656 338.964844 481.332031 C 344.222656 484.414062 351.238281 483.535156 356.140625 478.003906 C 359.59375 474.105469 362.222656 475.128906 365.542969 477.40625 C 377.328125 485.492188 377.394531 486.796875 365.789062 495.46875 C 363.242188 497.371094 360.308594 498.761719 357.6875 500.90625 C 349.269531 501.421875 340.722656 501.421875 331.507812 501.421875 Z M 331.507812 501.421875 "/>
<path style=" stroke:none;fill-rule:nonzero;fill:rgb(44.313725%,17.254902%,41.960784%);fill-opacity:1;" d="M 1220.378906 501.421875 C 1220.230469 497.902344 1216.941406 498.1875 1215.207031 497.125 C 1203.144531 489.714844 1196.371094 476.4375 1197.625 464.4375 C 1199.390625 447.535156 1207.097656 435.171875 1224.050781 431.359375 C 1237.71875 428.285156 1251.328125 429.21875 1261.386719 441.496094 C 1263.074219 443.550781 1264.503906 444.765625 1261.128906 446.792969 C 1257.753906 448.820312 1254.816406 451.644531 1251.878906 454.328125 C 1248.761719 457.171875 1247.359375 454.199219 1245.492188 452.714844 C 1233.449219 443.160156 1221.65625 450.023438 1218.757812 462.105469 C 1217.242188 468.4375 1221.4375 477.5625 1227.828125 481.328125 C 1233.078125 484.421875 1240.097656 483.542969 1245.003906 478.007812 C 1248.472656 474.09375 1251.015625 475.132812 1254.378906 477.46875 C 1266.296875 485.746094 1266.378906 486.726562 1254.660156 495.46875 C 1252.109375 497.371094 1249.179688 498.761719 1246.558594 500.90625 C 1238.140625 501.421875 1229.59375 501.421875 1220.378906 501.421875 Z M 1220.378906 501.421875 "/>
<path style=" stroke:none;fill-rule:nonzero;fill:rgb(44.313725%,17.254902%,41.960784%);fill-opacity:1;" d="M 44.683594 501.421875 C 44.015625 480.613281 44.199219 459.808594 43.894531 439.007812 C 43.800781 432.769531 45.265625 429.996094 52.152344 430.285156 C 67.628906 430.9375 65.09375 428.511719 65.289062 443.519531 C 65.429688 454.640625 65.492188 465.765625 65.242188 476.878906 C 65.136719 481.421875 66.511719 483.25 71.246094 483.03125 C 78.089844 482.710938 84.964844 483.160156 91.8125 482.886719 C 96.253906 482.710938 98.488281 483.941406 98.019531 488.792969 C 97.660156 492.550781 97.78125 496.347656 97.832031 500.773438 C 80.433594 501.421875 62.890625 501.421875 44.683594 501.421875 Z M 44.683594 501.421875 "/>
<path style=" stroke:none;fill-rule:nonzero;fill:rgb(44.313725%,17.254902%,41.960784%);fill-opacity:1;" d="M 1164.996094 501.421875 C 1164.335938 480.210938 1164.453125 458.996094 1164.25 437.789062 C 1164.203125 432.664062 1165.117188 430.1875 1171.136719 430.265625 C 1185.628906 430.453125 1185.667969 430.132812 1185.625 444.941406 C 1185.570312 463.332031 1185.445312 481.722656 1185.496094 500.765625 C 1178.976562 501.421875 1172.316406 501.421875 1164.996094 501.421875 Z M 1164.996094 501.421875 "/>
<path style=" stroke:none;fill-rule:nonzero;fill:rgb(44.313725%,17.254902%,41.960784%);fill-opacity:1;" d="M 704.941406 501.421875 C 704.28125 480.175781 704.414062 458.933594 704.191406 437.691406 C 704.132812 432.453125 705.214844 430.148438 711.144531 430.269531 C 724.152344 430.53125 724.195312 430.199219 724.152344 443.441406 C 724.089844 462.332031 723.972656 481.222656 724.019531 500.765625 C 717.972656 501.421875 711.789062 501.421875 704.941406 501.421875 Z M 704.941406 501.421875 "/>
<path style=" stroke:none;fill-rule:nonzero;fill:rgb(44.313725%,17.254902%,41.960784%);fill-opacity:1;" d="M 109.992188 501.421875 C 109.335938 480.175781 109.46875 458.933594 109.242188 437.691406 C 109.1875 432.453125 110.269531 430.148438 116.199219 430.269531 C 129.207031 430.53125 129.25 430.199219 129.207031 443.441406 C 129.144531 462.332031 129.027344 481.222656 129.074219 500.765625 C 123.027344 501.421875 116.839844 501.421875 109.992188 501.421875 Z M 109.992188 501.421875 "/>
<path style=" stroke:none;fill-rule:nonzero;fill:rgb(44.313725%,17.254902%,41.960784%);fill-opacity:1;" d="M 1275.75 501.421875 C 1275.089844 480.183594 1275.21875 458.945312 1275 437.710938 C 1274.949219 432.535156 1275.910156 430.046875 1281.902344 430.292969 C 1297.566406 430.925781 1294.8125 428.421875 1294.914062 443.460938 C 1295.042969 462.34375 1294.78125 481.230469 1294.828125 500.765625 C 1288.78125 501.421875 1282.597656 501.421875 1275.75 501.421875 Z M 1275.75 501.421875 "/>
<path style=" stroke:none;fill-rule:nonzero;fill:rgb(0%,0%,0%);fill-opacity:1;" d="M 949.171875 501.421875 C 948.507812 489.921875 948.507812 478.421875 948.507812 464.929688 C 953.816406 472.613281 958.382812 478.429688 962.039062 484.769531 C 964.683594 489.359375 966.199219 487.941406 968.234375 484.75 C 971.976562 478.882812 975.703125 473.007812 979.433594 467.132812 C 980.105469 467.214844 980.773438 467.296875 981.445312 467.378906 C 981.445312 478.289062 981.445312 489.203125 981.304688 500.765625 C 970.722656 501.421875 960.28125 501.421875 949.171875 501.421875 Z M 949.171875 501.421875 "/>
<path style=" stroke:none;fill-rule:nonzero;fill:rgb(0%,0%,0%);fill-opacity:1;" d="M 406.761719 501.421875 C 406.101562 494.371094 406.253906 487.320312 406.046875 480.277344 C 405.929688 476.253906 406.96875 474.488281 411.492188 474.328125 C 428.816406 473.730469 428.796875 473.5625 428.828125 490.949219 C 428.835938 494.003906 429.003906 497.058594 428.957031 500.769531 C 421.683594 501.421875 414.554688 501.421875 406.761719 501.421875 Z M 406.761719 501.421875 "/>
<path style=" stroke:none;fill-rule:nonzero;fill:rgb(0%,0%,0%);fill-opacity:1;" d="M 564.375 501.421875 C 563.710938 489.949219 563.710938 478.476562 563.710938 465.328125 C 575.113281 476.820312 583.046875 489.289062 592.304688 500.9375 C 583.085938 501.421875 574.0625 501.421875 564.375 501.421875 Z M 564.375 501.421875 "/>
<path style=" stroke:none;fill-rule:nonzero;fill:rgb(0%,0%,0%);fill-opacity:1;" d="M 1331.132812 501.421875 C 1330.46875 490.171875 1330.46875 478.921875 1330.46875 467.675781 C 1340.777344 477.886719 1349.929688 488.648438 1357.636719 500.929688 C 1348.894531 501.421875 1340.347656 501.421875 1331.132812 501.421875 Z M 1331.132812 501.421875 "/>
<path style=" stroke:none;fill-rule:nonzero;fill:rgb(0%,0%,0%);fill-opacity:1;" d="M 760.324219 501.421875 C 759.65625 490.417969 759.65625 479.417969 759.65625 468.414062 C 760.179688 468.167969 760.699219 467.917969 761.222656 467.667969 C 769.824219 478.597656 778.425781 489.523438 786.832031 500.9375 C 778.085938 501.421875 769.539062 501.421875 760.324219 501.421875 Z M 760.324219 501.421875 "/>
<path style=" stroke:none;fill-rule:nonzero;fill:rgb(0%,0%,0%);fill-opacity:1;" d="M 480.597656 501.421875 C 479.484375 497.472656 481.824219 494.328125 483.019531 490.863281 C 483.964844 488.121094 485.90625 486.996094 488.976562 487.15625 C 493.917969 487.414062 498.894531 487.449219 503.832031 487.148438 C 508.023438 486.894531 510.398438 488.246094 511.320312 492.535156 C 511.898438 495.234375 513.289062 497.757812 514.164062 500.890625 C 503.097656 501.421875 492.179688 501.421875 480.597656 501.421875 Z M 480.597656 501.421875 "/>
<path style=" stroke:none;fill-rule:nonzero;fill:rgb(44.313725%,17.254902%,41.960784%);fill-opacity:1;" d="M 879.914062 240.492188 C 882.257812 246.105469 884.324219 251.246094 887.050781 258.03125 C 891.796875 247.429688 895.988281 238.359375 899.9375 229.183594 C 909.75 206.398438 919.449219 183.558594 929.203125 160.746094 C 941.816406 131.238281 954.351562 101.699219 967.082031 72.242188 C 975.816406 52.03125 984.9375 31.984375 993.566406 11.730469 C 994.816406 8.792969 996.429688 8.53125 998.863281 8.53125 C 1031.042969 8.542969 1063.222656 8.625 1095.40625 8.476562 C 1102.507812 8.441406 1100.132812 13.425781 1100.367188 16.90625 C 1100.613281 20.550781 1101.394531 24.140625 1095.125 24.316406 C 1077.84375 24.804688 1068.511719 33.90625 1066.304688 50.921875 C 1063.277344 74.242188 1065.644531 97.648438 1064.972656 121.007812 C 1064.109375 151.011719 1066.441406 180.964844 1066.703125 210.964844 C 1066.882812 231.632812 1068.453125 252.347656 1069.304688 273.046875 C 1069.789062 284.765625 1070.976562 296.460938 1072.121094 308.136719 C 1073.359375 320.726562 1082.625 328.476562 1098.460938 331.039062 C 1102.675781 331.71875 1108.003906 330.996094 1107.6875 338.480469 C 1107.289062 347.976562 1107.769531 348.007812 1097.984375 348.007812 C 1056.8125 348.011719 1015.636719 348.019531 974.464844 347.992188 C 970.851562 347.992188 966.21875 349.101562 967.007812 342.808594 C 967.558594 338.398438 964.171875 332.617188 973.449219 332.097656 C 991.765625 331.074219 1000.933594 321.308594 1002.46875 303.234375 C 1005.679688 265.472656 1003.753906 227.621094 1003.457031 189.832031 C 1003.359375 177.65625 1002.808594 165.351562 1002.503906 153.105469 C 1001.898438 128.796875 1001.511719 104.480469 1001.015625 80.164062 C 1000.996094 79.324219 1000.761719 78.488281 1000.296875 75.59375 C 994.839844 88.195312 990.085938 98.988281 985.484375 109.84375 C 973.152344 138.941406 960.855469 168.050781 948.605469 197.179688 C 935.261719 228.914062 922.015625 260.6875 908.667969 292.421875 C 901.675781 309.046875 894.46875 325.582031 887.558594 342.238281 C 885.777344 346.53125 883.128906 347.683594 878.519531 348.230469 C 866.042969 349.714844 859.175781 346.203125 854.078125 333.289062 C 839.714844 296.902344 823.378906 261.292969 807.691406 225.433594 C 795.207031 196.898438 782.496094 168.46875 769.949219 139.964844 C 764.570312 127.742188 759.304688 115.472656 754.09375 103.179688 C 753.363281 101.453125 752.890625 99.691406 750.738281 98.285156 C 748.820312 103.523438 749.136719 108.992188 748.570312 114.078125 C 745.675781 139.945312 743.984375 165.945312 741.046875 191.804688 C 737.925781 219.285156 735.125 246.792969 732.507812 274.324219 C 731.578125 284.125 729.792969 293.84375 729.828125 303.742188 C 729.890625 320.617188 735.742188 327.804688 752.082031 330.910156 C 758.234375 332.078125 762.761719 341.554688 759.648438 346.8125 C 758.777344 348.285156 757.191406 347.976562 755.835938 347.976562 C 723.65625 347.996094 691.472656 347.921875 659.292969 348.054688 C 653.980469 348.078125 654.183594 344.667969 654.703125 341.453125 C 655.234375 338.175781 651.71875 332.925781 658.910156 332.320312 C 664.234375 331.867188 669.488281 330.554688 674.78125 329.65625 C 687.917969 327.417969 694.847656 318.667969 696.855469 306.449219 C 699.136719 292.597656 699.851562 278.496094 701.484375 264.53125 C 703.652344 245.941406 706.144531 227.390625 708.320312 208.800781 C 709.957031 194.832031 711.253906 180.824219 712.808594 166.84375 C 714.570312 151.023438 716.53125 135.222656 718.253906 119.394531 C 719.855469 104.710938 721.179688 89.996094 722.769531 75.308594 C 723.828125 65.507812 724.925781 55.851562 723.125 45.890625 C 720.109375 29.164062 711.726562 26.480469 696.527344 24.132812 C 693.941406 23.734375 689.992188 25.644531 689.148438 22.097656 C 688.246094 18.3125 688.707031 14.101562 689.171875 10.144531 C 689.398438 8.195312 691.808594 8.566406 693.394531 8.566406 C 722.5 8.535156 751.605469 8.621094 780.707031 8.445312 C 784.804688 8.421875 785.890625 10.90625 787.0625 13.730469 C 794.929688 32.753906 802.800781 51.773438 810.601562 70.824219 C 825.339844 106.8125 840.042969 142.816406 854.738281 178.824219 C 863.058594 199.210938 871.335938 219.621094 879.914062 240.492188 Z M 879.914062 240.492188 "/>
<path style=" stroke:none;fill-rule:nonzero;fill:rgb(50.196078%,0%,50.196078%);fill-opacity:1;" d="M 394.125 334.132812 C 394.589844 337.628906 394.613281 341.488281 394.605469 345.988281 C 392.101562 342.742188 393.578125 338.570312 394.125 334.132812 Z M 394.125 334.132812 "/>
<path style=" stroke:none;fill-rule:nonzero;fill:rgb(0%,0%,0%);fill-opacity:1;" d="M 495.558594 170.359375 C 495.558594 132.265625 495.691406 94.867188 495.5 57.472656 C 495.398438 38.335938 503.941406 28.640625 524.144531 26.828125 C 542.074219 25.222656 559.175781 27.035156 575.128906 35.59375 C 592.667969 45.007812 601.082031 60.484375 603.488281 79.78125 C 605.933594 99.378906 602.847656 118.058594 593.789062 135.539062 C 579.753906 162.617188 556.445312 176.570312 527.113281 181.882812 C 519.144531 183.324219 511.152344 182.753906 503.199219 183.371094 C 496.660156 183.878906 494.652344 181.328125 495.53125 175.3125 C 495.730469 173.921875 495.558594 172.476562 495.558594 170.359375 Z M 495.558594 170.359375 "/>
<path style=" stroke:none;fill-rule:nonzero;fill:rgb(0%,0%,0%);fill-opacity:1;" d="M 1131.210938 463.738281 C 1130.277344 477.332031 1123.160156 483.425781 1109.894531 482.933594 C 1107.125 482.832031 1106.132812 481.6875 1106.144531 479.078125 C 1106.1875 470.328125 1106.214844 461.574219 1106.132812 452.824219 C 1106.101562 449.640625 1107.78125 449.03125 1110.5625 448.828125 C 1120.5 448.109375 1127.847656 453.1875 1131.210938 463.738281 Z M 1131.210938 463.738281 "/>
<path style=" stroke:none;fill-rule:nonzero;fill:rgb(0%,0%,0%);fill-opacity:1;" d="M 494.023438 463.191406 C 494.746094 460.964844 495.382812 459.246094 496.042969 457.464844 C 499.15625 459.695312 499.367188 463.179688 500.625 466.117188 C 502.363281 470.164062 501.484375 471.808594 496.625 471.695312 C 487.515625 471.484375 492.683594 467.058594 494.023438 463.191406 Z M 494.023438 463.191406 "/>
</g>
</svg>
