<svg xmlns="http://www.w3.org/2000/svg" width="177" height="61"><defs><clipPath id="a"><path d="M0 0h177v61H0z"/></clipPath></defs><g clip-path="url(#a)"><path fill="#fff" d="M0 0h177v61H0z"/><g data-name="upmclogosvg"><path data-name="Path 76" d="M5.336 52.132h2.309v6.253h4v2H5.337Zm7.8 0h2.308v8.252h-2.309Zm4.309 0h6.567v2h-4.314v1.384h3.9v1.9h-3.9v2.922h-2.305v-8.2Zm8.106 0h6.67v1.947h-4.363v1.282h3.95v1.794h-3.95v1.337h4.412v1.948h-6.72Zm11.847 4.152a4.249 4.249 0 0 1 4.361-4.306 4.069 4.069 0 0 1 3.489 1.691l-1.741 1.333a2.286 2.286 0 0 0-1.8-.974 2.016 2.016 0 0 0-1.95 2.2 2.048 2.048 0 0 0 1.95 2.2 2.155 2.155 0 0 0 1.847-1.026l1.744 1.23a4.347 4.347 0 0 1-7.9-2.357Zm9.34-4.152h2.31v3.075h2.924v-3.075h2.309v8.253h-2.31v-3.126h-2.923v3.126h-2.31Zm12.314-.1h2.206l3.54 8.3h-2.463l-.564-1.486h-3.18l-.565 1.486h-2.411l3.437-8.3Zm2 5.075-.923-2.358-.923 2.358h1.847Zm4.977-4.972h2.155l3.386 4.357v-4.361h2.258v8.253h-2l-3.54-4.51v4.51h-2.26v-8.252Zm9.492 4.152a4.292 4.292 0 0 1 4.412-4.306 4.969 4.969 0 0 1 3.335 1.179l-1.334 1.632a2.79 2.79 0 0 0-2-.769 2.15 2.15 0 0 0-2.1 2.256 2.2 2.2 0 0 0 2.253 2.313 2.159 2.159 0 0 0 1.334-.359v-1.027h-1.643v-1.64h3.8v3.69a5.524 5.524 0 0 1-3.59 1.282 4.234 4.234 0 0 1-4.464-4.254Zm9.85-4.152h2.309v8.252h-2.309Zm4.31 0h2.154l3.386 4.357v-4.361h2.258v8.253h-2l-3.54-4.51v4.51h-2.258Zm9.44 4.152a4.292 4.292 0 0 1 4.412-4.306 4.969 4.969 0 0 1 3.335 1.179l-1.334 1.64a2.79 2.79 0 0 0-2-.769 2.15 2.15 0 0 0-2.1 2.256 2.2 2.2 0 0 0 2.258 2.306 2.159 2.159 0 0 0 1.334-.359v-1.028h-1.642v-1.64h3.8v3.69a5.524 5.524 0 0 1-3.59 1.282 4.234 4.234 0 0 1-4.464-4.254Zm13.544-4.152h2.411l1.95 3.178 1.95-3.179h2.41v8.253h-2.257v-4.719l-2.1 3.23h-.051l-2.1-3.23v4.716h-2.257v-8.252Zm10.723 0h6.618v1.947h-4.361v1.282h3.95v1.794h-3.95v1.334h4.412v1.948h-6.72v-8.309Zm8.362 0h3.181c2.924 0 4.669 1.691 4.669 4.1 0 2.358-1.745 4.152-4.72 4.152h-3.13Zm2.309 2v4.2h.923a2.111 2.111 0 1 0 0-4.2h-.923Zm7.285-2h2.309v8.252h-2.309Zm4 4.152a4.249 4.249 0 0 1 4.36-4.306 4.069 4.069 0 0 1 3.49 1.691l-1.745 1.333a2.286 2.286 0 0 0-1.8-.974 2.016 2.016 0 0 0-1.95 2.2 2.049 2.049 0 0 0 1.95 2.2 2.152 2.152 0 0 0 1.847-1.026l1.745 1.23a4.347 4.347 0 0 1-7.9-2.357Zm9.389-4.152h2.308v8.252h-2.308Zm4.309 0h2.156l3.386 4.357v-4.361h2.257v8.253h-2l-3.54-4.51v4.51h-2.258v-8.252Zm9.7 0h6.618v1.947h-4.362v1.282h3.95v1.794h-3.95v1.334h4.412v1.948h-6.72v-8.309Zm-76.7-10.253v-1.745c-3.694-.513-3.8-1.692-3.592-5.127l2.463-24.04 13.493 30.96h2.77l14.212-33.574c.205 8 .41 15.122.41 25.476 0 4.614-.667 6.254-4.515 6.357v1.743h16.88v-1.74c-2.822-.359-3.9-.974-4.259-2.922-.051-.359-.923-10.15-.923-28.552 0-4.409.667-6 4.258-6.151V.82h-12.57l-13.185 30.5L94.966.82h-11.44v1.742c3.488.1 4.257 1.179 4.257 4.664l-3.285 29.578c-.462 2.665-2.1 3.075-5.13 3.383v1.743h12.674v-.052ZM31.198.768v1.744c2.308.1 3.591.564 4.31 1.9.82 1.64.82 6.408.82 15.84 0 7.278-.154 12.2-3.386 15.634a13.222 13.222 0 0 1-9.9 3.844c-7.388 0-10.671-4.767-10.671-13.635V8.509c0-4.255.513-5.69 4.515-6V.768H-.002v1.744c4.1.41 4.31 1.538 4.31 5.639v17.377c0 11.38 6.567 17.326 18.162 17.326 11.492 0 16.982-5.28 17.443-16.916.462-11.687-.154-18.556.77-20.965.564-1.538 1.847-2.1 4.31-2.256 1.026-.05 2.41 0 2.41 0 3.8.052 4.875 1.23 4.875 4.973v26.963c0 4-.719 5.382-4.515 5.536v1.743h16.573v-1.74c-3.745-.154-4.412-1.538-4.412-5.28v-9.896h2.565c19.29 0 18.726-13.174 18.726-13.174 0-6.87-4.77-11.175-14.16-11.175 0 0-13.852.1-15.6.1-1.744-.05-20.265 0-20.265 0Zm28.73 6c0-2.82 1.334-3.9 4.771-3.9 5.541 0 8.62 2.922 8.62 7.894 0 6.357-4.259 11.38-12.21 11.38-.411 0-.822-.051-1.232-.051V6.766h.051Zm99.992 32.038c-9.388 0-16.058-6.46-16.058-19.172 0-11.072 6.413-16.095 15.237-16.095 7.7 0 13.288 2.511 14.827 8.3h1.642V3.126A44.146 44.146 0 0 0 159.249 0c-14.775 0-24.061 8.611-24.061 21.99 0 12.508 8.619 20.915 22.522 20.915a29.747 29.747 0 0 0 18.829-6.357l-2.617-4.1c-4.258 4.767-8.619 6.356-14.006 6.356Z" fill="#4d104a"/></g></g></svg>
