<svg version="1.1" id="Layer_1" xmlns="http://www.w3.org/2000/svg" xmlns:xlink="http://www.w3.org/1999/xlink" x="0px" y="0px"
	 width="100%" viewBox="0 0 1024 352" enable-background="new 0 0 1024 352" xml:space="preserve">
<path fill="#000000" opacity="1.000000" stroke="none" 
	d="
M979.300049,352.700684 
	C975.969421,353.000000 972.938782,353.000000 969.454102,353.000000 
	C966.621277,351.380859 966.486450,348.930298 966.491028,346.389038 
	C966.508911,336.417755 966.514038,326.446411 966.487671,316.475098 
	C966.482361,314.482025 966.530457,312.473267 965.990234,310.530853 
	C965.418274,308.474487 964.359192,306.772522 961.948975,306.812439 
	C959.548584,306.852173 958.532166,308.595154 957.980042,310.642242 
	C957.499939,312.422150 957.542542,314.264160 957.510559,316.092163 
	C957.458191,319.082520 957.618408,322.077789 957.384705,325.062653 
	C957.266785,326.569031 957.015442,328.161865 955.351929,328.747101 
	C953.528259,329.388672 952.322754,328.202759 951.296692,326.923523 
	C947.658264,322.387299 944.242432,317.676758 940.537842,313.191101 
	C939.267029,311.652344 938.049744,310.065979 936.542603,308.749329 
	C934.453064,306.923920 932.113708,305.636047 929.267395,306.650391 
	C926.252869,307.724701 925.748718,310.430450 925.626038,313.158813 
	C925.342285,319.469452 925.542664,325.786987 925.502991,332.101501 
	C925.471741,337.086761 925.529480,342.072266 925.472961,347.057617 
	C925.450256,349.061798 925.432434,351.058868 923.292358,352.707916 
	C919.638733,353.000000 916.277405,353.000000 912.458069,353.000000 
	C909.488342,351.260834 909.486267,348.623413 909.490051,345.984619 
	C909.504211,336.173584 909.519958,326.362488 909.478760,316.551514 
	C909.469666,314.391113 909.493103,312.210358 908.724548,310.144287 
	C908.111511,308.496490 907.096252,307.170532 905.179932,307.089508 
	C903.001282,306.997406 901.883545,308.435303 901.228638,310.272797 
	C900.490540,312.343689 900.526184,314.527649 900.519043,316.688599 
	C900.486633,326.499542 900.516968,336.310638 900.492676,346.121521 
	C900.487122,348.356720 900.781372,350.769409 898.304932,352.696533 
	C891.645569,353.000000 885.291199,353.000000 878.468384,353.000000 
	C875.957886,351.324005 875.687073,349.843170 878.428162,348.610168 
	C879.948425,347.926270 881.407593,347.113770 882.650757,345.981049 
	C884.099121,344.661255 885.138977,343.103271 884.018433,341.157928 
	C882.868652,339.161713 880.960327,338.743134 878.811523,339.329376 
	C877.673035,339.639893 876.752869,340.414215 875.692200,340.883240 
	C870.612488,343.129333 865.709473,343.479340 861.328735,339.322632 
	C856.804749,335.030090 854.395264,330.037842 856.220764,323.657379 
	C857.955017,317.595917 862.025696,314.040833 868.118652,312.944366 
	C870.788391,312.463959 873.369141,313.467133 875.776978,314.673920 
	C877.285828,315.430115 878.805481,316.102081 880.544678,315.757416 
	C882.114014,315.446442 883.346375,314.635040 883.824463,313.039703 
	C884.253784,311.607269 883.620667,310.441437 882.629395,309.445648 
	C882.039368,308.852997 881.342529,308.398621 880.622620,307.974426 
	C871.402283,302.541565 856.294189,305.795166 850.459961,314.474396 
	C843.393738,324.986389 845.504150,339.158539 855.182861,346.204102 
	C856.529907,347.184692 857.976685,348.013306 859.351624,348.949371 
	C860.959595,350.044006 861.069519,351.252686 859.248169,352.751678 
	C851.312439,353.000000 843.624817,353.000000 835.468628,353.000000 
	C832.502197,351.267639 832.481934,348.644531 832.487488,346.012085 
	C832.508240,336.218964 832.516968,326.425842 832.479858,316.632782 
	C832.471680,314.475952 832.493347,312.300293 831.761353,310.229675 
	C831.043091,308.197601 829.747925,306.713135 827.434204,306.752075 
	C825.126038,306.790863 823.880432,308.317505 823.197083,310.356140 
	C822.499634,312.436615 822.525452,314.609802 822.518799,316.766052 
	C822.488464,326.559082 822.514038,336.352264 822.494751,346.145233 
	C822.490356,348.371887 822.775146,350.775604 820.305908,352.695679 
	C810.645752,353.000000 801.291565,353.000000 791.468628,353.000000 
	C787.546692,349.726959 790.611328,349.128510 792.955811,348.250824 
	C803.141846,344.437683 808.378296,337.348053 808.339478,327.410736 
	C808.300537,317.434204 802.261353,309.717377 792.179688,307.394684 
	C786.852722,306.167358 781.361572,305.571381 775.871643,305.604645 
	C769.750183,305.641724 767.732605,307.548340 767.589294,313.644440 
	C767.335632,324.439972 767.550903,335.241211 767.485474,346.039825 
	C767.471497,348.346924 767.742371,350.764648 765.283020,352.716919 
	C762.299988,353.000000 759.599976,353.000000 756.449951,353.000000 
	C754.474365,351.861023 753.733093,350.311615 753.335388,348.462738 
	C752.518860,344.667023 749.914062,342.938232 746.183228,342.669983 
	C741.691101,342.347015 737.190613,342.502686 732.695129,342.492676 
	C728.906372,342.484222 727.516602,340.562958 727.549561,336.983093 
	C727.580750,333.590546 728.850403,331.625519 732.492249,331.544220 
	C736.154419,331.462463 739.830994,331.718964 743.476501,331.265167 
	C745.469055,331.017151 747.871826,330.685059 747.996155,328.197906 
	C748.141602,325.287842 745.516052,325.009918 743.385559,324.734314 
	C739.743713,324.263214 736.064209,324.541168 732.401917,324.452850 
	C728.712036,324.363892 727.579224,322.257324 727.546814,318.937439 
	C727.513550,315.533813 728.762573,313.534729 732.451111,313.527924 
	C735.949097,313.521454 739.447937,313.538361 742.945740,313.475281 
	C744.777771,313.442230 746.622131,313.443268 748.386719,312.860107 
	C750.055298,312.308685 751.517395,311.432281 751.460388,309.424957 
	C751.403992,307.435791 749.919250,306.339905 748.230225,306.133820 
	C739.945862,305.123077 731.595459,304.830505 723.368591,306.263916 
	C719.119995,307.004181 718.630432,310.960327 718.572693,314.591827 
	C718.405945,325.085541 718.548157,335.580902 718.487671,346.075195 
	C718.474670,348.331482 718.798401,350.763824 716.300049,352.700684 
	C712.969421,353.000000 709.938782,353.000000 706.454102,353.000000 
	C703.640442,351.359619 703.485352,348.917053 703.489197,346.356354 
	C703.504761,336.050842 703.533386,325.745148 703.473938,315.439667 
	C703.461426,313.279175 703.488464,311.076508 702.469727,309.093079 
	C700.389343,305.043060 694.825562,304.903168 691.035645,308.879974 
	C688.147583,311.910400 686.490967,315.818268 684.016663,319.158691 
	C680.150146,324.378845 678.739990,324.417480 675.274719,319.051666 
	C673.472229,316.260681 671.918396,313.304962 669.970825,310.611267 
	C667.693542,307.461670 664.778320,305.192719 660.658020,306.407593 
	C656.595154,307.605560 656.601257,311.280426 656.556152,314.619934 
	C656.414917,325.090759 656.540100,335.563232 656.483582,346.034851 
	C656.471191,348.329132 656.776611,350.759033 654.289978,352.710083 
	C640.645752,353.000000 627.291565,353.000000 613.468628,353.000000 
	C610.823364,351.275421 611.158569,350.014282 613.400574,348.448517 
	C620.195435,343.703094 622.029785,338.531189 620.209534,330.479553 
	C619.633362,327.930969 618.238708,326.285553 615.632263,325.832642 
	C612.986633,325.372894 610.317444,325.367035 607.670166,325.797272 
	C606.147278,326.044830 604.583130,326.566193 604.475342,328.405090 
	C604.364624,330.291931 605.917236,331.006195 607.413635,331.242615 
	C610.658691,331.755280 612.575989,333.162415 612.453918,336.784027 
	C612.332092,340.403015 610.096619,342.099762 607.105530,343.057678 
	C600.072083,345.310089 591.427673,341.190063 588.380798,334.255646 
	C585.508850,327.719299 588.474365,318.479065 594.672607,314.945221 
	C598.709351,312.643646 603.066223,313.372223 607.349487,313.976593 
	C608.820679,314.184143 610.233887,314.839996 611.766296,314.579956 
	C613.360291,314.309540 614.590271,313.532745 615.013184,311.879974 
	C615.386108,310.422699 614.743958,309.290375 613.672241,308.352448 
	C613.038269,307.797607 612.297546,307.420288 611.537781,307.072388 
	C601.193115,302.335815 586.653687,306.829773 581.111267,316.478607 
	C575.186279,326.793457 578.363037,339.898865 588.243286,347.057556 
	C589.848938,348.221008 594.320618,348.388824 591.257935,352.740845 
	C583.312439,353.000000 575.624817,353.000000 567.468628,353.000000 
	C564.617981,351.381195 564.486084,348.927673 564.490723,346.386688 
	C564.509033,336.410767 564.513916,326.434814 564.487549,316.458862 
	C564.482300,314.464905 564.530090,312.455139 563.985413,310.512543 
	C563.408447,308.455017 562.343689,306.756165 559.929199,306.813263 
	C557.531738,306.869965 556.472595,308.606445 555.983337,310.668243 
	C555.246338,313.774078 555.563904,316.956909 555.501099,320.110046 
	C555.464722,321.937531 555.574280,323.770935 555.339111,325.590027 
	C555.164001,326.944153 554.755005,328.299591 553.385559,328.814392 
	C551.874878,329.382202 550.642578,328.579895 549.631042,327.460571 
	C546.285217,323.758362 543.406372,319.680756 540.274170,315.806763 
	C538.498718,313.610870 536.971985,311.204773 534.902527,309.258240 
	C532.772705,307.254944 530.381592,305.622040 527.301208,306.668976 
	C524.019836,307.784302 523.663025,310.765442 523.600708,313.638000 
	C523.366455,324.443207 523.565308,335.251526 523.483459,346.058197 
	C523.466187,348.337921 523.790710,350.767853 521.292603,352.707642 
	C517.638733,353.000000 514.277405,353.000000 510.458069,353.000000 
	C507.488342,351.260864 507.486237,348.623474 507.490051,345.984680 
	C507.504181,336.173584 507.519989,326.362427 507.478729,316.551392 
	C507.469635,314.390961 507.493134,312.210175 506.724487,310.144135 
	C506.111481,308.496338 505.096130,307.170349 503.179810,307.089478 
	C501.001160,306.997528 499.883362,308.435425 499.228577,310.272980 
	C498.490631,312.343903 498.526215,314.527893 498.519073,316.688873 
	C498.486633,326.499878 498.517029,336.311035 498.492767,346.121979 
	C498.487244,348.357025 498.781372,350.769623 496.304871,352.696533 
	C489.645599,353.000000 483.291199,353.000000 476.468384,353.000000 
	C473.831482,351.277222 474.146667,350.018555 476.398682,348.448730 
	C483.184235,343.718719 485.038849,338.489746 483.197815,330.477570 
	C482.665466,328.160797 481.482178,326.481293 479.098541,325.955933 
	C476.137299,325.303314 473.135254,325.316589 470.166260,325.915436 
	C468.809692,326.188995 467.535858,326.854950 467.478790,328.449280 
	C467.421295,330.056335 468.691284,330.677399 469.996399,331.152557 
	C471.791931,331.806183 474.010468,331.543518 474.983429,333.878723 
	C476.217224,336.839874 475.180908,340.320374 472.355347,342.036896 
	C468.039459,344.658752 461.063507,343.869324 456.399872,340.231323 
	C451.145386,336.132416 449.241913,329.669006 451.385010,323.203125 
	C453.506683,316.802032 457.520447,313.676636 463.759979,313.503143 
	C466.774231,313.419342 469.708344,313.699371 472.644409,314.505768 
	C474.880768,315.119965 477.182739,314.707153 478.016785,312.174927 
	C478.888214,309.529205 476.929474,308.241425 474.895386,307.234894 
	C464.976532,302.326569 450.439148,306.520935 444.772583,315.910797 
	C438.537598,326.242615 441.230804,339.772491 450.897705,346.680573 
	C452.117981,347.552582 453.423767,348.298859 454.622192,349.202759 
	C456.131409,350.341064 455.667572,351.422638 454.259003,352.739746 
	C446.312408,353.000000 438.624847,353.000000 430.468628,353.000000 
	C427.621063,351.373047 427.487732,348.918518 427.490540,346.370422 
	C427.501923,336.045837 427.567902,325.720825 427.463470,315.396881 
	C427.402344,309.350891 425.812561,306.322784 422.860474,306.853790 
	C418.088043,307.712311 418.777222,311.839966 418.553680,315.215149 
	C418.344788,318.368927 418.599030,321.543121 418.415466,324.702911 
	C418.317627,326.386597 418.124817,328.202789 416.217987,328.809174 
	C414.431671,329.377258 413.155273,328.122894 412.055817,326.950317 
	C408.061615,322.690582 404.801636,317.838501 401.162842,313.290924 
	C399.499054,311.211609 397.959595,309.004639 395.616577,307.601746 
	C391.304901,305.020172 387.611755,306.635223 386.811157,311.591827 
	C386.171906,315.549530 386.529602,319.571075 386.510376,323.564240 
	C386.473450,331.224182 386.519440,338.884491 386.485931,346.544495 
	C386.476562,348.684357 386.625427,350.916748 384.291840,352.708374 
	C381.958344,353.000000 379.916656,353.000000 377.437500,353.000000 
	C374.383270,350.770905 372.902802,347.809570 371.604614,344.714905 
	C367.097778,333.971069 362.327759,323.338654 357.935303,312.546783 
	C356.395569,308.763763 354.334900,305.738129 349.698120,305.800995 
	C345.270599,305.860992 343.392273,308.891235 341.896240,312.435455 
	C337.041809,323.935822 332.287231,335.477844 327.479065,346.997406 
	C326.564545,349.188507 325.476715,351.146637 323.244934,352.755157 
	C320.958344,353.000000 318.916656,353.000000 316.437500,353.000000 
	C313.685608,351.379120 313.483673,348.976318 313.489532,346.443298 
	C313.511871,336.778320 313.514465,327.113220 313.488770,317.448212 
	C313.483002,315.283600 313.547211,313.103455 312.990570,310.985992 
	C312.451294,308.934723 311.472748,307.136597 309.069580,307.083221 
	C306.650391,307.029480 305.611359,308.790649 305.042328,310.841125 
	C304.411102,313.115509 304.462585,315.470428 304.488037,317.797455 
	C304.529663,321.607574 302.940369,323.585022 298.926025,323.492249 
	C295.430878,323.411499 291.929108,323.515961 288.430695,323.460205 
	C285.293732,323.410248 283.622742,321.906403 283.552124,318.652740 
	C283.494415,315.994781 283.674622,313.296600 282.919250,310.702301 
	C282.323914,308.657684 281.229065,306.961914 278.787384,307.087769 
	C276.632507,307.198822 275.659515,308.790161 275.101074,310.642731 
	C274.467438,312.744690 274.519409,314.927734 274.514191,317.092560 
	C274.490753,326.757874 274.518127,336.423370 274.490448,346.088562 
	C274.484009,348.335693 274.791412,350.762085 272.303040,352.698029 
	C265.645599,353.000000 259.291199,353.000000 252.468414,353.000000 
	C249.957581,351.323822 249.687500,349.842987 252.428391,348.610016 
	C253.948639,347.926147 255.407883,347.113647 256.651001,345.980896 
	C258.099335,344.661163 259.139191,343.103210 258.018494,341.157806 
	C256.868500,339.161591 254.960175,338.743195 252.811386,339.329376 
	C251.672913,339.639923 250.752777,340.414307 249.692108,340.883301 
	C244.612335,343.129333 239.709351,343.479340 235.328629,339.322540 
	C230.804764,335.029877 228.395142,330.037628 230.220749,323.657166 
	C231.955063,317.595764 236.025925,314.040680 242.118896,312.944366 
	C244.788574,312.463989 247.369339,313.467255 249.777237,314.674103 
	C251.286041,315.430328 252.805801,316.101990 254.544968,315.757385 
	C256.114410,315.446472 257.346558,314.634766 257.824554,313.039490 
	C258.253754,311.606964 257.620422,310.441254 256.629120,309.445496 
	C256.039154,308.852875 255.342285,308.398438 254.622360,307.974274 
	C245.402039,302.541443 230.293991,305.795380 224.459869,314.474762 
	C217.393631,324.987152 219.504059,339.158539 229.183167,346.204376 
	C230.530212,347.184967 231.976974,348.013611 233.351944,348.949677 
	C234.959946,350.044373 235.068527,351.252960 233.248199,352.751678 
	C218.645767,353.000000 204.291550,353.000000 189.468658,353.000000 
	C187.467728,351.865112 186.736267,350.304321 186.317352,348.465820 
	C185.457855,344.694031 182.845963,342.966949 179.125671,342.678589 
	C174.798889,342.343201 170.460571,342.641388 166.133163,342.449982 
	C161.726501,342.255096 160.592392,340.964355 160.557114,336.827301 
	C160.523987,332.944672 162.521530,331.521881 166.154068,331.507690 
	C169.815262,331.493378 173.497787,331.754059 177.134399,331.165985 
	C178.974808,330.868378 181.005600,330.331573 181.038040,328.034882 
	C181.070786,325.716858 179.042252,325.156830 177.202591,324.847900 
	C173.568268,324.237640 169.882172,324.640198 166.224197,324.457245 
	C161.663055,324.229156 160.619736,323.027374 160.549286,318.750000 
	C160.484558,314.820862 162.499664,313.418091 166.126663,313.465118 
	C170.289429,313.519073 174.466797,313.731995 178.610077,313.242523 
	C180.952744,312.965759 183.598373,312.444427 183.498154,309.353729 
	C183.410080,306.637299 180.990921,305.958557 178.794800,305.792267 
	C171.977005,305.275940 165.129456,305.196564 158.323593,305.793884 
	C153.586029,306.209656 151.776947,308.508789 151.617798,314.080353 
	C151.313263,324.741150 151.561981,335.409241 151.487274,346.073853 
	C151.471451,348.332520 151.797485,350.764282 149.299286,352.701416 
	C138.312439,353.000000 127.624878,353.000000 116.468658,353.000000 
	C112.880898,350.815216 113.524361,347.499908 113.515015,344.440979 
	C113.477249,332.086060 112.863647,332.454956 125.000618,332.472748 
	C126.829781,332.475433 128.673080,332.453796 130.432297,331.853210 
	C131.735596,331.408325 132.957809,330.750885 133.049698,329.188080 
	C133.158386,327.339325 131.816345,326.535645 130.316238,326.120514 
	C126.731537,325.128387 123.035873,325.497375 119.390091,325.510132 
	C115.512474,325.523651 113.527359,324.013672 113.512894,319.928314 
	C113.495270,314.952301 114.564186,313.657196 119.583679,313.512787 
	C123.738266,313.393219 127.913338,313.775574 132.045227,313.183258 
	C134.245895,312.867798 136.559601,312.190216 136.457550,309.383667 
	C136.368835,306.944214 134.279205,306.075592 132.237518,305.892120 
	C124.770813,305.221161 117.267769,305.123871 109.818893,305.906494 
	C105.515114,306.358673 103.786240,308.813324 103.622383,314.144867 
	C103.300369,324.622955 103.585426,335.108948 103.473236,345.590820 
	C103.447456,347.999176 103.935181,350.604858 101.299828,352.700928 
	C97.969406,353.000000 94.938812,353.000000 91.454109,353.000000 
	C88.488304,351.260925 88.486290,348.623505 88.490074,345.984772 
	C88.504166,336.173645 88.519997,326.362488 88.478729,316.551422 
	C88.469643,314.390991 88.493202,312.210236 87.724518,310.144165 
	C87.111473,308.496368 86.096191,307.170349 84.179832,307.089447 
	C82.001175,306.997467 80.883430,308.435394 80.228561,310.272919 
	C79.490532,312.343872 79.526176,314.527863 79.519035,316.688843 
	C79.486610,326.499878 79.517113,336.311035 79.492828,346.122009 
	C79.487297,348.357056 79.781334,350.769623 77.304886,352.696533 
	C74.629440,353.000000 72.258888,353.000000 69.444168,353.000000 
	C67.500763,351.852203 66.734993,350.330414 66.340042,348.478149 
	C65.534927,344.702209 62.946186,342.965149 59.222710,342.671143 
	C55.738506,342.396057 52.247383,342.492615 48.760468,342.483673 
	C45.120918,342.474365 43.521126,340.702576 43.510841,337.126984 
	C43.489807,329.816498 43.609200,322.504578 43.446739,315.195862 
	C43.319023,309.450134 41.652210,306.698181 38.536530,306.710663 
	C35.428463,306.723114 33.661903,309.531525 33.566963,315.187592 
	C33.394093,325.487030 33.537754,335.789215 33.489700,346.089966 
	C33.479218,348.336823 33.794937,350.765289 31.302086,352.698792 
	C22.010736,353.000000 13.019906,352.907959 4.033254,353.061127 
	C1.617779,353.102295 0.910644,352.626648 0.927189,350.038910 
	C1.058096,329.564178 1.000000,309.088287 1.000000,288.612732 
	C1.000000,198.054260 1.000000,107.495789 1.000000,16.468658 
	C2.128305,14.904369 3.074280,13.709167 5.019833,13.915123 
	C18.086630,15.298376 27.602898,21.670349 27.543488,36.668663 
	C27.405584,71.483261 27.389750,106.299362 27.561874,141.113693 
	C27.618629,152.592972 28.281773,164.091400 30.427170,175.408478 
	C36.998692,210.073563 56.763035,233.194031 91.078545,242.501236 
	C119.830124,250.299332 148.778214,250.121201 177.272827,240.839508 
	C199.311890,233.660645 213.879089,218.495209 221.995255,196.940826 
	C227.639923,181.950119 229.660721,166.280090 230.438446,150.427979 
	C231.932343,119.978409 231.335312,89.498375 231.579330,59.029831 
	C231.643097,51.066040 232.058685,43.048866 233.466187,35.171612 
	C235.282394,25.006882 240.949142,18.364105 251.375473,16.177872 
	C263.440857,13.647948 275.567261,13.658424 287.599854,15.853521 
	C298.104004,17.769777 304.066620,24.713074 305.510162,35.274368 
	C306.210571,40.398529 306.534027,45.525574 306.528900,50.704678 
	C306.480103,100.012238 306.469452,149.319916 306.540741,198.627426 
	C306.549225,204.484360 305.984802,210.299545 305.222809,216.041946 
	C303.907990,225.950638 298.780060,233.050674 288.418549,235.340866 
	C286.629150,235.736343 284.839691,236.158661 283.115356,237.610260 
	C282.228516,238.689087 281.768890,239.527344 282.885681,240.709503 
	C285.506866,242.551163 288.216522,242.465637 290.872498,242.471085 
	C314.534302,242.519653 338.196350,242.550034 361.857788,242.432373 
	C364.687836,242.418304 368.942963,243.296143 369.470917,239.565399 
	C370.031158,235.606522 365.557587,235.775894 362.887939,234.996902 
	C352.444580,231.949570 346.758240,224.514969 346.589783,212.102066 
	C346.311676,191.609497 346.442139,171.111191 346.554688,150.615814 
	C346.582764,145.506912 347.551361,144.506363 352.728394,144.559860 
	C367.586426,144.713409 382.373688,143.938538 397.017700,141.369705 
	C415.517487,138.124527 432.577606,131.733459 447.153992,119.292854 
	C470.728271,99.172768 476.848236,59.793381 459.829254,35.137131 
	C451.498444,23.067911 439.734161,15.898417 425.905304,11.840880 
	C412.006348,7.762778 397.744781,6.909774 383.358246,7.406447 
	C380.858765,7.492738 378.360565,7.496879 375.861633,7.497057 
	C316.540283,7.501276 257.218903,7.498342 197.897552,7.503951 
	C195.399475,7.504187 192.890350,7.378694 190.409882,7.742047 
	C188.585007,8.009367 186.483612,8.307318 186.266068,10.592563 
	C186.046326,12.901039 188.035187,13.645217 189.830200,14.088160 
	C192.747345,14.808004 195.607620,15.617133 198.385361,16.803041 
	C205.029587,19.639668 209.018845,24.595686 210.606003,31.575226 
	C212.798096,41.215046 213.231598,51.088566 213.362473,60.860870 
	C213.744019,89.350121 213.762573,117.851166 213.369141,146.340088 
	C213.208649,157.961288 211.989319,169.580017 209.068405,180.965286 
	C203.402496,203.050125 189.953171,218.289566 169.137619,227.177933 
	C152.683990,234.203720 135.469971,235.387650 118.150192,232.123413 
	C95.789307,227.909058 82.463188,213.364441 75.600616,192.273727 
	C72.168617,181.726196 70.641586,170.801590 70.582367,159.797318 
	C70.373428,120.972916 70.517357,82.146721 70.474236,43.321278 
	C70.469749,39.285439 70.931206,35.298767 71.812798,31.427757 
	C73.755371,22.898073 79.087975,17.481869 87.620590,15.120172 
	C90.152863,14.419278 94.190628,14.191417 93.585861,10.455990 
	C93.012054,6.911722 89.126778,7.587940 86.438408,7.572734 
	C60.610924,7.426657 34.782707,7.546498 8.954884,7.466510 
	C6.393543,7.458578 3.598529,8.063537 1.308071,5.309704 
	C-0.138402,0.702734 2.556358,0.964087 5.495877,0.964463 
	C302.684814,1.002475 599.873718,1.000000 897.531372,1.000000 
	C901.479370,4.507963 898.481018,5.044593 895.843933,5.462327 
	C887.608032,6.766924 879.485229,8.531244 871.494690,10.926082 
	C851.295654,16.979914 833.538330,27.330210 819.012573,42.534046 
	C804.442993,57.783825 795.185303,76.103775 790.818359,96.822807 
	C785.271179,123.141655 786.015625,149.148865 795.205688,174.572144 
	C807.267517,207.939957 831.294006,228.862991 864.362427,240.269241 
	C880.287048,245.762085 896.790283,248.218811 913.439392,248.314453 
	C951.216919,248.531494 986.141602,238.664917 1017.249573,216.591003 
	C1019.245850,215.174423 1021.098694,211.904160 1024.720825,214.722443 
	C1025.000000,259.345276 1024.924438,303.690857 1025.120972,348.035248 
	C1025.139893,352.304688 1024.165771,353.863617 1019.499512,353.000000 
	C1017.474365,351.861023 1016.733093,350.311615 1016.335388,348.462738 
	C1015.518860,344.667023 1012.914062,342.938263 1009.183228,342.670013 
	C1004.691101,342.347015 1000.190613,342.502716 995.695129,342.492676 
	C991.906372,342.484222 990.516663,340.562958 990.549622,336.983093 
	C990.580811,333.590546 991.850403,331.625519 995.492249,331.544220 
	C999.154419,331.462463 1002.830994,331.718964 1006.476501,331.265167 
	C1008.469055,331.017151 1010.871826,330.685059 1010.996094,328.197906 
	C1011.141541,325.287842 1008.516052,325.009918 1006.385559,324.734344 
	C1002.743713,324.263214 999.064209,324.541168 995.401917,324.452850 
	C991.712036,324.363892 990.579224,322.257324 990.546814,318.937439 
	C990.513550,315.533813 991.762573,313.534729 995.451111,313.527893 
	C998.949097,313.521454 1002.447937,313.538361 1005.945740,313.475281 
	C1007.777771,313.442230 1009.622131,313.443268 1011.386719,312.860107 
	C1013.055298,312.308655 1014.517334,311.432281 1014.460327,309.424957 
	C1014.403931,307.435791 1012.919250,306.339905 1011.230225,306.133820 
	C1002.945862,305.123077 994.595459,304.830505 986.368591,306.263885 
	C982.119995,307.004150 981.630493,310.960327 981.572754,314.591827 
	C981.406006,325.085541 981.548157,335.580902 981.487671,346.075195 
	C981.474670,348.331482 981.798401,350.763824 979.300049,352.700684 
z"/>
<path fill="#712C6B" opacity="1.000000" stroke="none" 
	d="
M1.000000,5.458069 
	C31.830002,5.000444 62.660084,4.973297 93.489830,5.062163 
	C95.590195,5.068218 99.236839,3.606978 98.879440,7.927649 
	C98.619339,11.072073 101.523361,15.988672 94.705078,16.311552 
	C91.665283,16.455500 88.636932,17.713160 85.687256,18.712826 
	C78.866341,21.024490 74.401474,27.001982 74.011414,34.250671 
	C71.728516,76.674736 73.205490,119.132828 73.244743,161.570175 
	C73.257156,174.988434 75.927498,188.344208 81.836998,200.879562 
	C89.347404,216.810806 101.734261,226.392136 118.638710,229.614441 
	C136.552368,233.029114 154.198395,231.317612 170.958878,223.522675 
	C192.315781,213.590073 204.028763,196.440796 207.966141,173.618866 
	C209.992584,161.873276 211.018631,150.022293 211.007339,138.087570 
	C210.983368,112.756989 211.322067,87.420235 210.840118,62.098812 
	C210.649551,52.086662 210.152771,41.977032 208.047791,32.056076 
	C206.080032,22.781776 199.532425,18.762989 190.032532,17.024258 
	C188.898087,16.816620 187.692734,16.978661 186.566833,16.744963 
	C181.476959,15.688493 179.482956,11.924205 181.064957,6.809194 
	C181.512833,5.361092 182.420319,5.069924 183.649918,5.045193 
	C185.315765,5.011686 186.982330,5.001002 188.648590,5.000954 
	C251.641785,4.999135 314.636322,5.222987 377.627258,4.846493 
	C393.844574,4.749563 409.881531,4.679482 425.659729,8.957779 
	C452.973419,16.363928 471.842957,37.325783 472.162079,67.245789 
	C472.390808,88.689232 464.726318,106.396446 449.499847,120.754082 
	C436.580078,132.936676 420.470276,139.345001 403.243011,142.968811 
	C387.293274,146.323944 371.131409,147.421906 354.875519,146.928650 
	C350.554260,146.797531 348.805695,147.720825 348.879730,152.582794 
	C349.174164,171.909561 348.782898,191.247101 349.106476,210.572937 
	C349.240448,218.574921 350.669312,226.619751 358.860016,230.845566 
	C362.965088,232.963501 367.702332,233.283325 372.242157,234.008652 
	C377.341553,234.823410 374.280151,238.730759 374.900787,241.173676 
	C375.431091,243.260910 374.884583,245.029633 371.915833,245.014252 
	C340.765106,244.852951 309.613983,244.771973 278.171295,244.347656 
	C277.116028,241.320450 277.650024,238.559814 277.706512,235.400345 
	C280.153900,233.468826 282.859802,233.388931 285.382355,233.084961 
	C297.050873,231.678909 302.280823,225.737122 302.847717,213.439499 
	C305.432892,157.358429 303.546478,101.229492 303.813904,45.121517 
	C303.847260,38.129070 303.541443,30.687946 298.384552,24.533535 
	C295.237640,20.777887 291.118713,19.005377 286.984222,18.308500 
	C274.687195,16.235830 262.277161,16.103943 250.020599,19.111656 
	C242.006897,21.078190 237.507339,26.707647 236.232147,34.348412 
	C234.877945,42.462585 234.196335,50.766117 234.095856,58.997639 
	C233.819275,81.656097 234.694870,104.347839 233.792816,126.973709 
	C232.992661,147.043777 233.511719,167.287018 228.096252,187.037308 
	C221.549042,210.915100 208.874390,229.713196 185.992661,240.425446 
	C176.104980,245.054459 165.496796,247.498764 154.663071,249.042007 
	C141.735275,250.883545 128.681442,250.695404 115.839546,249.762314 
	C88.271881,247.759216 63.315071,238.786819 45.225742,216.533463 
	C34.603230,203.465729 28.748934,187.916748 27.103910,171.235092 
	C22.669088,126.262939 25.947748,81.133461 25.005671,36.083458 
	C24.845177,28.408718 22.336388,22.144869 14.774053,18.955704 
	C10.650358,17.216673 6.208979,16.714329 1.415810,16.002113 
	C1.000000,12.638713 1.000000,9.277426 1.000000,5.458069 
z"/>
<path fill="#000000" opacity="1.000000" stroke="none" 
	d="
M954.717468,1.284423 
	C976.799072,1.000000 998.598755,1.086163 1020.396484,0.913364 
	C1023.940735,0.885269 1025.121216,1.392347 1025.112061,5.383289 
	C1024.955933,73.276146 1025.000000,141.169464 1025.000000,209.531342 
	C1023.553162,211.774384 1022.169922,212.122711 1020.641296,210.013367 
	C1018.391663,206.908890 1016.307861,203.700058 1014.252380,200.467072 
	C1010.457275,194.497986 1008.015930,194.119247 1002.961426,199.236267 
	C988.331238,214.047607 970.815186,223.505966 950.332275,226.862885 
	C927.534180,230.599213 905.175964,229.359177 884.126587,218.487579 
	C864.393372,208.295685 850.973999,192.336166 843.243225,171.868729 
	C831.233704,140.072983 829.068237,107.438576 839.581421,74.933884 
	C850.162659,42.218414 874.421631,25.268316 907.767334,20.591124 
	C925.772095,18.065718 943.676208,19.513943 961.275208,23.865173 
	C972.681824,26.685375 983.214050,31.494967 992.497742,38.973583 
	C999.569763,44.670486 1004.449768,51.831707 1008.403198,59.836037 
	C1009.670166,62.401291 1010.625549,66.268021 1014.393860,65.464005 
	C1018.214722,64.648766 1017.396301,60.735191 1017.440430,57.882702 
	C1017.584839,48.557011 1017.561584,39.227722 1017.469055,29.900801 
	C1017.393677,22.308270 1016.030518,20.280918 1008.874939,17.710808 
	C992.354553,11.777020 975.306396,8.006574 957.956238,5.471913 
	C956.045227,5.192733 951.889893,6.183475 954.717468,1.284423 
z"/>
<path fill="#712C6B" opacity="1.000000" stroke="none" 
	d="
M954.531372,1.000000 
	C955.014832,3.865164 957.246460,2.798321 958.654907,2.972545 
	C979.014648,5.490886 998.651917,10.809103 1017.808289,18.051229 
	C1019.825378,18.813797 1019.992493,20.287167 1019.991943,22.014797 
	C1019.987183,36.838657 1019.991333,51.662518 1019.981323,66.486374 
	C1019.980225,68.174522 1020.016724,70.349541 1017.590576,69.856773 
	C1014.589600,69.247231 1010.537170,72.430786 1008.656494,67.374107 
	C1006.292175,61.017189 1003.273743,55.036587 999.147705,49.533508 
	C992.041992,40.056477 982.358704,34.419247 971.729736,30.073908 
	C960.640747,25.540539 948.977844,24.004793 937.095642,22.808281 
	C921.550659,21.242943 906.473999,22.352203 891.610901,26.962076 
	C876.038208,31.792051 862.778809,40.087189 853.257690,53.551697 
	C843.524780,67.315758 838.558105,82.775703 836.902222,99.556404 
	C834.562378,123.268036 836.570923,146.342285 844.905640,168.778870 
	C856.522095,200.049820 878.718506,219.129654 911.473450,224.735260 
	C933.729004,228.544022 955.691528,225.850189 976.207947,215.770905 
	C987.898010,210.027756 997.778625,201.671417 1006.445984,191.972565 
	C1009.085571,189.018799 1010.295837,189.338181 1012.481506,192.657394 
	C1016.360779,198.548615 1019.428833,205.011169 1024.652344,210.116180 
	C1025.000000,211.388885 1025.000000,212.777786 1025.000000,214.583344 
	C1018.648682,217.489899 1013.779968,222.328445 1007.991455,225.760193 
	C989.196106,236.902924 969.278442,244.628098 947.662964,248.102997 
	C935.541931,250.051575 923.380493,251.377747 911.133179,250.939667 
	C881.231079,249.870102 853.019897,243.016251 828.606873,224.743973 
	C812.054504,212.355057 800.490967,196.108215 793.029602,176.830688 
	C785.335449,156.951736 783.636902,136.207535 785.206116,115.331047 
	C787.055237,90.731262 794.832642,67.917984 810.406921,48.339676 
	C823.649231,31.692772 840.518616,19.838947 860.260193,12.064387 
	C871.953125,7.459489 883.986389,4.111063 896.545837,2.858475 
	C897.085022,2.804703 897.567261,2.180396 898.037964,1.410929 
	C916.687561,1.000000 935.375122,1.000000 954.531372,1.000000 
z"/>
<path fill="#712C6B" opacity="1.000000" stroke="none" 
	d="
M654.464661,353.000000 
	C654.000671,338.027466 654.101379,323.053802 653.931641,308.083191 
	C653.889282,304.343201 654.981445,303.521301 658.817200,302.763336 
	C669.583618,300.635803 672.056213,308.776459 676.060059,315.259644 
	C677.162659,317.045044 678.034851,318.972412 680.053589,320.648682 
	C682.784058,316.229309 685.733582,312.055481 688.030884,307.549072 
	C689.900696,303.881165 692.416626,302.803833 696.369202,302.915833 
	C707.073853,303.219299 705.975769,301.910736 705.973267,312.639465 
	C705.970154,325.787689 705.851501,338.935913 705.891418,352.542053 
	C701.310730,353.000000 696.621521,353.000000 691.466125,353.000000 
	C688.971313,351.459717 688.415955,349.385559 688.469910,346.908020 
	C688.545532,343.436371 688.625793,339.954437 688.394531,336.283112 
	C686.439148,338.767334 685.129578,341.477142 683.148376,343.693878 
	C680.333801,346.843292 678.482361,346.888336 676.019531,343.613403 
	C673.917725,340.818573 671.898010,337.938934 670.395752,334.977570 
	C670.619019,339.072998 670.411133,343.391327 670.507019,347.705475 
	C670.550354,349.656372 669.989929,351.251251 668.246765,352.752869 
	C663.643127,353.000000 659.286194,353.000000 654.464661,353.000000 
z"/>
<path fill="#712C6B" opacity="1.000000" stroke="none" 
	d="
M521.464661,353.000000 
	C521.000549,338.047058 521.088257,323.093231 520.938904,308.141815 
	C520.902649,304.518005 521.685852,303.294250 525.750122,302.771545 
	C533.043152,301.833618 536.468262,306.069183 540.042969,310.920868 
	C543.829773,316.060455 547.778259,321.080963 553.000000,326.019135 
	C553.000000,321.393524 552.999878,316.767914 553.000061,312.142303 
	C553.000305,302.881165 555.478210,301.037842 564.750916,303.006134 
	C567.177185,303.521179 566.978821,305.088654 566.974731,306.701691 
	C566.936462,321.828003 566.864258,336.954193 566.900940,352.540222 
	C562.975464,353.000000 558.950928,353.000000 554.463196,353.000000 
	C546.677063,349.214996 543.371216,341.649780 537.598389,335.604523 
	C537.406250,339.674866 537.516602,343.371613 537.505066,347.059357 
	C537.498535,349.149261 537.355957,351.145508 535.238708,352.760254 
	C530.643127,353.000000 526.286194,353.000000 521.464661,353.000000 
z"/>
<path fill="#712C6B" opacity="1.000000" stroke="none" 
	d="
M923.464661,353.000000 
	C923.001587,337.845123 923.087891,322.689453 922.939880,307.536041 
	C922.906616,304.131958 923.850708,302.966309 927.407532,302.882385 
	C932.821228,302.754608 937.097595,303.374664 940.433960,308.657837 
	C944.339844,314.842957 949.453125,320.265564 954.513000,326.608459 
	C955.461243,320.094727 955.061829,314.172638 954.902039,308.312012 
	C954.791565,304.262695 955.858337,302.732788 960.147217,302.909241 
	C970.556396,303.337433 968.918274,301.734161 968.966370,311.594360 
	C969.032166,325.089142 968.867615,338.585022 968.900879,352.540222 
	C964.975464,353.000000 960.950928,353.000000 956.463196,353.000000 
	C949.258850,348.947510 945.836060,341.707397 939.925354,335.789185 
	C939.179688,340.099060 939.629517,343.726471 939.501770,347.312897 
	C939.430847,349.303864 939.384766,351.270752 937.234741,352.763916 
	C932.643127,353.000000 928.286194,353.000000 923.464661,353.000000 
z"/>
<path fill="#712C6B" opacity="1.000000" stroke="none" 
	d="
M384.463196,353.000000 
	C384.000580,338.036682 384.094208,323.072357 383.935364,308.110718 
	C383.896362,304.437073 384.736816,303.232056 388.788177,302.777954 
	C395.300323,302.048035 398.746002,305.246765 402.062500,309.886475 
	C406.056366,315.473694 410.385773,320.820984 414.569916,326.272156 
	C415.046661,326.192078 415.523407,326.112030 416.000153,326.031952 
	C416.000153,320.884766 415.845428,315.730865 416.067261,310.593262 
	C416.173798,308.125336 414.531738,304.326080 417.428436,303.460083 
	C420.932251,302.412567 425.004395,302.986938 428.793884,303.301636 
	C430.478546,303.441528 429.967041,305.447144 429.965240,306.670197 
	C429.942841,321.806976 429.865356,336.943695 429.901031,352.540222 
	C425.975464,353.000000 421.950897,353.000000 417.463196,353.000000 
	C409.101379,349.018585 405.870392,340.656830 399.521362,334.523376 
	C399.474152,338.886078 399.488647,342.966309 399.503601,347.043762 
	C399.511292,349.141937 399.371002,351.139740 397.241150,352.758179 
	C392.975464,353.000000 388.950897,353.000000 384.463196,353.000000 
z"/>
<path fill="#712C6B" opacity="1.000000" stroke="none" 
	d="
M765.468628,353.000000 
	C765.001038,337.887634 765.117981,322.773804 764.921509,307.664001 
	C764.872375,303.882477 766.092346,302.830475 769.757935,302.921509 
	C779.309082,303.158661 789.015991,302.410339 797.971680,306.552612 
	C808.052856,311.215485 811.917786,318.961975 810.983521,331.354279 
	C810.348877,339.771149 803.174377,348.147827 794.320007,350.826294 
	C793.125244,351.187714 791.547241,350.624878 790.929688,352.617493 
	C782.645752,353.000000 774.291504,353.000000 765.468628,353.000000 
z"/>
<path fill="#712C6B" opacity="1.000000" stroke="none" 
	d="
M716.468628,353.000000 
	C716.001221,337.833832 716.092346,322.666748 715.935669,307.502197 
	C715.899780,304.030884 716.952942,302.876709 720.464233,302.945038 
	C730.626709,303.142944 740.804810,303.274841 750.958313,302.913727 
	C756.704590,302.709381 755.914551,306.246490 756.020447,309.767059 
	C756.130066,313.412872 756.105957,316.407776 750.933228,316.082031 
	C745.123474,315.716187 739.272034,316.042480 733.439331,315.995239 
	C731.330811,315.978149 729.983398,316.372314 729.981567,318.975769 
	C729.979736,321.537140 731.239319,322.034088 733.390869,322.006104 
	C738.056519,321.945435 742.754456,322.332672 747.381592,321.908112 
	C752.208252,321.465210 753.630066,323.470490 753.015442,327.841003 
	C752.900513,328.658539 752.917358,329.513397 753.004395,330.337158 
	C753.308777,333.216492 751.940918,334.101929 749.206970,334.029816 
	C744.044250,333.893616 738.874573,334.045746 733.708862,333.984497 
	C731.422607,333.957428 729.899048,334.299866 729.975952,337.206451 
	C730.048950,339.965057 731.674561,339.999420 733.619263,339.995850 
	C739.452393,339.985077 745.300415,340.254669 751.113586,339.916168 
	C755.236206,339.676117 756.414917,341.295959 756.041443,345.076874 
	C755.813171,347.387634 755.998657,349.739227 755.999146,352.536255 
	C742.979126,353.000000 729.958191,353.000000 716.468628,353.000000 
z"/>
<path fill="#712C6B" opacity="1.000000" stroke="none" 
	d="
M979.468628,353.000000 
	C979.000916,338.028931 979.099548,323.056732 978.933228,308.087524 
	C978.892334,304.406799 979.615784,302.787109 983.792786,302.913605 
	C993.930603,303.220642 1004.089172,303.210602 1014.228821,302.936768 
	C1019.598999,302.791779 1018.996277,306.147400 1019.004761,309.518097 
	C1019.013306,312.909576 1019.559387,316.351440 1014.203735,316.064087 
	C1008.564331,315.761505 1002.895935,316.004395 997.240173,316.003387 
	C995.042786,316.003021 992.886047,315.723541 992.974609,319.164215 
	C993.056458,322.346191 995.099243,321.976837 997.065918,321.987244 
	C1002.056152,322.013641 1007.051697,322.141785 1012.034912,321.955505 
	C1015.082825,321.841553 1016.331787,322.943115 1016.016479,325.975250 
	C1015.879578,327.291748 1015.886230,328.644867 1016.015442,329.962921 
	C1016.305359,332.918915 1015.212708,334.161224 1012.092407,334.043732 
	C1006.943237,333.849823 1001.781067,334.009521 996.624390,334.002655 
	C994.693054,334.000092 993.051392,334.015228 992.976379,336.776703 
	C992.898010,339.657684 994.377502,340.043304 996.682007,340.014038 
	C1002.004150,339.946411 1007.327759,339.993561 1012.650818,340.002228 
	C1018.987793,340.012573 1018.988647,340.016235 1018.999207,346.583099 
	C1019.002136,348.412903 1018.998779,350.242706 1018.999146,352.536255 
	C1005.979126,353.000000 992.958191,353.000000 979.468628,353.000000 
z"/>
<path fill="#712C6B" opacity="1.000000" stroke="none" 
	d="
M149.468658,353.000000 
	C149.001251,337.841095 149.089325,322.681305 148.937973,307.523926 
	C148.903488,304.070984 149.941788,302.876892 153.463409,302.946289 
	C163.454407,303.143280 173.453934,303.130829 183.445541,302.949707 
	C186.817978,302.888550 188.172104,303.768524 188.065323,307.383728 
	C187.760666,317.697449 188.954590,315.801758 179.672745,315.985748 
	C175.176727,316.074890 170.676361,316.080292 166.180603,315.990295 
	C163.823669,315.943115 162.950241,316.860718 162.989563,319.233582 
	C163.027954,321.550629 164.214722,322.008545 166.145630,321.994934 
	C170.976166,321.960876 175.834961,322.319122 180.630035,321.908386 
	C185.248947,321.512756 186.630417,323.367828 186.019150,327.584351 
	C185.877151,328.563904 185.909149,329.587738 186.000320,330.578369 
	C186.243927,333.225189 184.988464,334.068268 182.469849,334.018524 
	C177.141541,333.913269 171.809174,334.033447 166.478973,333.993408 
	C164.406540,333.977814 162.986771,334.294464 162.982315,336.931915 
	C162.978058,339.451874 164.153061,340.031403 166.344589,340.007843 
	C172.007614,339.946899 177.683899,340.225891 183.331665,339.928223 
	C187.687012,339.698669 189.549057,341.201233 189.033920,345.617126 
	C188.784241,347.757385 188.866699,349.936432 188.899384,352.548950 
	C175.979111,353.000000 162.958206,353.000000 149.468658,353.000000 
z"/>
<path fill="#712C6B" opacity="1.000000" stroke="none" 
	d="
M591.468567,353.000000 
	C591.364380,350.522064 589.057495,350.691498 587.824158,349.978851 
	C577.057434,343.757812 574.672485,334.191772 575.260376,326.419556 
	C576.138184,314.814331 582.439087,306.469208 594.015442,303.676331 
	C602.331299,301.670074 610.804138,302.296356 618.384399,307.161987 
	C620.378113,308.441742 621.562317,309.673920 619.530151,312.286987 
	C618.110291,314.112732 616.165405,315.589600 615.187134,317.662415 
	C613.890747,320.409424 612.739685,319.709351 610.652161,318.417969 
	C603.119690,313.758087 593.412415,315.094696 590.824158,323.482849 
	C589.449524,327.937805 589.229919,332.137238 592.502686,336.062134 
	C596.205383,340.502655 600.891296,341.796997 606.281677,340.705383 
	C608.401489,340.276154 610.282410,339.072998 609.966858,336.219452 
	C609.598450,332.888641 607.056885,334.376251 605.364197,334.013245 
	C603.667114,333.649292 601.105408,334.915894 600.409180,332.872894 
	C599.456909,330.078339 599.692749,326.931915 600.377075,323.999512 
	C600.630249,322.914612 602.008301,323.032959 602.988708,323.029175 
	C608.648071,323.007324 614.308716,323.083588 619.966614,322.987366 
	C622.481995,322.944611 623.040649,324.214508 623.008484,326.394653 
	C622.937256,331.220856 622.713440,336.070496 623.082153,340.869843 
	C623.418823,345.251434 621.674988,347.644348 617.726135,349.182373 
	C615.978027,349.863220 613.893494,350.405029 612.897644,352.644348 
	C605.979065,353.000000 598.958069,353.000000 591.468567,353.000000 
z"/>
<path fill="#712C6B" opacity="1.000000" stroke="none" 
	d="
M454.468567,353.000000 
	C454.534241,351.296661 453.050568,351.033569 452.114655,350.618225 
	C437.050476,343.933899 435.142761,323.348877 444.223938,311.451202 
	C447.572357,307.064240 452.409393,304.229858 457.527161,303.411469 
	C465.715942,302.101929 474.065094,302.252106 481.495453,307.202576 
	C484.029938,308.891144 484.196960,310.740051 482.453461,312.929291 
	C481.120056,314.603577 479.540375,316.031891 478.431793,317.947723 
	C477.470886,319.608368 476.095520,320.392761 473.982697,318.680267 
	C471.226776,316.446533 467.837402,315.885834 464.185089,315.907867 
	C458.907257,315.939728 455.807770,318.494507 454.084625,323.133148 
	C451.913116,328.978729 452.989716,333.823181 457.168884,337.653595 
	C460.738831,340.925629 466.792603,341.920990 470.565308,340.180817 
	C472.645355,339.221405 473.148376,337.808441 472.909119,335.802338 
	C472.634430,333.499512 470.806213,334.113068 469.440826,334.025299 
	C463.339691,333.633209 461.521423,330.997009 463.036499,325.009949 
	C463.482269,323.248383 464.547943,323.028992 465.943207,323.025940 
	C471.606262,323.013458 477.270325,323.080658 482.931946,322.989777 
	C485.418945,322.949860 486.039337,324.181885 486.006714,326.384033 
	C485.935181,331.213226 485.707092,336.066772 486.083130,340.868103 
	C486.427429,345.264282 484.656250,347.638031 480.718536,349.185059 
	C478.971558,349.871368 476.880005,350.401093 475.891907,352.645050 
	C468.979034,353.000000 461.958099,353.000000 454.468567,353.000000 
z"/>
<path fill="#712C6B" opacity="1.000000" stroke="none" 
	d="
M272.464661,353.000000 
	C272.001160,337.846558 272.087891,322.692291 271.937988,307.540344 
	C271.904144,304.120239 272.872162,302.930878 276.424377,302.930664 
	C285.998169,302.930084 285.998199,302.767334 285.999664,312.293579 
	C286.001007,321.006104 286.001221,321.044037 294.744171,320.989502 
	C302.830688,320.939087 301.899048,321.853729 302.000031,313.804688 
	C302.004211,313.471436 302.000549,313.138123 302.000641,312.804840 
	C302.003265,302.201447 301.997070,302.302765 312.663513,302.956543 
	C315.351929,303.121338 316.037354,304.157898 316.017883,306.599274 
	C315.897064,321.759216 315.864288,336.919891 315.901123,352.540161 
	C311.643097,353.000000 307.286194,353.000000 302.464661,353.000000 
	C300.146484,351.571045 299.307678,349.701874 299.501984,347.357361 
	C299.556793,346.696014 299.507050,346.025360 299.482849,345.359619 
	C299.266205,339.395050 297.592163,336.905823 293.865265,336.999390 
	C290.335480,337.088013 288.745880,339.502808 288.521973,345.129425 
	C288.482208,346.127930 288.442810,347.130005 288.473541,348.126312 
	C288.528748,349.915192 287.905426,351.362213 286.258026,352.741882 
	C281.643097,353.000000 277.286194,353.000000 272.464661,353.000000 
z"/>
<path fill="#712C6B" opacity="1.000000" stroke="none" 
	d="
M323.466125,353.000000 
	C324.612671,344.330872 329.199066,336.777069 332.206207,328.628754 
	C334.826904,321.527466 338.249786,314.721619 340.854492,307.615234 
	C342.074585,304.286530 343.615448,302.888763 347.252472,302.922394 
	C356.774323,303.010406 356.698822,302.885162 360.570038,312.055725 
	C365.640076,324.066223 370.832306,336.025299 376.014130,347.988251 
	C376.618317,349.383087 377.296600,350.694611 376.854797,352.625793 
	C372.310760,353.000000 367.621490,353.000000 362.466125,353.000000 
	C361.037109,351.873444 359.582123,351.350555 358.620667,350.212311 
	C353.239929,343.841980 346.542664,343.722107 341.290436,349.930206 
	C340.449646,350.923981 339.313232,351.557617 338.235596,352.763672 
	C333.310760,353.000000 328.621490,353.000000 323.466125,353.000000 
z"/>
<path fill="#712C6B" opacity="1.000000" stroke="none" 
	d="
M101.466118,353.000000 
	C101.000053,338.353119 101.187325,323.702484 100.895973,309.061401 
	C100.797462,304.110962 102.547783,302.772430 107.236649,302.923279 
	C116.554878,303.222992 125.898056,303.249298 135.213852,302.914093 
	C139.995361,302.742004 141.584091,304.555664 141.019409,309.013306 
	C140.873962,310.161346 140.908173,311.349274 141.003250,312.507111 
	C141.213394,315.066071 140.153275,316.081757 137.545868,316.024445 
	C132.051895,315.903656 126.552582,315.950134 121.056770,316.024780 
	C118.739449,316.056213 115.992065,315.142120 115.921921,319.360413 
	C115.847069,323.862030 118.774673,322.945831 121.280579,322.981506 
	C125.610535,323.043213 129.946045,323.120392 134.271225,322.966492 
	C137.070374,322.866913 138.272568,323.902924 138.013031,326.718201 
	C137.891220,328.039398 137.873871,329.394684 138.019485,330.711243 
	C138.372498,333.903290 137.175232,335.343140 133.838959,335.032654 
	C131.692337,334.832886 129.511688,335.000122 127.346298,335.000244 
	C116.008720,335.000885 116.018181,335.000610 115.991409,346.096405 
	C115.986595,348.091644 115.867859,350.086639 115.900864,352.540863 
	C111.310745,353.000000 106.621490,353.000000 101.466118,353.000000 
z"/>
<path fill="#712C6B" opacity="1.000000" stroke="none" 
	d="
M233.468277,353.000000 
	C233.361160,350.524109 231.053604,350.702057 229.822968,349.979462 
	C220.786026,344.673065 217.107071,336.746979 217.758820,326.445465 
	C218.518585,314.437164 224.564514,306.270508 236.152054,303.641327 
	C245.754791,301.462494 255.360596,302.226868 262.435211,310.878845 
	C263.736176,312.469910 264.274384,313.262512 262.086090,314.605255 
	C259.720123,316.056976 257.643951,318.027039 255.593277,319.934265 
	C253.304779,322.062714 252.413300,319.663116 251.157120,318.688904 
	C242.571518,312.030304 234.448196,316.674133 232.328903,325.332001 
	C231.240906,329.776794 234.233475,336.229431 238.721451,338.858521 
	C242.424850,341.027954 247.363861,340.409912 250.815781,336.515198 
	C253.248398,333.770508 255.099091,334.489594 257.438049,336.093872 
	C265.737549,341.786560 265.785095,342.705719 257.613220,348.809235 
	C255.818405,350.149780 253.753601,351.128845 251.906570,352.637207 
	C245.978851,353.000000 239.957703,353.000000 233.468277,353.000000 
z"/>
<path fill="#712C6B" opacity="1.000000" stroke="none" 
	d="
M859.468262,353.000000 
	C859.364746,350.522186 857.046875,350.724731 855.825989,349.974945 
	C847.332642,344.758514 842.562317,335.412842 843.444336,326.963593 
	C844.686523,315.064209 850.114685,306.360168 862.053833,303.676361 
	C871.681885,301.512085 881.265991,302.169678 888.350464,310.811920 
	C889.537170,312.259491 890.544189,313.114502 888.167969,314.541870 
	C885.789856,315.970398 883.721985,317.957001 881.652527,319.846313 
	C879.457825,321.850098 878.470398,319.755920 877.154175,318.711761 
	C868.675293,311.985687 860.369019,316.815338 858.328125,325.323242 
	C857.259094,329.779480 860.215393,336.205017 864.716003,338.855499 
	C868.412292,341.032318 873.357300,340.414276 876.811218,336.517853 
	C879.254211,333.761841 881.044250,334.492523 883.415161,336.138824 
	C891.807495,341.966278 891.864441,342.656342 883.613159,348.809021 
	C881.816956,350.148376 879.752991,351.128723 877.906189,352.637207 
	C871.978821,353.000000 865.957703,353.000000 859.468262,353.000000 
z"/>
<path fill="#712C6B" opacity="1.000000" stroke="none" 
	d="
M31.468658,353.000000 
	C30.997850,338.353027 31.128075,323.704102 30.912849,309.060272 
	C30.848324,304.669800 31.878263,302.716309 36.729103,302.920685 
	C47.628468,303.379852 45.844131,301.671417 45.980072,312.238861 
	C46.080753,320.065735 46.122826,327.897644 45.946598,335.721802 
	C45.874516,338.922119 46.840973,340.208862 50.175343,340.053040 
	C54.994793,339.827789 59.838573,340.144867 64.660980,339.953552 
	C67.786964,339.829559 69.360764,340.695038 69.032326,344.111603 
	C68.778267,346.754425 68.863571,349.429840 68.899002,352.545410 
	C56.645771,353.000000 44.291542,353.000000 31.468658,353.000000 
z"/>
<path fill="#712C6B" opacity="1.000000" stroke="none" 
	d="
M820.466125,353.000000 
	C819.999939,338.067566 820.082336,323.134308 819.940247,308.203247 
	C819.905884,304.596161 820.550781,302.852020 824.788513,302.906586 
	C834.996216,303.038086 835.024475,302.814697 834.993042,313.239410 
	C834.954041,326.186493 834.867737,339.133423 834.901001,352.540222 
	C830.310730,353.000000 825.621521,353.000000 820.466125,353.000000 
z"/>
<path fill="#712C6B" opacity="1.000000" stroke="none" 
	d="
M496.464661,353.000000 
	C496.000580,338.044800 496.094452,323.088623 495.935394,308.135132 
	C495.896179,304.448151 496.658417,302.824768 500.834198,302.908661 
	C509.994507,303.092651 510.023834,302.859039 509.993866,312.182404 
	C509.951111,325.481812 509.867920,338.781097 509.901001,352.540222 
	C505.643097,353.000000 501.286194,353.000000 496.464661,353.000000 
z"/>
<path fill="#712C6B" opacity="1.000000" stroke="none" 
	d="
M77.464645,353.000000 
	C77.000648,338.044708 77.094704,323.088440 76.935539,308.134857 
	C76.896294,304.447174 77.659592,302.825043 81.834770,302.908905 
	C90.995979,303.092865 91.025360,302.859375 90.995239,312.182007 
	C90.952271,325.481506 90.868774,338.780853 90.901291,352.540131 
	C86.643097,353.000000 82.286201,353.000000 77.464645,353.000000 
z"/>
<path fill="#712C6B" opacity="1.000000" stroke="none" 
	d="
M898.464661,353.000000 
	C898.000366,338.049591 898.090149,323.098297 897.937073,308.149475 
	C897.899719,304.504639 898.577576,302.753906 902.798706,302.924988 
	C913.829651,303.372162 911.890015,301.610352 911.962463,312.195404 
	C912.053467,325.489349 911.868469,338.785248 911.901245,352.540161 
	C907.643127,353.000000 903.286194,353.000000 898.464661,353.000000 
z"/>
<path fill="#000000" opacity="1.000000" stroke="none" 
	d="
M668.468628,353.000000 
	C668.000000,344.904907 668.000000,336.809784 668.000000,327.311646 
	C671.739746,332.720001 674.954895,336.814392 677.529175,341.278381 
	C679.392761,344.510010 680.459229,343.511658 681.893799,341.263794 
	C684.529236,337.134064 687.152588,332.996582 689.781006,328.862335 
	C690.252747,328.919434 690.724487,328.976532 691.196228,329.033630 
	C691.196228,336.715790 691.196228,344.397949 691.098145,352.540039 
	C683.645752,353.000000 676.291504,353.000000 668.468628,353.000000 
z"/>
<path fill="#000000" opacity="1.000000" stroke="none" 
	d="
M286.466858,353.000000 
	C286.001892,348.038269 286.110687,343.073425 285.964355,338.116058 
	C285.880737,335.283081 286.613892,334.038544 289.797913,333.928162 
	C301.999939,333.504944 301.986542,333.386993 302.009460,345.627991 
	C302.013489,347.779114 302.132324,349.930054 302.099060,352.540527 
	C296.977905,353.000000 291.955811,353.000000 286.466858,353.000000 
z"/>
<path fill="#000000" opacity="1.000000" stroke="none" 
	d="
M397.468384,353.000000 
	C397.000000,344.924103 397.000000,336.848175 397.000000,327.590698 
	C405.032471,335.681122 410.618042,344.458496 417.138672,352.661255 
	C410.645599,353.000000 404.291199,353.000000 397.468384,353.000000 
z"/>
<path fill="#000000" opacity="1.000000" stroke="none" 
	d="
M937.468262,353.000000 
	C937.000000,345.081116 937.000000,337.162201 937.000000,329.243317 
	C944.260376,336.433533 950.707397,344.009521 956.135376,352.655426 
	C949.978821,353.000000 943.957703,353.000000 937.468262,353.000000 
z"/>
<path fill="#000000" opacity="1.000000" stroke="none" 
	d="
M535.468262,353.000000 
	C535.000000,345.254852 535.000000,337.509705 535.000000,329.764557 
	C535.366943,329.588898 535.733887,329.413269 536.100830,329.237610 
	C542.158813,336.931702 548.216736,344.625793 554.137329,352.659943 
	C547.978821,353.000000 541.957703,353.000000 535.468262,353.000000 
z"/>
<path fill="#000000" opacity="1.000000" stroke="none" 
	d="
M338.468628,353.000000 
	C337.682861,350.220490 339.332123,348.005920 340.173828,345.566589 
	C340.839813,343.636414 342.207642,342.846161 344.369476,342.958771 
	C347.848572,343.139984 351.353943,343.164337 354.829865,342.953278 
	C357.783966,342.773926 359.454437,343.724670 360.103516,346.745117 
	C360.511719,348.644653 361.492279,350.421173 362.108032,352.626465 
	C354.312408,353.000000 346.624847,353.000000 338.468628,353.000000 
z"/>
<path fill="#712C6B" opacity="1.000000" stroke="none" 
	d="
M619.691284,169.307251 
	C621.342041,173.258896 622.796448,176.876511 624.716980,181.653427 
	C628.059937,174.189651 631.012146,167.804642 633.794250,161.346344 
	C640.705078,145.303802 647.535400,129.226593 654.403442,113.165558 
	C663.286499,92.392189 672.116821,71.595993 681.080933,50.857635 
	C687.231323,36.628761 693.654846,22.517429 699.732727,8.258265 
	C700.614624,6.189210 701.748352,6.004880 703.462280,6.005459 
	C726.126465,6.013119 748.790894,6.070983 771.454651,5.966658 
	C776.457458,5.943628 774.783752,9.452329 774.949158,11.903223 
	C775.122192,14.467504 775.673828,16.994312 771.258362,17.119301 
	C759.086426,17.463856 752.515808,23.869911 750.960510,35.849632 
	C748.829285,52.265659 750.496521,68.745758 750.022705,85.189781 
	C749.414062,106.311470 751.056519,127.399834 751.239746,148.519684 
	C751.366028,163.068161 752.471924,177.652863 753.073242,192.225830 
	C753.413513,200.473770 754.249512,208.707367 755.057373,216.928253 
	C755.928284,225.790253 762.453247,231.248749 773.607483,233.050293 
	C776.573792,233.529388 780.326721,233.021667 780.105042,238.291458 
	C779.823853,244.975632 780.163147,244.997742 773.271057,244.998413 
	C744.274170,245.001221 715.277344,245.005447 686.280457,244.987274 
	C683.735107,244.985672 680.474548,245.766190 681.028076,241.338272 
	C681.416321,238.232361 679.030640,234.161774 685.565613,233.796539 
	C698.464417,233.075592 704.920227,226.201904 706.002625,213.477417 
	C708.264160,186.891479 706.907776,160.246277 706.697815,133.642654 
	C706.630188,125.070045 706.241089,116.407295 706.026489,107.787613 
	C705.600342,90.672417 705.328735,73.553391 704.978821,56.436241 
	C704.966797,55.844688 704.799561,55.256310 704.471802,53.219070 
	C700.630005,62.089413 697.280640,69.687126 694.040039,77.330971 
	C685.356140,97.814484 676.696045,118.308159 668.069153,138.815750 
	C658.671387,161.155746 649.342346,183.524643 639.942505,205.863770 
	C635.017639,217.567871 629.942993,229.209335 625.075562,240.936996 
	C623.821289,243.959000 621.956421,244.768219 618.708435,245.154572 
	C609.924072,246.199509 605.086243,243.725677 601.496643,234.636612 
	C591.379822,209.020325 579.877197,183.949234 568.827393,158.704132 
	C560.035522,138.617676 551.085144,118.600700 542.247681,98.534096 
	C538.459229,89.931786 534.750488,81.293861 531.081909,72.639748 
	C530.566528,71.424072 530.234558,70.183113 528.716675,69.193237 
	C527.367737,72.881660 527.590881,76.730682 527.190247,80.312119 
	C525.153381,98.521248 523.960693,116.825333 521.892639,135.030319 
	C519.694702,154.378067 517.723206,173.741638 515.879761,193.124313 
	C515.223389,200.025360 513.967529,206.865768 513.992310,213.834976 
	C514.034668,225.715637 518.157898,230.775024 529.664795,232.960724 
	C533.997131,233.783615 537.185486,240.453140 534.992126,244.155701 
	C534.378662,245.191376 533.262573,244.976151 532.308777,244.976715 
	C509.644623,244.989883 486.980255,244.936111 464.316528,245.030472 
	C460.574554,245.046051 460.717957,242.646408 461.084564,240.383728 
	C461.458527,238.075729 458.981812,234.379105 464.045624,233.952148 
	C467.797394,233.635818 471.496887,232.711365 475.223022,232.077499 
	C484.474823,230.503616 489.355774,224.341202 490.771332,215.741547 
	C492.376495,205.990021 492.881012,196.061691 494.029449,186.229538 
	C495.558044,173.142685 497.311829,160.082138 498.844543,146.995728 
	C499.996368,137.161591 500.911072,127.299911 502.006500,117.458870 
	C503.246460,106.319588 504.627380,95.195862 505.841156,84.053856 
	C506.967407,73.715469 507.902100,63.356251 509.020599,53.016960 
	C509.767059,46.116756 510.538147,39.319778 509.272339,32.308056 
	C507.146271,20.530983 501.243835,18.641027 490.538391,16.989429 
	C488.719360,16.708790 485.937561,18.054096 485.342468,15.555419 
	C484.708282,12.892529 485.032440,9.926382 485.358246,7.141776 
	C485.518860,5.768546 487.216400,6.031773 488.331970,6.030591 
	C508.829681,6.008873 529.327759,6.069048 549.824768,5.945275 
	C552.710754,5.927848 553.475769,7.677236 554.299194,9.667091 
	C559.840820,23.058020 565.383057,36.448765 570.877014,49.859276 
	C581.256531,75.195702 591.611572,100.542191 601.961060,125.890884 
	C607.821716,140.245132 613.651245,154.612061 619.691284,169.307251 
z"/>
<path fill="#800080" opacity="1.000000" stroke="none" 
	d="
M277.569458,235.230103 
	C277.895538,237.690948 277.913025,240.407669 277.905090,243.575470 
	C276.144043,241.290497 277.183350,238.353409 277.569458,235.230103 
z"/>
<path fill="#000000" opacity="1.000000" stroke="none" 
	d="
M349.003845,119.933228 
	C349.003174,93.114304 349.098816,66.786369 348.961823,40.459660 
	C348.891754,26.987541 354.908905,20.161903 369.136627,18.887178 
	C381.762573,17.755960 393.807831,19.031700 405.042816,25.058678 
	C417.394623,31.684792 423.320251,42.582348 425.015320,56.167255 
	C426.736755,69.963219 424.564850,83.113686 418.184113,95.418762 
	C408.299011,114.481865 391.885162,124.305893 371.225616,128.045166 
	C365.613556,129.060913 359.985626,128.659149 354.386078,129.093094 
	C349.780212,129.450043 348.366455,127.655708 348.983643,123.420967 
	C349.126343,122.442032 349.004181,121.424500 349.003845,119.933228 
z"/>
<path fill="#000000" opacity="1.000000" stroke="none" 
	d="
M796.670898,326.472443 
	C796.012634,336.041077 791.000305,340.331573 781.659912,339.986603 
	C779.709656,339.914612 779.010254,339.107361 779.019165,337.270966 
	C779.049011,331.110260 779.066772,324.949005 779.009460,318.788666 
	C778.988586,316.545654 780.169922,316.118103 782.129150,315.976288 
	C789.128174,315.469666 794.301636,319.042694 796.670898,326.472443 
z"/>
<path fill="#000000" opacity="1.000000" stroke="none" 
	d="
M347.923157,326.086548 
	C348.432037,324.520142 348.880219,323.309204 349.344482,322.054962 
	C351.536835,323.624969 351.685211,326.079437 352.573334,328.146851 
	C353.797455,330.996429 353.177399,332.152893 349.755829,332.073212 
	C343.338898,331.923767 346.978851,328.809906 347.923157,326.086548 
z"/>
</svg>