<svg xmlns="http://www.w3.org/2000/svg" viewBox="45.19 -38.6099853515625 484.6199951171875 652.2200012207031"> <svg xmlns="http://www.w3.org/2000/svg" id="Layer_2" viewBox="-0.00999748706817627 0 151.7899932861328 151.87001037597656" height="337.1669000365453" width="336.9893798828125" y="31.3900146484375" x="119.005" preserveAspectRatio="xMinYMin" style="overflow: visible;"><path class="cls-1" d="M69.8,151.63c2.03.16,4.05.24,6.05.24,14.08,0,27.69-3.83,39.58-11.12,0,0-40.96-15.75-45.63,10.88Z" style="fill: #4f75ff; fill-opacity: 1;"></path><path class="cls-1" d="M74.05,109.47l-.08.1c-3.22,3.82-21.92,38.49-21.92,38.49,2.16.71,4.35,1.32,6.52,1.83,21.63-42.26,17.98-37.09,75.88-25.64,3.54-4.28,6.59-8.92,9.09-13.83l-50.9-10c-1.14-.29-10.62-2.3-18.59,9.05Z" style="fill: #4f75ff; fill-opacity: 0.9;"></path><path class="cls-1" d="M89.98,64.08c-6.64-.78-11.82,2.31-15.86,9.43l-.16.23c-9.55,11.33-19.15,47.16-36.63,48.73-11.02.99-21.98-11.35-31.66-22.25-.95-1.07-1.87-2.11-2.78-3.12,5.61,19.42,23,42.02,34.16,40.99,21.58-1.99,26.91-61.46,53.29-58.38,1.11.13,41.33,8.07,59.86,11.73,1.04-5.05,1.57-10.22,1.58-15.39l-61.81-11.95Z" style="fill: #4f75ff; fill-opacity: 0.8;"></path><path class="cls-1" d="M37.06,102.24c10.07-.92,17.78-16.46,24.58-30.18,3.43-6.93,6.68-13.47,9.94-17.39,4.76-8.29,11.24-11.9,19.31-10.75.67.1,35.92,7.16,58.13,11.61-1.67-5.99-4.07-11.75-7.17-17.18-13.39-3.06-47.33-10.5-53.8-10.5-10.51,0-17.69,14.51-24.64,28.54-7.1,14.34-14.44,29.16-26.08,30.22-10.99,1-21.96-11.34-31.64-22.23-1.41-1.58-2.76-3.11-4.08-4.55-.89,4.13-1.43,8.33-1.62,12.55,10.92,10.89,24.68,30.97,37.06,29.85Z" style="fill: #4f75ff; fill-opacity: 0.7;"></path><path class="cls-1" d="M37.06,66.41c10.07-.92,17.78-16.46,24.59-30.18,3.44-6.94,6.7-13.51,9.96-17.42,12.21-16.18,23.95-9.91,47.29-5.43C106.3,4.71,91.24,0,75.86,0c-1.28,0-2.33,0-3.03,0-.12.28-.25.61-.39.95-13.02,32.13-24.83,48.9-35.1,49.83-8.75.79-17.44-6.81-25.6-15.54-1.79,2.81-3.41,5.76-4.81,8.79l1.02,1.15c9.2,10.35,19.66,22.07,29.12,21.23Z" style="fill: #4f75ff; fill-opacity: 0.6;"></path><path class="cls-1" d="M36.7,28.81c9.82-.89,17.75-13.92,24.43-27.37-15.09,2.97-29.11,10.6-39.88,21.74,6.15,5.38,10.97,6.04,15.45,5.64Z" style="fill: #4f75ff; fill-opacity: 0.5;"></path></svg> <svg y="408.3900146484375" viewBox="11.940000534057617 41.189998626708984 344.6199951171875 135.22000122070312" x="115.19" height="135.22000122070312" width="344.6199951171875" style="overflow: visible;"><g fill="#FFFFFF" fill-opacity="1" style=""><path d="M41.19 146.12L41.19 146.12Q37.91 146.12 33.81 145.22Q29.70 144.33 25.82 142.98Q21.94 141.64 18.95 140.15L18.95 140.15L22.69 136.42L22.69 176.41L11.94 176.41L11.94 82.98Q11.94 78.36 14.85 75.52Q17.76 72.69 22.39 71.12Q27.01 69.55 32.24 68.88Q37.46 68.21 42.09 68.21L42.09 68.21Q51.04 68.21 58.95 71.94Q66.86 75.67 71.79 84.55Q76.71 93.43 76.71 108.65L76.71 108.65Q76.71 120.15 72.61 128.58Q68.51 137.01 60.60 141.56Q52.69 146.12 41.19 146.12ZM41.19 136.27L41.19 136.27Q49.40 136.27 54.70 132.76Q60.00 129.25 62.69 122.98Q65.37 116.71 65.37 108.65L65.37 108.65Q65.37 100.60 63.58 93.58Q61.79 86.57 56.72 82.31Q51.64 78.06 41.94 78.06L41.94 78.06Q34.18 78.06 28.43 79.85Q22.69 81.64 22.69 84.92L22.69 84.92L22.69 131.04Q27.31 133.73 31.94 135.00Q36.57 136.27 41.19 136.27ZM99.70 172.83L99.70 172.83Q97.46 172.83 95.67 172.38Q93.88 171.94 92.68 171.49L92.68 171.49L92.68 161.64Q93.73 162.09 95.37 162.53Q97.01 162.98 99.10 162.98L99.10 162.98Q104.18 162.98 107.31 160.15Q110.45 157.31 112.61 152.53Q114.77 147.76 116.56 141.94L116.56 141.94L116.56 146.27L84.92 69.55L97.16 69.55L121.94 133.13L119.70 133.13L144.33 69.55L155.07 69.55L123.13 151.34Q119.70 160.15 115.59 164.77Q111.49 169.40 107.39 171.12Q103.28 172.83 99.70 172.83ZM182.98 41.19L182.98 144.03L172.24 144.03L172.24 41.19L182.98 41.19ZM237.46 146.27L237.46 146.27Q220.00 146.27 211.56 135.89Q203.13 125.52 203.13 107.01L203.13 107.01Q203.13 87.61 212.01 77.91Q220.89 68.21 237.16 68.21L237.16 68.21Q249.25 68.21 256.86 73.06Q264.47 77.91 268.05 86.64Q271.64 95.37 271.64 107.01L271.64 107.01Q271.64 125.37 262.76 135.82Q253.88 146.27 237.46 146.27ZM237.31 136.42L237.31 136.42Q246.41 136.42 251.49 132.46Q256.56 128.51 258.73 121.86Q260.89 115.22 260.89 107.01L260.89 107.01Q260.89 98.21 258.65 91.71Q256.41 85.22 251.26 81.64Q246.11 78.06 237.31 78.06L237.31 78.06Q228.35 78.06 223.28 81.94Q218.20 85.82 216.04 92.31Q213.88 98.80 213.88 107.01L213.88 107.01Q213.88 120.15 219.10 128.28Q224.32 136.42 237.31 136.42ZM322.38 146.27L322.38 146.27Q304.92 146.27 296.49 135.89Q288.05 125.52 288.05 107.01L288.05 107.01Q288.05 87.61 296.93 77.91Q305.82 68.21 322.08 68.21L322.08 68.21Q334.17 68.21 341.78 73.06Q349.40 77.91 352.98 86.64Q356.56 95.37 356.56 107.01L356.56 107.01Q356.56 125.37 347.68 135.82Q338.80 146.27 322.38 146.27ZM322.23 136.42L322.23 136.42Q331.34 136.42 336.41 132.46Q341.49 128.51 343.65 121.86Q345.81 115.22 345.81 107.01L345.81 107.01Q345.81 98.21 343.58 91.71Q341.34 85.22 336.19 81.64Q331.04 78.06 322.23 78.06L322.23 78.06Q313.28 78.06 308.20 81.94Q303.13 85.82 300.96 92.31Q298.80 98.80 298.80 107.01L298.80 107.01Q298.80 120.15 304.02 128.28Q309.25 136.42 322.23 136.42Z" transform="translate(0, 0)"></path></g></svg></svg>