<svg xmlns="http://www.w3.org/2000/svg" viewBox="-8 106.16399999999999 598.0299987792969 362.67173369682996"> <svg xmlns="http://www.w3.org/2000/svg" xmlns:xlink="http://www.w3.org/1999/xlink" version="1.1" id="Layer_1" x="62" y="176.164" viewBox="36 27.149993896484375 128.39999389648438 145.65000915527344" xml:space="preserve" height="222.67173369683" width="196.299560546875" preserveAspectRatio="xMinYMin" enable-background="new 0 0 200 200" style="overflow: visible;"><path class="st0" d="M100.4,172.8c-1.4,0-2.7-0.3-3.9-1l-56.3-32.3c-2.4-1.4-4-4-4-6.8l-0.2-64.9c0-2.8,1.5-5.5,3.9-6.9l56.1-32.7   c2.4-1.4,5.5-1.4,7.9,0l56.3,32.3c2.4,1.4,4,4,4,6.8l0.2,64.9c0,2.8-1.5,5.5-3.9,6.9l-56.1,32.7   C103.1,172.4,101.8,172.8,100.4,172.8z M99.9,30.1c-0.9,0-1.7,0.2-2.5,0.7L41.3,63.4c-1.5,0.9-2.5,2.5-2.4,4.3l0.2,64.9   c0,1.8,1,3.4,2.5,4.3l56.3,32.3c1.5,0.9,3.4,0.9,4.9,0l56.1-32.7c1.5-0.9,2.5-2.5,2.4-4.3l-0.2-64.9c0-1.8-1-3.4-2.5-4.3   l-56.3-32.3C101.6,30.3,100.7,30.1,99.9,30.1z" style="fill: #4a73e8; fill-opacity: 0.93;"></path><path class="st0" d="M131.7,113.4l-0.1-21.3l-3,1.7l0.1,19.6c0,1.8-0.9,3.4-2.4,4.3l-14.2,8.3v3.5l15.7-9.1   C130.2,118.9,131.7,116.2,131.7,113.4z" style="fill: #4a73e8; fill-opacity: 0.93;"></path><path class="st0" d="M119.4,78.1l3-1.7L104,65.9c-2.4-1.4-5.5-1.4-7.9,0L78.6,76.1l3,1.7l15.9-9.3c0.8-0.4,1.6-0.7,2.5-0.7" style="fill: #4a73e8; fill-opacity: 0.93;"></path><path class="st0" d="M74.2,117.9c-1.5-0.9-2.5-2.5-2.5-4.3l-0.1-20.2l-3-1.7l0.1,21.9c0,2.8,1.5,5.4,4,6.8l17.5,10V127L74.2,117.9z   " style="fill: #4a73e8; fill-opacity: 0.93;"></path><path class="st0" d="M152.7,73.9c0-2.3-1.2-4.4-3.2-5.6l-45.9-26.3c-2-1.1-4.4-1.1-6.4,0L51.5,68.7c-2,1.2-3.2,3.3-3.2,5.6   l0.2,52.9c0,2.3,1.2,4.4,3.2,5.6L97.6,159c2,1.1,4.4,1.1,6.4,0l45.7-26.6c2-1.2,3.2-3.3,3.2-5.6L152.7,73.9z M94.2,139.2   c0,3.5-2.3,5-5.2,3.4l-25.6-14.5c-2.9-1.6-5.2-5.8-5.2-9.3V87.6c0-3.5,2.3-5,5.2-3.4L89,98.7c2.9,1.6,5.2,5.8,5.2,9.3V139.2z    M95.5,90.1L69.6,75.6c-3.1-1.7-3.1-4.6,0-6.3l25.9-14.9c3.1-1.8,8.1-1.8,11.2-0.1l25.8,14.5c3.1,1.7,3.1,4.6,0,6.3L106.6,90   C103.5,91.8,98.5,91.8,95.5,90.1z M144.1,118c0,3.5-2.3,7.7-5.2,9.3l-25.6,14.5c-2.9,1.6-5.2,0.1-5.2-3.4v-31.2   c0-3.5,2.3-7.7,5.2-9.3l25.6-14.5c2.9-1.6,5.2-0.1,5.2,3.4V118z" style="fill: #4f8ffe; fill-opacity: 1;"></path></svg> <svg y="256.865" viewBox="6.389999866485596 18.219999313354492 219.02999877929688 61.269996643066406" x="301" height="61.269996643066406" width="219.02999877929688" style="overflow: visible;"><g fill="#4f8ffe" fill-opacity="1" style=""><path d="M15.23 65.82L6.39 65.82L6.39 18.22L25.98 18.22Q32.30 18.22 36.82 20.26Q41.34 22.30 43.79 26.11Q46.24 29.92 46.24 35.16L46.24 35.16Q46.24 40.39 43.79 44.20Q41.34 48.01 36.82 50.05Q32.30 52.09 25.98 52.09L25.98 52.09L11.29 52.09L15.23 47.94L15.23 65.82ZM15.23 21.35L15.23 48.89L11.29 44.61L25.57 44.61Q31.42 44.61 34.37 42.13Q37.33 39.64 37.33 35.16L37.33 35.16Q37.33 30.60 34.37 28.15Q31.42 25.70 25.57 25.70L25.57 25.70L11.29 25.70L15.23 21.35ZM60.66 79.49L60.66 79.49Q58.00 79.49 55.35 78.61Q52.70 77.72 50.93 76.16L50.93 76.16L54.33 69.90Q55.62 71.06 57.26 71.74Q58.89 72.42 60.59 72.42L60.59 72.42Q62.90 72.42 64.33 71.26Q65.76 70.11 66.98 67.39L66.98 67.39L69.09 62.63L69.77 61.61L83.50 29.51L91.66 29.51L74.66 68.75Q72.96 72.83 70.89 75.21Q68.82 77.59 66.27 78.54Q63.72 79.49 60.66 79.49ZM73.92 60.86L68.14 67.12L51.75 29.51L60.59 29.51L73.92 60.86ZM134.23 65.82L100.50 65.82L100.50 18.22L109.34 18.22L109.34 58.34L134.23 58.34L134.23 65.82ZM159.46 66.30L159.46 66.30Q153.88 66.30 149.53 63.89Q145.18 61.47 142.66 57.26Q140.15 53.04 140.15 47.67L140.15 47.67Q140.15 42.23 142.66 38.05Q145.18 33.86 149.53 31.48Q153.88 29.10 159.46 29.10L159.46 29.10Q165.10 29.10 169.49 31.48Q173.88 33.86 176.36 38.01Q178.84 42.16 178.84 47.67L178.84 47.67Q178.84 53.04 176.36 57.26Q173.88 61.47 169.49 63.89Q165.10 66.30 159.46 66.30ZM159.46 59.02L159.46 59.02Q162.59 59.02 165.04 57.66Q167.48 56.30 168.88 53.72Q170.27 51.14 170.27 47.67L170.27 47.67Q170.27 44.13 168.88 41.58Q167.48 39.03 165.04 37.67Q162.59 36.31 159.53 36.31L159.53 36.31Q156.40 36.31 153.99 37.67Q151.57 39.03 150.14 41.58Q148.72 44.13 148.72 47.67L148.72 47.67Q148.72 51.14 150.14 53.72Q151.57 56.30 153.99 57.66Q156.40 59.02 159.46 59.02ZM206.04 66.30L206.04 66.30Q200.46 66.30 196.11 63.89Q191.76 61.47 189.24 57.26Q186.73 53.04 186.73 47.67L186.73 47.67Q186.73 42.23 189.24 38.05Q191.76 33.86 196.11 31.48Q200.46 29.10 206.04 29.10L206.04 29.10Q211.68 29.10 216.07 31.48Q220.46 33.86 222.94 38.01Q225.42 42.16 225.42 47.67L225.42 47.67Q225.42 53.04 222.94 57.26Q220.46 61.47 216.07 63.89Q211.68 66.30 206.04 66.30ZM206.04 59.02L206.04 59.02Q209.17 59.02 211.62 57.66Q214.06 56.30 215.46 53.72Q216.85 51.14 216.85 47.67L216.85 47.67Q216.85 44.13 215.46 41.58Q214.06 39.03 211.62 37.67Q209.17 36.31 206.11 36.31L206.11 36.31Q202.98 36.31 200.57 37.67Q198.15 39.03 196.72 41.58Q195.30 44.13 195.30 47.67L195.30 47.67Q195.30 51.14 196.72 53.72Q198.15 56.30 200.57 57.66Q202.98 59.02 206.04 59.02Z" transform="translate(0, 0)"></path></g></svg></svg>