<svg xmlns="http://www.w3.org/2000/svg" viewBox="110.35 65.32 354.299560546875 383.08985973519384"> <svg xmlns="http://www.w3.org/2000/svg" xmlns:xlink="http://www.w3.org/1999/xlink" version="1.1" id="Layer_1" x="180.35" y="135.32" viewBox="36 27.149993896484375 128.39999389648438 145.65000915527344" xml:space="preserve" height="243.08985973519384" width="214.299560546875" preserveAspectRatio="xMinYMin" enable-background="new 0 0 200 200" style="overflow: visible;"><path class="st0" d="M100.4,172.8c-1.4,0-2.7-0.3-3.9-1l-56.3-32.3c-2.4-1.4-4-4-4-6.8l-0.2-64.9c0-2.8,1.5-5.5,3.9-6.9l56.1-32.7   c2.4-1.4,5.5-1.4,7.9,0l56.3,32.3c2.4,1.4,4,4,4,6.8l0.2,64.9c0,2.8-1.5,5.5-3.9,6.9l-56.1,32.7   C103.1,172.4,101.8,172.8,100.4,172.8z M99.9,30.1c-0.9,0-1.7,0.2-2.5,0.7L41.3,63.4c-1.5,0.9-2.5,2.5-2.4,4.3l0.2,64.9   c0,1.8,1,3.4,2.5,4.3l56.3,32.3c1.5,0.9,3.4,0.9,4.9,0l56.1-32.7c1.5-0.9,2.5-2.5,2.4-4.3l-0.2-64.9c0-1.8-1-3.4-2.5-4.3   l-56.3-32.3C101.6,30.3,100.7,30.1,99.9,30.1z" style="fill: #4a73e8; fill-opacity: 0.93;"></path><path class="st0" d="M131.7,113.4l-0.1-21.3l-3,1.7l0.1,19.6c0,1.8-0.9,3.4-2.4,4.3l-14.2,8.3v3.5l15.7-9.1   C130.2,118.9,131.7,116.2,131.7,113.4z" style="fill: #4a73e8; fill-opacity: 0.93;"></path><path class="st0" d="M119.4,78.1l3-1.7L104,65.9c-2.4-1.4-5.5-1.4-7.9,0L78.6,76.1l3,1.7l15.9-9.3c0.8-0.4,1.6-0.7,2.5-0.7" style="fill: #4a73e8; fill-opacity: 0.93;"></path><path class="st0" d="M74.2,117.9c-1.5-0.9-2.5-2.5-2.5-4.3l-0.1-20.2l-3-1.7l0.1,21.9c0,2.8,1.5,5.4,4,6.8l17.5,10V127L74.2,117.9z   " style="fill: #4a73e8; fill-opacity: 0.93;"></path><path class="st0" d="M152.7,73.9c0-2.3-1.2-4.4-3.2-5.6l-45.9-26.3c-2-1.1-4.4-1.1-6.4,0L51.5,68.7c-2,1.2-3.2,3.3-3.2,5.6   l0.2,52.9c0,2.3,1.2,4.4,3.2,5.6L97.6,159c2,1.1,4.4,1.1,6.4,0l45.7-26.6c2-1.2,3.2-3.3,3.2-5.6L152.7,73.9z M94.2,139.2   c0,3.5-2.3,5-5.2,3.4l-25.6-14.5c-2.9-1.6-5.2-5.8-5.2-9.3V87.6c0-3.5,2.3-5,5.2-3.4L89,98.7c2.9,1.6,5.2,5.8,5.2,9.3V139.2z    M95.5,90.1L69.6,75.6c-3.1-1.7-3.1-4.6,0-6.3l25.9-14.9c3.1-1.8,8.1-1.8,11.2-0.1l25.8,14.5c3.1,1.7,3.1,4.6,0,6.3L106.6,90   C103.5,91.8,98.5,91.8,95.5,90.1z M144.1,118c0,3.5-2.3,7.7-5.2,9.3l-25.6,14.5c-2.9,1.6-5.2,0.1-5.2-3.4v-31.2   c0-3.5,2.3-7.7,5.2-9.3l25.6-14.5c2.9-1.6,5.2-0.1,5.2,3.4V118z" style="fill: #4f8ffe; fill-opacity: 1;"></path></svg></svg>