<svg xmlns="http://www.w3.org/2000/svg" viewBox="27.439400000000006 8 520.1212072430458 520.321533203125"><rect height="100%" width="100%" x="27.439400000000006" y="8" fill="rgba(255, 255, 255, 1)"/> <svg xmlns="http://www.w3.org/2000/svg" id="Layer_2" viewBox="-0.00999748706817627 0 151.7899932861328 151.87001037597656" height="380.321533203125" width="380.1212072430458" y="78" x="97.4394" preserveAspectRatio="xMinYMin" style="overflow: visible;"><path class="cls-1" d="M69.8,151.63c2.03.16,4.05.24,6.05.24,14.08,0,27.69-3.83,39.58-11.12,0,0-40.96-15.75-45.63,10.88Z" style="fill: #4f75ff; fill-opacity: 1;"></path><path class="cls-1" d="M74.05,109.47l-.08.1c-3.22,3.82-21.92,38.49-21.92,38.49,2.16.71,4.35,1.32,6.52,1.83,21.63-42.26,17.98-37.09,75.88-25.64,3.54-4.28,6.59-8.92,9.09-13.83l-50.9-10c-1.14-.29-10.62-2.3-18.59,9.05Z" style="fill: #4f75ff; fill-opacity: 0.9;"></path><path class="cls-1" d="M89.98,64.08c-6.64-.78-11.82,2.31-15.86,9.43l-.16.23c-9.55,11.33-19.15,47.16-36.63,48.73-11.02.99-21.98-11.35-31.66-22.25-.95-1.07-1.87-2.11-2.78-3.12,5.61,19.42,23,42.02,34.16,40.99,21.58-1.99,26.91-61.46,53.29-58.38,1.11.13,41.33,8.07,59.86,11.73,1.04-5.05,1.57-10.22,1.58-15.39l-61.81-11.95Z" style="fill: #4f75ff; fill-opacity: 0.8;"></path><path class="cls-1" d="M37.06,102.24c10.07-.92,17.78-16.46,24.58-30.18,3.43-6.93,6.68-13.47,9.94-17.39,4.76-8.29,11.24-11.9,19.31-10.75.67.1,35.92,7.16,58.13,11.61-1.67-5.99-4.07-11.75-7.17-17.18-13.39-3.06-47.33-10.5-53.8-10.5-10.51,0-17.69,14.51-24.64,28.54-7.1,14.34-14.44,29.16-26.08,30.22-10.99,1-21.96-11.34-31.64-22.23-1.41-1.58-2.76-3.11-4.08-4.55-.89,4.13-1.43,8.33-1.62,12.55,10.92,10.89,24.68,30.97,37.06,29.85Z" style="fill: #4f75ff; fill-opacity: 0.7;"></path><path class="cls-1" d="M37.06,66.41c10.07-.92,17.78-16.46,24.59-30.18,3.44-6.94,6.7-13.51,9.96-17.42,12.21-16.18,23.95-9.91,47.29-5.43C106.3,4.71,91.24,0,75.86,0c-1.28,0-2.33,0-3.03,0-.12.28-.25.61-.39.95-13.02,32.13-24.83,48.9-35.1,49.83-8.75.79-17.44-6.81-25.6-15.54-1.79,2.81-3.41,5.76-4.81,8.79l1.02,1.15c9.2,10.35,19.66,22.07,29.12,21.23Z" style="fill: #4f75ff; fill-opacity: 0.6;"></path><path class="cls-1" d="M36.7,28.81c9.82-.89,17.75-13.92,24.43-27.37-15.09,2.97-29.11,10.6-39.88,21.74,6.15,5.38,10.97,6.04,15.45,5.64Z" style="fill: #4f75ff; fill-opacity: 0.5;"></path></svg></svg>